<svg width="1920" height="3367" viewBox="0 0 1920 3367" fill="none" xmlns="http://www.w3.org/2000/svg">
<g filter="url(#filter0_f_405_261)">
<path d="M729.691 150.479C702.884 -23.1779 248.567 -61 15.0075 -61H-14V3313H1933V3223.02C1920 3138.12 1542.9 2998.83 1516.89 2985.61C1490.89 2972.4 1407.87 2750.24 1335.35 2721.27C1262.83 2692.29 1103.79 2620.61 1101.29 2502.16C1098.79 2383.71 888.232 2341.01 820.714 2277.47C753.197 2213.92 560.648 2285.09 542.643 2237.81C524.638 2190.54 589.155 2018.71 753.197 2034.47C917.239 2050.23 962.751 2034.47 1038.77 1949.57C1121.62 1857.05 1289.33 1901.79 1354.35 1894.16C1419.37 1886.54 1548.4 1741.14 1566.41 1696.41C1584.41 1651.67 1379.36 1632.86 1311.84 1577.45C1244.32 1522.04 1188.81 1423.93 1113.29 1389.87C1037.77 1355.81 958.25 1416.3 849.222 1410.71C740.194 1405.12 467.124 1326.32 589.155 1297.34C711.186 1268.37 849.222 1144.84 888.232 1012.15C926.181 883.077 1124.79 818.975 1223.32 842.868C1321.84 866.761 1462.38 742.212 1379.36 728.995C1296.34 715.777 1246.82 554.627 1223.32 515.483C1199.81 476.339 994.759 404.151 906.236 380.258C817.714 356.365 763.2 367.549 729.691 150.479Z" fill="#05031B"/>
</g>
<defs>
<filter id="filter0_f_405_261" x="-67.1" y="-114.1" width="2053.2" height="3480.2" filterUnits="userSpaceOnUse" color-interpolation-filters="sRGB">
<feFlood flood-opacity="0" result="BackgroundImageFix"/>
<feBlend mode="normal" in="SourceGraphic" in2="BackgroundImageFix" result="shape"/>
<feGaussianBlur stdDeviation="26.55" result="effect1_foregroundBlur_405_261"/>
</filter>
</defs>
</svg>
