<svg width="869" height="1860" viewBox="0 0 869 1860" fill="none" xmlns="http://www.w3.org/2000/svg">
<path d="M757.54 559.333C760.088 562.519 761.362 567.827 762.636 572.711C763.91 577.595 763.273 577.17 755.629 570.163C672.193 580.528 568.099 662.142 516.744 709.712C506.552 748.557 488.715 834.274 498.907 866.381C509.1 898.487 596.073 931.145 638.286 943.461C611.935 861.474 595.337 795.677 604.017 781.656C623.892 749.55 885.37 688.225 1015.54 656.162C1024.45 652.339 1079.88 643.421 1081.79 638.962C1083.7 634.503 1072.23 630.681 1069.68 621.762C1067.14 612.844 1069.05 600.194 1065.22 598.697C1053.02 594 1042.97 590.976 1037.83 590.548C1034.11 590.238 1025.89 586.944 1015.54 581.88C1015.02 581.628 1014.5 581.37 1013.97 581.109C980.244 565.532 836.896 558.195 768.37 556.461C763.952 558.446 760.232 559.519 757.54 559.333Z" fill="#F8F8FB"/>
<path d="M408.5 856.877C415.359 849.8 426.377 844.078 432.656 841.536C433.93 893.773 435.714 1002.83 432.656 1021.18C428.834 1044.11 433.293 1096.98 451.767 1127.56C470.241 1158.14 475.974 1215.47 500.818 1233.31C524.348 1250.2 535.307 1307.67 607.839 1345.09C611.889 1347.18 616.132 1349.2 620.579 1351.16C639.738 1359.58 658.698 1367.5 677.912 1374.53C658.502 1346.14 623.403 1280.32 638.286 1244.14C653.169 1207.95 693.025 1166.21 711.092 1149.86C685.828 1082.6 659.034 1008.01 638.286 943.461C596.073 931.145 509.1 898.487 498.907 866.381C488.715 834.274 506.552 748.557 516.744 709.712C504.972 720.616 495.971 729.732 490.626 735.79C469.715 759.49 430.265 821.36 408.5 856.877Z" fill="#FBCDB2"/>
<path d="M677.912 1374.53C743.028 1398.34 811.058 1411.87 899.597 1399.57C950.994 1392.43 987.416 1385.81 1013.62 1378.95C1043.78 1339.74 1096.31 1237.88 1065.22 1144.11L755.629 1265.16C742.72 1232.72 727.218 1192.79 711.092 1149.86C693.025 1166.21 653.169 1207.95 638.286 1244.14C623.403 1280.32 658.502 1346.14 677.912 1374.53Z" fill="#FCE8D8"/>
<path d="M1072.87 1351.16C1091.34 1332.05 1136.57 1296.37 1151.22 1273.44C1165.87 1250.51 1227.67 1189.99 1244.87 1180.43C1262.07 1170.88 1281.81 1115.46 1286.91 1084.88L1287.11 1083.66C1292.3 1052.53 1303.36 986.21 1295.19 943.461C1288.77 909.856 1276.59 858.615 1264.61 835.542C1261.15 828.873 1257.71 824.557 1254.42 823.7C1239.77 819.878 1251.87 882.943 1244.87 862.558C1246.14 875.936 1246.14 911.609 1235.95 947.283C1225.76 982.956 1115.8 945.584 1062.1 922.439L1094.53 1132.66L1065.22 1144.11C1096.31 1237.88 1043.78 1339.74 1013.62 1378.95C1045.89 1370.5 1062.68 1361.7 1072.87 1351.16Z" fill="#FEBFDC"/>
<path d="M1244.87 862.558C1237.86 842.173 1201.55 729.42 1159.5 719.227C1148.46 718.803 1127.91 726.235 1134.02 759.36C1140.14 792.485 1085.18 859.586 1056.94 888.995L1062.1 922.439C1115.8 945.584 1225.76 982.956 1235.95 947.283C1246.14 911.609 1246.14 875.936 1244.87 862.558Z" fill="#F9D2C3"/>
<path d="M1212.38 679.095C1198.79 673.361 1165.62 657.308 1141.67 638.962C1121.8 623.743 1089.3 607.963 1065.22 598.697C1069.05 600.194 1067.14 612.844 1069.68 621.762C1072.23 630.681 1083.7 634.503 1081.79 638.962C1079.88 643.421 1024.45 652.339 1015.54 656.162L1056.94 888.995C1085.18 859.586 1140.14 792.485 1134.02 759.36C1127.91 726.235 1148.46 718.803 1159.5 719.227C1146.49 715.974 1166.19 701.035 1185.62 690.327C1196.63 684.263 1207.54 679.555 1212.38 679.095Z" fill="#F0ACB3"/>
<path d="M840.354 505.823C822.119 520.237 788.205 547.547 768.37 556.461C836.896 558.195 980.244 565.532 1013.97 581.109C981.671 565.098 930.471 533.115 927.626 519.838C904.184 516.78 859.677 509.221 840.354 505.823Z" fill="#F49EA0"/>
<path d="M927.626 519.838C934.209 520.475 949.285 522.131 956.93 523.66C945.675 518.776 920.746 507.607 911.064 502.001C900.912 496.124 869.701 480.837 840.354 471.173C834.709 469.314 829.134 467.663 823.791 466.328C797.291 459.703 733.333 470.787 704.667 477.157C740.34 478.006 815.255 481.234 829.524 487.349C797.673 490.322 732.569 497.16 726.963 500.727C763.273 500.302 836.786 500.727 840.354 505.823C859.677 509.221 904.184 516.78 927.626 519.838Z" fill="#E6BBA9"/>
<path d="M840.354 505.823C836.786 500.727 763.273 500.302 726.963 500.727C719.319 500.515 700.463 501.237 686.193 505.823C716.261 514.487 746.286 545.107 757.54 559.333C760.232 559.519 763.952 558.446 768.37 556.461C788.205 547.547 822.119 520.237 840.354 505.823Z" fill="#F47295"/>
<path d="M704.667 477.157C733.333 470.787 797.291 459.703 823.791 466.328C829.134 467.663 834.709 469.314 840.354 471.173C879.083 471.047 963.385 474.84 996.435 490.844C972.718 478.979 892.437 444.562 798.31 440.846C701.482 437.024 602.743 492.446 617.394 491.809C627.643 491.363 658.772 498.678 678.496 503.788C681.012 504.392 683.576 505.069 686.193 505.823C700.463 501.237 719.319 500.515 726.963 500.727C732.569 497.16 797.673 490.322 829.524 487.349C815.255 481.234 740.34 478.006 704.667 477.157Z" fill="#91288D"/>
<path d="M579.173 621.762C600.195 616.029 647.335 551.689 692.563 542.771C706.159 540.09 717.633 541.193 726.963 544.403C685.556 510.361 629.498 514.105 605.928 526.208C582.358 538.312 464.508 624.947 452.404 650.428C440.301 675.909 395.709 754.264 383.605 767.004C371.502 779.745 330.732 835.803 330.095 870.84C329.458 905.876 318.629 960.66 317.354 1031.37C316.08 1102.08 350.48 1081.7 347.932 1112.91C348.148 1120.55 359.398 1124.38 359.398 1105.27C359.398 1086.15 333.917 1047.93 330.095 1035.19C326.273 1022.45 330.095 986.142 339.013 973.401C347.932 960.66 344.11 927.535 347.932 902.054C351.754 876.573 368.317 821.789 373.413 813.507C378.509 805.226 410.36 767.004 421.827 752.99C433.293 738.975 448.582 687.376 469.604 687.376C490.626 687.376 477.163 728.146 475.256 730.694C488.42 712.93 502.457 697.581 516.744 687.376C517.254 674.126 536.492 640.236 546.047 624.947C542.862 644.058 558.151 627.495 579.173 621.762Z" fill="#E15D94"/>
<path d="M383.605 1255.6C394.817 1287.2 429.896 1343.94 446.034 1368.36C478.735 1397.87 551.271 1457.92 579.81 1462C575.639 1452.87 564.56 1433.52 551.887 1424.8C550.963 1424.21 550.077 1423.66 549.232 1423.14C532.033 1413.59 475.337 1363.26 470.241 1351.16C465.145 1339.05 427.56 1301.47 421.19 1272.8C414.82 1244.14 389.976 1172.15 389.339 1164.51C388.702 1156.86 382.968 1134.57 389.339 1132.66C395.709 1130.75 414.82 1154.95 421.19 1168.97C423.516 1174.09 430.685 1188.29 439.314 1204.64C443.656 1192.33 449.736 1161.96 439.314 1139.03C426.286 1110.36 395.709 1063.86 395.709 1021.18C395.709 978.497 402.079 971.49 395.709 943.461C389.339 915.432 389.005 898.869 402.716 866.381C403.016 865.063 403.535 863.761 404.234 862.484C417.159 829.75 443.697 773.282 475.256 730.694C477.163 728.146 490.626 687.376 469.604 687.376C448.582 687.376 433.293 738.975 421.827 752.99C410.36 767.004 378.509 805.226 373.413 813.507C368.317 821.789 351.754 876.573 347.932 902.054C344.11 927.535 347.932 960.66 339.013 973.401C330.095 986.142 326.273 1022.45 330.095 1035.19C333.917 1047.93 359.398 1086.15 359.398 1105.27C359.398 1124.38 348.148 1120.55 347.932 1112.91C345.384 1144.12 369.591 1216.11 383.605 1255.6Z" fill="#C02F8A"/>
<path d="M432.656 1021.18C435.714 1002.83 433.93 893.773 432.656 841.536C426.377 844.078 415.359 849.8 408.5 856.877C406.396 860.31 404.457 863.498 402.716 866.381C389.005 898.869 389.339 915.432 395.709 943.461C402.079 971.49 395.709 978.497 395.709 1021.18C395.709 1063.86 426.286 1110.36 439.314 1139.03C449.736 1161.96 443.656 1192.33 439.314 1204.64C454.315 1233.06 473.73 1267.95 479.796 1272.8C489.352 1280.45 543.499 1334.6 542.225 1339.05C540.951 1343.51 484.893 1325.47 470.241 1351.16C475.337 1363.26 532.033 1413.59 549.232 1423.14C561.124 1420.17 587.964 1416.01 600.195 1423.14C615.483 1432.06 644.149 1437.16 656.89 1430.15C669.63 1423.14 696.386 1431.11 732.696 1448.79C752.723 1453.54 789.024 1457.54 805.317 1457.54C822.517 1457.54 869.02 1470.92 882.397 1466.46C895.775 1462 949.285 1457.54 970.944 1457.54C992.603 1457.54 1015.54 1438.43 1035.28 1439.07C1049.69 1439.53 1074.28 1449.93 1098.39 1447.78C1108.28 1444.09 1117.09 1441.03 1124.47 1439.07C1165.24 1428.24 1221.3 1330.14 1244.87 1305.29C1268.44 1280.45 1254.42 1266.43 1264.61 1245.41C1271.2 1231.83 1294.53 1198.31 1314.52 1166.32C1298.95 1190.19 1260.81 1207.02 1235.95 1225.66C1210.47 1244.77 1143.58 1328.86 1134.66 1345.09C1125.74 1361.31 1057.58 1378.95 1035.28 1393.84C1012.99 1408.73 893.864 1430.15 855.005 1430.15C816.147 1430.15 711.092 1409.76 679.823 1397.02C654.807 1386.83 621.41 1358.15 607.839 1345.09C535.307 1307.67 524.348 1250.2 500.818 1233.31C475.974 1215.47 470.241 1158.14 451.767 1127.56C433.293 1096.98 428.834 1044.11 432.656 1021.18Z" fill="#F06E9B"/>
<path d="M1276.08 719.227C1278.63 748.531 1282.45 790.574 1288.82 807.137C1326.41 834.529 1341.06 947.283 1348.06 972.764C1353.67 993.149 1345.73 1078.51 1341.06 1118.64C1356.98 1081.7 1360.17 954.927 1371.63 931.357C1377.33 919.644 1379.26 895.66 1380.84 874.025L1381.01 871.672V871.67C1382.54 850.743 1383.87 832.56 1388.2 830.707C1379.28 816.055 1357.62 784.968 1342.33 777.834C1327.04 770.699 1300.29 705.44 1288.82 673.703C1278.81 676.475 1261.03 674.398 1248.72 671.979C1261.37 684.044 1274.44 700.308 1276.08 719.227Z" fill="#EA4F96"/>
<path d="M1337.23 686.739C1325.77 675.272 1232.76 583.541 1225.76 595.644C1222.15 601.879 1238.99 614.201 1257.13 627.47C1274.21 639.958 1292.43 653.286 1295.83 663.169C1297.79 668.88 1294.6 672.101 1288.82 673.703C1300.29 705.44 1327.04 770.699 1342.33 777.834C1357.62 784.968 1379.28 816.055 1388.2 830.707C1395.33 827.649 1422.6 870.627 1435.34 892.499C1436.61 872.751 1425.78 823.7 1410.49 786.752C1395.2 749.805 1348.7 698.205 1337.23 686.739Z" fill="#DF468E"/>
<path d="M1141.67 638.962C1165.62 657.308 1198.79 673.361 1212.38 679.095C1207.54 679.555 1196.63 684.263 1185.62 690.327C1190.93 693.802 1204.99 700.881 1218.75 701.391C1235.95 702.028 1234.67 719.227 1243.59 737.701C1246.35 743.407 1251.91 752.524 1258.4 762.545C1268.72 778.483 1281.39 796.708 1288.82 807.137C1282.45 790.574 1278.63 748.531 1276.08 719.227C1274.44 700.308 1261.37 684.044 1248.72 671.979C1241.77 665.356 1234.95 659.999 1230.21 656.162C1216.84 645.332 1202.82 598.829 1168.42 559.333C1161.96 551.909 1152.65 545.272 1141.67 539.317C1163.26 572.712 1136.1 572.711 1116.36 572.711H1116.19C1096.44 572.711 1132.75 590.548 1116.19 590.548C1102.94 590.548 1127.65 622.824 1141.67 638.962Z" fill="#C83B90"/>
<path d="M956.93 523.66C949.285 522.131 934.209 520.475 927.626 519.838C930.471 533.115 981.671 565.098 1013.97 581.109C1014.52 581.364 1015.04 581.621 1015.54 581.88C1025.89 586.944 1034.11 590.238 1037.83 590.548C1042.97 590.976 1053.02 594 1065.22 598.697C1089.3 607.963 1121.8 623.743 1141.67 638.962C1127.65 622.824 1102.94 590.548 1116.19 590.548C1132.75 590.548 1096.44 572.711 1116.19 572.711H1116.36C1136.1 572.711 1163.26 572.712 1141.67 539.317C1094.22 513.596 1015.41 500.602 998.336 491.809C997.75 491.507 997.116 491.185 996.435 490.844C963.385 474.84 879.083 471.047 840.354 471.173C869.701 480.837 900.912 496.124 911.064 502.001C920.746 507.607 945.675 518.776 956.93 523.66Z" fill="#DE4E93"/>
<path d="M1267.16 559.334C1287.76 573.56 1329.85 606.091 1333.41 622.399C1337.87 642.784 1246.78 552.326 1267.16 559.334Z" fill="#C14BAB"/>
<path d="M1383.1 545.956C1328.32 456.135 1242.32 451.676 1218.75 430.654C1209.79 422.664 1189.05 411.821 1162.69 399.629C1119.37 385.804 970.307 363.129 967.759 376.507C965.211 389.884 1027 410.906 1042.29 416.002C1057.58 421.099 1131.47 462.505 1148.67 467.602C1165.87 472.698 1243.59 514.105 1264.61 529.393C1281.43 541.624 1331.5 575.259 1354.43 590.548C1352.52 580.992 1258.24 512.831 1243.59 502.638C1228.94 492.446 1124.47 447.217 1103.45 435.75C1086.63 426.577 1015.32 395.405 981.774 380.966C1048.66 380.966 1148.67 413.454 1168.42 418.551C1188.17 423.647 1248.05 459.957 1283.72 472.698C1312.26 482.89 1361.87 525.783 1383.1 545.956Z" fill="#7C3094"/>
<path fill-rule="evenodd" clip-rule="evenodd" d="M418.642 535.127C421.827 519.838 505.915 458.683 561.336 452.95C549.657 442.97 513.559 427.342 462.597 444.669C411.635 461.996 326.273 558.909 289.962 605.199C321.842 560.036 387.117 469.284 402.429 454.346C355.944 495.982 260.136 586.146 236.452 624.947C212.5 664.188 178.483 727.509 164.468 754.264C179.969 711.583 218.615 618.959 249.193 589.911C287.414 553.6 295.059 531.941 312.895 514.105C330.016 496.984 422.258 415.306 438.089 408.21C427.445 410.422 380.269 408.177 337.739 455.498C292.51 505.823 249.83 566.978 227.534 589.911C209.697 608.257 159.372 737.276 136.439 799.493C142.384 759.572 160.264 670.431 184.216 633.229C214.156 586.726 275.948 495.631 289.962 479.705C294.198 474.892 305.473 464.901 319.884 452.95C329.469 439.614 367.072 402.818 444.76 353.231C454.898 346.76 465.718 340.072 477.248 333.189C602.106 258.657 737.792 238.909 834.621 225.531C846.434 223.899 859.261 223.054 872.842 222.897C970.578 221.762 1107.32 256.235 1185.62 289.234C1231.3 308.482 1285.32 345.105 1333.41 381.906C1379.23 416.965 1419.66 452.186 1442.34 472.698C1488.85 514.742 1546.18 622.399 1566.56 646.606C1577.28 659.329 1591.16 685.602 1603.21 719.227C1614.1 749.579 1623.49 785.923 1627.72 823.7C1636.64 903.328 1616.25 947.283 1618.8 1003.98C1634.39 1098.26 1609.88 1191.9 1627.72 1123.74C1645.56 1055.58 1657.02 844.722 1643.01 772.738C1628.99 700.754 1544.91 553.6 1516.88 508.371C1488.85 463.142 1371.63 349.752 1395.84 361.218C1420.05 372.685 1531.53 486.075 1551.28 508.371C1571.02 530.667 1640.46 656.162 1662.12 713.494C1683.78 770.827 1686.33 853.003 1693.33 844.722C1700.34 836.44 1704.16 759.36 1697.79 713.494C1691.42 667.628 1616.89 529.393 1636 524.934C1655.11 520.475 1738.56 701.391 1738.56 690.327C1738.56 679.263 1679.32 515.379 1597.14 407.084C1514.97 298.79 1317.49 184.762 1267.16 166.925C1216.84 149.088 1075.42 101.948 1015.54 92.3927C955.655 82.8373 792.577 87.2965 799.584 85.3854C806.591 83.4743 965.211 72.6449 1003.43 72.0079C1041.65 71.3708 1321.31 145.903 1453.17 248.464C1585.04 351.026 1648.74 399.629 1531.53 276.494C1414.32 153.358 1245.5 112.141 1267.16 112.141C1342.97 103.859 1456.36 211.517 1531.53 256.746C1606.7 301.974 1611.16 340.196 1621.99 333.189C1645.56 317.263 1610.52 300.701 1544.91 229.991C1479.29 159.281 1362.08 107.681 1313.66 75.83C1265.25 43.9786 1060.13 -6.34652 1035.28 0.660779C1010.44 7.66808 689.378 50.3489 553.692 89.2075C418.005 128.066 201.416 324.271 356.213 214.065C441.768 153.155 539.193 128.05 596.543 118.101C608.818 114.946 620.028 113.018 629.498 112.778C632.759 112.695 635.514 112.602 637.788 112.51C648.439 111.563 649.617 112.031 637.788 112.51C629.372 113.259 615.043 114.891 596.543 118.101C511.38 139.985 374.888 220.901 411.635 207.058C442.886 195.284 559.664 166.521 611.802 153.315C624.504 149.482 633.582 146.939 636.505 146.54C640.103 146.049 629.807 148.755 611.802 153.315C576.11 164.085 511.808 185.034 475.056 197.174C494.359 191.061 491.605 207.8 474.063 214.065C471.108 216.05 467.996 217.977 464.767 219.841C431.669 243.536 329.692 331.963 276.986 378.418C292.157 368.85 310.318 358.084 330.095 346.788C333.772 344.688 337.504 342.569 341.283 340.437C365.492 326.485 411.024 299.166 462.597 265.027C539.04 214.424 698.934 184.124 766.459 172.658C833.984 161.192 998.336 170.747 1028.91 172.658C1059.49 174.569 1243.59 239.546 1289.46 256.746C1335.32 273.945 1473.56 376.507 1521.97 430.654C1550.92 463.024 1571.21 504.499 1581.35 527.261C1583.85 531.421 1585.96 535.448 1587.59 539.317C1590.4 549.417 1588.17 542.574 1581.35 527.261C1556.5 485.926 1492.54 431.498 1465.91 389.247C1436.61 342.744 1131.48 207.057 1003.43 179.028C875.39 150.999 612.935 206.42 570.254 222.897C543.016 233.411 429.384 290.731 341.283 340.437C336.785 343.03 333.023 345.16 330.095 346.788C310.318 358.084 292.157 368.85 276.986 378.418C257.701 390.58 243.249 400.805 236.452 407.721C200.141 444.669 112.232 570.8 102.039 578.444C91.847 586.089 61.9067 629.406 58.0846 642.147C54.2624 654.888 49.1662 922.439 49.1662 943.461C49.1662 964.483 40.8849 1053.67 40.8849 1040.93C40.8849 1028.19 7.12246 913.52 1.38921 911.609C-4.34403 909.698 9.03354 950.468 16.6779 988.053C24.3222 1025.64 31.9665 1122.47 40.8849 1184.26C49.8033 1246.05 88.6619 1326.31 114.78 1394.48C140.898 1462.64 240.911 1539.08 224.986 1523.59C181.182 1484.3 142.887 1409.53 115.362 1344.33C98.9514 1311.46 84.4173 1276.71 75.9213 1244.14C60.5228 1185.11 78.0418 1255.93 115.362 1344.33C150.632 1414.99 194.572 1476.99 205.875 1490.03C222.438 1509.14 299.518 1581.76 319.266 1609.15C339.014 1636.55 410.361 1676.04 446.034 1700.16C481.707 1724.28 572.165 1756.31 556.877 1749.94C544.646 1744.84 497.846 1710.89 475.974 1694.55C447.592 1680.9 419.922 1659.49 410.361 1646.74C393.161 1623.81 331.369 1578.6 269.578 1523.59C220.144 1479.59 162.345 1326.6 139.624 1255.6C139.624 1262.16 111.696 1180.44 98.1078 1105.27C91.9053 1070.95 88.6906 1038.01 92.4839 1015.44C104.587 943.461 104.588 926.898 112.232 935.179C119.876 943.461 133.891 967.031 132.617 982.956C131.343 998.882 139.624 1151.77 139.624 1172.15C139.624 1192.54 116.472 1175.34 98.1078 1105.27C111.696 1180.44 139.624 1262.16 139.624 1255.6C162.345 1326.6 220.144 1479.59 269.578 1523.59C331.369 1578.6 393.161 1623.81 410.361 1646.74C419.922 1659.49 447.592 1680.9 475.974 1694.55C484.197 1698.51 492.478 1701.82 500.397 1704.07C514.317 1708.04 527.115 1708.76 536.492 1704.07C569.617 1687.51 656.89 1760.13 805.317 1751.85C953.745 1743.57 1104.72 1703.43 1134.66 1706.62C1164.6 1709.8 1235.95 1732.1 1253.15 1719.36C1270.35 1706.62 1287.69 1683.69 1315.65 1669.67C1343.61 1655.66 1346.15 1647.38 1365.26 1640.37C1384.37 1633.36 1296.47 1659.48 1288.18 1649.92C1279.9 1640.37 1236.58 1667.12 1244.87 1655.66C1234.67 1648.01 1195.81 1658.84 1216.2 1649.92C1236.58 1641.01 1323.86 1571.57 1378.64 1531.44C1433.43 1491.3 1510.51 1335.87 1534.08 1305.29C1552.93 1280.83 1598.42 1094.22 1618.8 1003.98C1616.25 947.283 1636.64 903.328 1627.72 823.7C1623.49 785.923 1614.1 749.579 1603.21 719.227C1587.63 708.398 1471.65 539.317 1465.91 529.393C1460.18 519.47 1337.23 384.841 1333.41 381.906C1285.32 345.105 1231.3 308.482 1185.62 289.234C1107.32 256.235 970.578 221.762 872.842 222.897C935.271 239.373 745.437 260.568 709.126 265.027C672.816 269.486 539.677 315.352 511.011 333.189C488.078 347.458 457.288 352.496 444.76 353.231C367.072 402.818 329.469 439.614 319.884 452.95C330.766 443.926 343.436 433.785 356.213 423.91C382.509 403.589 409.263 384.401 421.827 378.418C446.529 366.655 465.801 363.58 516.744 361.172C520.977 360.972 525.429 360.777 530.122 360.581C591.276 358.033 647.334 328.093 745.437 324.271C843.539 320.448 941.004 302.612 1015.54 335.737C1061.74 356.272 1119.69 379.745 1162.69 399.629C1189.05 411.821 1209.79 422.664 1218.75 430.654C1242.32 451.676 1328.32 456.135 1383.1 545.956C1361.87 525.783 1312.26 482.89 1283.72 472.698C1248.05 459.957 1188.17 423.647 1168.42 418.551C1148.67 413.454 1048.66 380.966 981.774 380.966C1015.32 395.405 1086.63 426.577 1103.45 435.75C1124.47 447.217 1228.94 492.446 1243.59 502.638C1258.24 512.831 1352.52 580.992 1354.43 590.548C1367.78 599.466 1365.9 599.466 1361.44 581.629C1356.98 563.793 1306.66 506.46 1317.49 515.379C1328.32 524.297 1395.84 605.836 1406.67 620.488C1417.5 635.14 1462.73 701.391 1465.91 719.227C1468.46 733.497 1489.91 764.244 1500.31 777.834C1504.14 772.737 1542.36 830.707 1546.18 844.722C1550 858.736 1565.93 1032.01 1566.56 1064.5C1567.2 1096.98 1540.45 1194.45 1534.08 1213.56C1527.71 1232.67 1471.01 1332.68 1463.37 1350.52C1455.72 1368.36 1370.36 1486.21 1348.7 1505.96C1340.04 1513.85 1323.14 1529.48 1305.24 1546.09C1278.35 1571.03 1249.2 1598.19 1242.32 1604.7C1230.85 1615.52 1092.62 1667.12 1067.77 1669.67C1042.93 1672.22 984.322 1692.6 942.278 1698.97C927.563 1701.2 916.282 1701.17 908.516 1700.16C884.309 1700.15 663.26 1692.6 527.573 1646.74C391.887 1600.87 293.784 1480.47 277.859 1457.54C266.193 1440.74 238.805 1391.47 229.994 1375.5C229.797 1375.16 229.613 1374.83 229.445 1374.53C228.811 1373.36 228.32 1372.46 227.962 1371.81C228.437 1372.67 229.125 1373.93 229.994 1375.5C244.74 1400.94 339.679 1514.14 389.339 1554.37C429.599 1586.99 519.504 1619.21 559.425 1631.25C550.084 1624.03 545.165 1617.24 549.232 1612.98C562.61 1598.96 620.579 1641.64 646.06 1640.37C671.542 1639.09 688.104 1655.66 729.511 1655.66H1052.48C1064.59 1646.1 1213.01 1563.29 1203.46 1563.29C1193.9 1563.29 1203.46 1537.81 1200.27 1522.52C1197.09 1507.23 1253.15 1457.54 1242.32 1457.54C1206.64 1454.36 1088.16 1521.24 1100.9 1537.81C1113.64 1554.37 1094.53 1578.6 1062.68 1571.57C1030.82 1564.54 998.336 1578.6 962.026 1578.6H837.806C809.776 1578.6 760.088 1561.38 753.718 1544.18C748.622 1530.42 714.222 1524.72 697.66 1523.59C684.722 1528.75 671.789 1505.91 615.483 1498.95C553.692 1491.3 479.796 1453.72 470.241 1439.7C466.088 1433.61 448.095 1427.76 427.56 1417.03C423.351 1414.83 419.035 1412.42 414.71 1409.76C419.06 1457.54 459.412 1464.55 479.796 1483.66C500.181 1502.77 474.063 1490.03 479.796 1498.95C485.53 1507.87 594.461 1570.3 602.743 1571.57C611.024 1572.84 615.483 1549.27 620.579 1554.37C624.693 1558.48 622.166 1572.14 611.661 1578.6C616.545 1581.02 634.467 1586.46 667.082 1588.77C696.341 1590.84 721.663 1599.45 730.568 1602.74C731.397 1602.93 732.112 1603.15 732.696 1603.42C735.034 1604.5 734.072 1604.03 730.568 1602.74C719.649 1600.29 688.847 1604.61 673.453 1603.42C660.202 1602.4 626.737 1586.45 611.661 1578.6C609.15 1580.14 606.183 1581.27 602.743 1581.76C584.906 1584.31 446.034 1496.4 435.842 1490.03C425.649 1483.66 383.605 1439.7 364.494 1409.76C345.384 1379.82 282.318 1263.89 277.859 1248.6C273.4 1233.31 260.659 1172.15 258.111 1141.58C255.563 1111 249.83 1039.01 249.83 1035.19C176.316 1126.92 208.423 888.995 215.43 807.137C222.438 725.279 413.546 545.956 417.902 544.403C417.841 541.079 418.061 537.912 418.642 535.127ZM842.265 1624.44C847.998 1624.44 983.048 1617.44 980.5 1612.98C977.952 1608.52 808.502 1608.52 842.265 1624.44ZM921.256 289.234C974.342 306.858 1082.81 340.323 1091.98 333.189C1103.45 324.271 881.714 276.494 921.256 289.234ZM967.759 276.493C967.759 282.864 1020.63 282.227 1028.91 284.138C1142.94 303.249 1205.37 356.122 1257.61 376.507C1309.84 396.892 1389.47 487.349 1406.67 495.631C1423.87 503.912 1406.67 477.157 1317.49 399.629C1228.3 322.101 1103.45 289.234 1051.85 276.493C1000.25 263.753 967.759 270.123 967.759 276.493Z" fill="#44237C"/>
<path d="M1348.7 1505.96C1370.36 1486.21 1455.72 1368.36 1463.37 1350.52C1471.01 1332.68 1527.71 1232.67 1534.08 1213.56C1540.45 1194.45 1567.2 1096.98 1566.56 1064.5C1565.93 1032.01 1550 858.736 1546.18 844.722C1542.36 830.707 1504.14 772.737 1500.31 777.834C1496.49 782.93 1511.78 831.981 1516.88 853.003C1521.97 874.025 1534.71 975.312 1531.53 1014.81C1528.34 1054.3 1513.69 1179.16 1506.05 1196.36C1502.14 1205.16 1487.9 1239.93 1473.65 1273.44C1460.02 1305.46 1446.38 1336.33 1441.71 1342.24C1432.15 1354.34 1371.63 1446.08 1358.26 1465.19C1350.47 1476.31 1335.91 1487.86 1323.86 1503.73C1315.2 1515.14 1307.84 1528.77 1305.24 1546.09C1323.14 1529.48 1340.04 1513.85 1348.7 1505.96Z" fill="#962099"/>
<path fill-rule="evenodd" clip-rule="evenodd" d="M488.715 537.675C588.091 535.127 565.795 511.557 593.824 505.823C619.902 500.489 644.877 495.707 678.496 503.788C658.772 498.678 627.643 491.363 617.394 491.809C602.743 492.446 701.482 437.024 798.31 440.846C892.437 444.562 972.718 478.979 996.435 490.844C997.089 491.161 997.723 491.482 998.336 491.809C1015.41 500.602 1094.22 513.596 1141.67 539.317C1152.65 545.272 1161.96 551.909 1168.42 559.333C1202.82 598.829 1216.84 645.332 1230.21 656.162C1234.95 659.999 1241.77 665.356 1248.72 671.979C1261.03 674.398 1278.81 676.475 1288.82 673.703C1294.6 672.101 1297.79 668.88 1295.83 663.169C1292.43 653.286 1274.21 639.958 1257.13 627.47C1238.99 614.201 1222.15 601.879 1225.76 595.644C1232.76 583.541 1325.77 675.272 1337.23 686.739C1348.7 698.205 1395.2 749.805 1410.49 786.752C1425.78 823.7 1436.61 872.751 1435.34 892.499C1422.6 870.627 1395.33 827.649 1388.2 830.707C1393.93 837.714 1404.12 879.121 1404.12 896.321C1404.12 913.521 1418.14 1010.35 1418.14 1028.82C1418.14 1047.3 1401.57 1129.47 1389.47 1155.59C1377.37 1181.71 1327.04 1273.44 1315.65 1290C1304.26 1306.57 1255.7 1386.19 1264.61 1378.55C1273.53 1370.91 1310.48 1342.24 1304.75 1350.52C1299.01 1358.8 1248.05 1405.31 1242.32 1420.59C1236.58 1435.88 1216.2 1449.9 1193.9 1451.81C1177.34 1451.81 1221.3 1432.06 1218.11 1424.42C1214.93 1416.77 1235.95 1366.45 1248.05 1354.98C1260.15 1343.51 1283.72 1323.77 1292.64 1312.94C1299.72 1304.34 1330.36 1246.16 1345.15 1217.45C1345.11 1217.51 1345.32 1217.03 1345.75 1216.1L1346.07 1215.38C1351.38 1203.67 1377.58 1145.93 1371.63 1134.57C1364.63 1121.19 1318.76 1233.31 1313.03 1247.96C1307.29 1262.61 1296.47 1239.68 1304.75 1219.29C1313.03 1198.91 1346.79 1142.21 1341.06 1118.64C1335.61 1131.27 1326.15 1147.62 1315.65 1164.51C1315.29 1165.12 1314.91 1165.72 1314.52 1166.32C1294.53 1198.31 1271.2 1231.83 1264.61 1245.41C1254.42 1266.43 1268.44 1280.45 1244.87 1305.29C1221.3 1330.14 1165.24 1428.24 1124.47 1439.07C1116.2 1444.46 1107.33 1446.98 1098.39 1447.78C1053.65 1464.47 986.987 1493.91 932.723 1491.3C866.472 1488.12 793.851 1518.7 769.007 1521.24C744.163 1523.79 716.133 1509.14 701.482 1521.24C700.181 1522.32 698.92 1523.09 697.66 1523.59C714.222 1524.72 748.622 1530.42 753.718 1544.18C760.088 1561.38 809.776 1578.6 837.806 1578.6H962.026C998.336 1578.6 1030.82 1564.54 1062.68 1571.57C1094.53 1578.6 1113.64 1554.37 1100.9 1537.81C1088.16 1521.24 1206.64 1454.36 1242.32 1457.54C1253.15 1457.54 1197.09 1507.23 1200.27 1522.52C1203.46 1537.81 1193.9 1563.29 1203.46 1563.29C1213.01 1563.29 1064.59 1646.1 1052.48 1655.66C1040.38 1665.21 918.071 1691.97 902.145 1692.6C891.793 1693.02 894.092 1698.28 908.516 1700.16C916.282 1701.17 927.563 1701.2 942.278 1698.97C984.322 1692.6 1042.93 1672.22 1067.77 1669.67C1092.62 1667.12 1230.85 1615.52 1242.32 1604.7C1249.2 1598.19 1278.35 1571.03 1305.24 1546.09C1307.84 1528.77 1315.2 1515.14 1323.86 1503.73C1315.65 1505.96 1248.69 1506.59 1270.35 1474.1C1241.68 1490.67 1258.24 1465.19 1270.35 1444.8C1282.45 1424.42 1341.06 1311.66 1384.37 1254.33C1427.69 1197 1418.14 1001.43 1427.06 1068.32C1435.97 1135.21 1402.85 1216.75 1418.14 1191.9C1433.43 1167.06 1457.63 1079.78 1457.63 1103.35C1457.63 1126.92 1408.58 1238.4 1389.47 1268.34C1370.36 1298.28 1387.56 1300.83 1384.37 1330.77C1406.88 1303.81 1453.05 1241.33 1457.63 1207.19C1463.37 1164.51 1468.46 1072.14 1465.91 1043.47C1463.37 1014.81 1464.64 871.477 1480.57 874.025C1496.49 876.573 1508.6 961.297 1510.51 989.964C1512.42 1018.63 1502.86 1164.51 1494.58 1191.9C1486.3 1219.29 1445.07 1295.74 1473.65 1273.44C1487.9 1239.93 1502.14 1205.16 1506.05 1196.36C1513.69 1179.16 1528.34 1054.3 1531.53 1014.81C1534.71 975.312 1521.97 874.025 1516.88 853.003C1511.78 831.981 1496.49 782.93 1500.31 777.834C1489.91 764.244 1468.46 733.497 1465.91 719.227C1462.73 701.391 1417.5 635.14 1406.67 620.488C1395.84 605.836 1328.32 524.297 1317.49 515.379C1306.66 506.46 1356.98 563.793 1361.44 581.629C1365.9 599.466 1367.78 599.466 1354.43 590.548C1331.5 575.259 1281.43 541.624 1264.61 529.393C1243.59 514.105 1165.87 472.698 1148.67 467.602C1131.47 462.505 1057.58 421.099 1042.29 416.002C1027 410.906 965.211 389.884 967.759 376.507C970.307 363.129 1119.37 385.804 1162.69 399.629C1119.69 379.745 1061.74 356.272 1015.54 335.737C941.004 302.612 843.539 320.448 745.437 324.271C647.334 328.093 591.276 358.033 530.122 360.581C525.429 360.777 520.977 360.972 516.744 361.172C531.396 374.504 502.729 380.966 474.063 380.966C445.397 380.966 363.195 418.551 356.213 423.91C343.436 433.785 330.766 443.926 319.884 452.95C305.473 464.901 294.198 474.892 289.962 479.705C275.948 495.631 214.156 586.726 184.216 633.229C160.264 670.431 142.384 759.572 136.439 799.493C159.372 737.276 209.697 608.257 227.534 589.911C249.83 566.978 292.51 505.823 337.739 455.498C380.269 408.177 427.445 410.422 438.089 408.21C438.751 407.913 439.28 407.747 439.664 407.721C439.293 407.911 438.765 408.07 438.089 408.21C422.258 415.306 330.016 496.984 312.895 514.105C295.059 531.941 287.414 553.6 249.193 589.911C218.615 618.959 179.969 711.583 164.468 754.264C178.483 727.509 212.5 664.188 236.452 624.947C260.136 586.146 355.944 495.982 402.429 454.346C403.027 453.763 403.549 453.295 403.99 452.95C403.476 453.409 402.956 453.875 402.429 454.346C387.117 469.284 321.842 560.036 289.962 605.199C326.273 558.909 411.635 461.996 462.597 444.669C513.559 427.342 549.657 442.97 561.336 452.95C505.915 458.683 421.827 519.838 418.642 535.127C418.061 537.912 417.841 541.079 417.902 544.403C418.179 559.319 424.146 577.402 428.834 578.444C434.567 579.718 463.871 538.949 488.715 537.675ZM1267.16 559.334C1287.76 573.56 1329.85 606.091 1333.41 622.399C1337.87 642.784 1246.78 552.326 1267.16 559.334ZM853.094 394.344C832.2 394.344 820.181 385.425 816.784 380.966C804.043 372.094 829.524 376.507 844.813 372.048C860.102 367.588 879.212 394.344 853.094 394.344Z" fill="#9A2588"/>
<path d="M902.145 1692.6C918.071 1691.97 1040.38 1665.21 1052.48 1655.66H729.511C688.104 1655.66 671.542 1639.09 646.06 1640.37C665.808 1649.29 656.89 1655.66 638.286 1662.03C625.339 1666.46 580.803 1647.75 559.425 1631.25C519.504 1619.21 429.599 1586.99 389.339 1554.37C339.679 1514.14 244.74 1400.94 229.994 1375.5C238.805 1391.47 266.193 1440.74 277.859 1457.54C293.784 1480.47 391.887 1600.87 527.573 1646.74C663.26 1692.6 884.309 1700.15 908.516 1700.16C894.092 1698.28 891.793 1693.02 902.145 1692.6Z" fill="#61248C"/>
<path d="M646.06 1640.37C620.579 1641.64 562.61 1598.96 549.232 1612.98C545.165 1617.24 550.084 1624.03 559.425 1631.25C580.803 1647.75 625.339 1666.46 638.286 1662.03C656.89 1655.66 665.808 1649.29 646.06 1640.37Z" fill="#C336A9"/>
<path d="M842.265 1624.44C847.998 1624.44 983.048 1617.44 980.5 1612.98C977.952 1608.52 808.502 1608.52 842.265 1624.44Z" fill="#7E1E89"/>
<path d="M611.661 1578.6C626.737 1586.45 660.202 1602.4 673.453 1603.42C688.847 1604.61 719.649 1600.29 730.568 1602.74C721.663 1599.45 696.341 1590.84 667.082 1588.77C634.467 1586.46 616.545 1581.02 611.661 1578.6Z" fill="#753498"/>
<path d="M762.636 572.711C761.362 567.827 760.088 562.519 757.54 559.333C746.286 545.107 716.261 514.487 686.193 505.823C683.926 505.21 681.329 504.521 678.496 503.788C644.877 495.707 619.902 500.489 593.824 505.823C565.795 511.557 588.091 535.127 488.715 537.675C463.871 538.949 434.567 579.718 428.834 578.444C424.146 577.402 418.179 559.319 417.902 544.403C413.546 545.956 222.438 725.279 215.43 807.137C208.423 888.995 176.316 1126.92 249.83 1035.19C214.793 996.971 289.962 835.542 296.97 813.507C303.977 791.473 330.095 709.712 337.739 719.227C345.384 728.742 289.962 870.84 274.037 893.773C261.296 912.119 252.59 995.697 249.83 1035.19C249.83 1039.01 255.563 1111 258.111 1141.58C260.659 1172.15 273.4 1233.31 277.859 1248.6C282.318 1263.89 345.384 1379.82 364.494 1409.76C383.605 1439.7 425.649 1483.66 435.842 1490.03C446.034 1496.4 584.906 1584.31 602.743 1581.76C606.183 1581.27 609.15 1580.14 611.661 1578.6C622.166 1572.14 624.693 1558.48 620.579 1554.37C615.483 1549.27 611.024 1572.84 602.743 1571.57C594.461 1570.3 485.53 1507.87 479.796 1498.95C474.063 1490.03 500.181 1502.77 479.796 1483.66C459.412 1464.55 419.06 1457.54 414.71 1409.76C391.589 1395.57 368.197 1374.25 359.398 1339.05C340.924 1265.16 317.354 1230.12 309.71 1212.92C302.066 1195.72 274.037 1135.84 277.859 1127.56C281.681 1119.28 298.244 1157.5 303.977 1172.15C309.71 1186.81 351.117 1253.69 359.398 1272.8C367.68 1291.91 418.005 1357.53 446.034 1368.36C429.896 1343.94 394.817 1287.2 383.605 1255.6C369.591 1216.11 345.384 1144.12 347.932 1112.91C350.48 1081.7 316.08 1102.08 317.354 1031.37C318.629 960.66 329.458 905.876 330.095 870.84C330.732 835.803 371.502 779.745 383.605 767.004C395.709 754.264 440.301 675.909 452.404 650.428C464.508 624.947 582.358 538.312 605.928 526.208C629.498 514.105 685.556 510.361 726.963 544.403C742.464 549.735 752.05 560.884 755.629 570.163C763.273 577.17 763.91 577.595 762.636 572.711Z" fill="#78379B"/>
<path d="M769.007 1521.24C793.851 1518.7 866.472 1488.12 932.723 1491.3C986.987 1493.91 1053.65 1464.47 1098.39 1447.78C1074.28 1449.93 1049.69 1439.53 1035.28 1439.07C1015.54 1438.43 992.603 1457.54 970.944 1457.54C949.285 1457.54 895.775 1462 882.397 1466.46C869.02 1470.92 822.517 1457.54 805.317 1457.54C789.024 1457.54 752.723 1453.54 732.696 1448.79C731.582 1448.52 730.518 1448.25 729.511 1447.99C710.4 1442.89 673.453 1462 663.26 1470.92C653.068 1479.84 633.957 1502.07 620.579 1480.47C610.345 1463.96 572.109 1437.5 551.887 1424.8C564.56 1433.52 575.639 1452.87 579.81 1462C551.271 1457.92 478.735 1397.87 446.034 1368.36C446.034 1382.12 491.9 1433.55 514.833 1457.54C497.633 1456.27 466.419 1419.96 455.589 1403.39C446.926 1390.14 412.059 1374.52 395.709 1368.36C403.353 1380.46 426.286 1416.36 427.56 1417.03C448.095 1427.76 466.088 1433.61 470.241 1439.7C479.796 1453.72 553.692 1491.3 615.483 1498.95C671.789 1505.91 684.722 1528.75 697.66 1523.59C698.92 1523.09 700.181 1522.32 701.482 1521.24C716.133 1509.14 744.163 1523.79 769.007 1521.24Z" fill="#BA2E87"/>
<path d="M620.579 1480.47C633.957 1502.07 653.068 1479.84 663.26 1470.92C673.453 1462 710.4 1442.89 729.511 1447.99C730.518 1448.25 731.582 1448.52 732.696 1448.79C696.386 1431.11 669.63 1423.14 656.89 1430.15C644.149 1437.16 615.483 1432.06 600.195 1423.14C587.964 1416.01 561.124 1420.17 549.232 1423.14C550.124 1423.64 551.009 1424.19 551.887 1424.8C572.109 1437.5 610.345 1463.96 620.579 1480.47Z" fill="#E4548F"/>
<path d="M421.19 1272.8C427.56 1301.47 465.145 1339.05 470.241 1351.16C484.893 1325.47 540.951 1343.51 542.225 1339.05C543.499 1334.6 489.352 1280.45 479.796 1272.8C473.73 1267.95 454.315 1233.06 439.314 1204.64C430.685 1188.29 423.516 1174.09 421.19 1168.97C414.82 1154.95 395.709 1130.75 389.339 1132.66C382.968 1134.57 388.702 1156.86 389.339 1164.51C389.976 1172.15 414.82 1244.14 421.19 1272.8Z" fill="#CA368B"/>
<path d="M309.71 1212.92C317.354 1230.12 340.924 1265.16 359.398 1339.05C368.197 1374.25 391.589 1395.57 414.71 1409.76C419.035 1412.42 423.351 1414.83 427.56 1417.03C426.286 1416.36 403.353 1380.46 395.709 1368.36C412.059 1374.52 446.926 1390.14 455.589 1403.39C466.419 1419.96 497.633 1456.27 514.833 1457.54C491.9 1433.55 446.034 1382.12 446.034 1368.36C418.005 1357.53 367.68 1291.91 359.398 1272.8C351.117 1253.69 309.71 1186.81 303.977 1172.15C298.244 1157.5 281.681 1119.28 277.859 1127.56C274.037 1135.84 302.066 1195.72 309.71 1212.92Z" fill="#D1409A"/>
<path d="M249.83 1035.19C252.59 995.697 261.296 912.119 274.037 893.773C289.962 870.84 345.384 728.742 337.739 719.227C330.095 709.712 303.977 791.473 296.97 813.507C289.962 835.542 214.793 996.971 249.83 1035.19Z" fill="#DB62CB"/>
<path d="M112.232 935.179C104.588 926.898 104.587 943.461 92.4839 1015.44C88.6906 1038.01 91.9053 1070.95 98.1078 1105.27C116.472 1175.34 139.624 1192.54 139.624 1172.15C139.624 1151.77 131.343 998.882 132.617 982.956C133.891 967.031 119.876 943.461 112.232 935.179Z" fill="#E53CB9"/>
<path d="M421.827 378.418C409.263 384.401 382.509 403.589 356.213 423.91C363.195 418.551 445.397 380.966 474.063 380.966C502.729 380.966 531.396 374.504 516.744 361.172C465.801 363.58 446.529 366.655 421.827 378.418Z" fill="#AA2696"/>
<path d="M816.784 380.966C820.181 385.425 832.2 394.344 853.094 394.344C879.212 394.344 860.102 367.588 844.813 372.048C829.524 376.507 804.043 372.094 816.784 380.966Z" fill="#B72B94"/>
<path d="M1028.91 284.138C1020.63 282.227 967.759 282.864 967.759 276.493C967.759 270.123 1000.25 263.753 1051.85 276.493C1103.45 289.234 1228.3 322.101 1317.49 399.629C1406.67 477.157 1423.87 503.912 1406.67 495.631C1389.47 487.349 1309.84 396.892 1257.61 376.507C1205.37 356.122 1142.94 303.249 1028.91 284.138Z" fill="#84299A"/>
<path d="M921.256 289.234C974.342 306.858 1082.81 340.323 1091.98 333.189C1103.45 324.271 881.714 276.494 921.256 289.234Z" fill="#6E2381"/>
<path d="M834.621 225.531C737.792 238.909 602.106 258.657 477.248 333.189C465.718 340.072 454.898 346.76 444.76 353.231C457.288 352.496 488.078 347.458 511.011 333.189C539.677 315.352 672.816 269.486 709.126 265.027C745.437 260.568 935.271 239.373 872.842 222.897C859.261 223.054 846.434 223.899 834.621 225.531Z" fill="#761F8D"/>
<path d="M1566.56 646.606C1546.18 622.399 1488.85 514.742 1442.34 472.698C1419.66 452.186 1379.23 416.965 1333.41 381.906C1337.23 384.841 1460.18 519.47 1465.91 529.393C1471.65 539.317 1587.63 708.398 1603.21 719.227C1591.16 685.602 1577.28 659.329 1566.56 646.606Z" fill="#4D237F"/>
<path d="M1270.35 1474.1C1292.01 1441.62 1381.19 1360.71 1384.37 1330.77C1387.56 1300.83 1370.36 1298.28 1389.47 1268.34C1408.58 1238.4 1457.63 1126.92 1457.63 1103.35C1457.63 1079.78 1433.43 1167.06 1418.14 1191.9C1402.85 1216.75 1435.97 1135.21 1427.06 1068.32C1418.14 1001.43 1427.69 1197 1384.37 1254.33C1341.06 1311.66 1282.45 1424.42 1270.35 1444.8C1258.24 1465.19 1241.68 1490.67 1270.35 1474.1Z" fill="#C33798"/>
<path d="M1358.26 1465.19C1371.63 1446.08 1432.15 1354.34 1441.71 1342.24C1446.38 1336.33 1460.02 1305.46 1473.65 1273.44C1445.07 1295.74 1486.3 1219.29 1494.58 1191.9C1502.86 1164.51 1512.42 1018.63 1510.51 989.964C1508.6 961.297 1496.49 876.573 1480.57 874.025C1464.64 871.477 1463.37 1014.81 1465.91 1043.47C1468.46 1072.14 1463.37 1164.51 1457.63 1207.19C1453.05 1241.33 1406.88 1303.81 1384.37 1330.77C1381.19 1360.71 1292.01 1441.62 1270.35 1474.1C1248.69 1506.59 1315.65 1505.96 1323.86 1503.73C1335.91 1487.86 1350.47 1476.31 1358.26 1465.19Z" fill="#4C2286"/>
<path d="M1371.63 931.357C1360.17 954.927 1356.98 1081.7 1341.06 1118.64C1346.79 1142.21 1313.03 1198.91 1304.75 1219.29C1296.47 1239.68 1307.29 1262.61 1313.03 1247.96C1318.76 1233.31 1364.63 1121.19 1371.63 1134.57C1377.58 1145.93 1351.38 1203.67 1346.07 1215.38L1345.75 1216.1C1345.32 1217.03 1345.11 1217.51 1345.15 1217.45L1345.52 1216.75C1349.98 1207.83 1389.47 1118.64 1392.66 1114.18C1395.84 1109.72 1404.12 1055.58 1404.12 1028.82C1404.12 1002.07 1397.75 968.942 1395.84 931.357C1393.93 893.773 1385.65 892.499 1380.84 874.025C1379.26 895.66 1377.33 919.644 1371.63 931.357Z" fill="#B72985"/>
<path d="M1151.22 1273.44C1136.57 1296.37 1091.34 1332.05 1072.87 1351.16C1062.68 1361.7 1045.89 1370.5 1013.62 1378.95C987.416 1385.81 950.994 1392.43 899.597 1399.57C811.058 1411.87 743.028 1398.34 677.912 1374.53C658.698 1367.5 639.738 1359.58 620.579 1351.16C616.132 1349.2 611.889 1347.18 607.839 1345.09C621.41 1358.15 654.807 1386.83 679.823 1397.02C711.092 1409.76 816.147 1430.15 855.005 1430.15C893.864 1430.15 1012.99 1408.73 1035.28 1393.84C1057.58 1378.95 1125.74 1361.31 1134.66 1345.09C1143.58 1328.86 1210.47 1244.77 1235.95 1225.66C1260.81 1207.02 1298.95 1190.19 1314.52 1166.32C1314.76 1165.93 1315 1165.55 1315.24 1165.16L1315.65 1164.51C1326.15 1147.62 1335.61 1131.27 1341.06 1118.64C1345.73 1078.51 1353.67 993.149 1348.06 972.764C1341.06 947.283 1326.41 834.529 1288.82 807.137C1281.39 796.708 1268.72 778.483 1258.4 762.545C1260.47 782.331 1264.61 824.63 1264.61 835.542C1276.59 858.615 1288.77 909.856 1295.19 943.461C1303.36 986.21 1292.3 1052.53 1287.11 1083.66L1286.91 1084.88C1281.81 1115.46 1262.07 1170.88 1244.87 1180.43C1227.67 1189.99 1165.87 1250.51 1151.22 1273.44Z" fill="#EC679E"/>
<path d="M1244.87 862.558C1251.87 882.943 1239.77 819.878 1254.42 823.7C1257.71 824.557 1261.15 828.873 1264.61 835.542C1264.61 824.63 1260.47 782.331 1258.4 762.545C1251.91 752.524 1246.35 743.407 1243.59 737.701C1234.67 719.227 1235.95 702.028 1218.75 701.391C1204.99 700.881 1190.93 693.802 1185.62 690.327C1166.19 701.035 1146.49 715.974 1159.5 719.227C1201.55 729.42 1237.86 842.173 1244.87 862.558Z" fill="#F097A0"/>
<path d="M692.563 542.771C647.335 551.689 600.195 616.029 579.173 621.762C558.151 627.495 542.862 644.058 546.047 624.947C536.492 640.236 517.254 674.126 516.744 687.376C516.234 700.626 499.12 725.173 490.626 735.79C495.971 729.732 504.972 720.616 516.744 709.712C568.099 662.142 672.193 580.528 755.629 570.163C752.05 560.884 742.464 549.735 726.963 544.403C717.633 541.193 706.159 540.09 692.563 542.771Z" fill="#E0C5A3"/>
<path d="M490.626 735.79C499.12 725.173 516.234 700.626 516.744 687.376C502.457 697.581 488.42 712.93 475.256 730.694C443.697 773.282 417.159 829.75 404.234 862.484C405.293 860.548 406.763 858.669 408.5 856.877C430.265 821.36 469.715 759.49 490.626 735.79Z" fill="#ED889C"/>
<path d="M1193.9 1451.81C1216.2 1449.9 1236.58 1435.88 1242.32 1420.59C1248.05 1405.31 1299.01 1358.8 1304.75 1350.52C1310.48 1342.24 1273.53 1370.91 1264.61 1378.55C1255.7 1386.19 1304.26 1306.57 1315.65 1290C1327.04 1273.44 1377.37 1181.71 1389.47 1155.59C1401.57 1129.47 1418.14 1047.3 1418.14 1028.82C1418.14 1010.35 1404.12 913.521 1404.12 896.321C1404.12 879.121 1393.93 837.714 1388.2 830.707C1383.87 832.56 1382.54 850.743 1381.01 871.67V871.672L1380.84 874.025C1385.65 892.499 1393.93 893.773 1395.84 931.357C1397.75 968.942 1404.12 1002.07 1404.12 1028.82C1404.12 1055.58 1395.84 1109.72 1392.66 1114.18C1389.47 1118.64 1349.98 1207.83 1345.52 1216.75C1345.3 1217.19 1345.18 1217.41 1345.15 1217.45C1330.36 1246.16 1299.72 1304.34 1292.64 1312.94C1283.72 1323.77 1260.15 1343.51 1248.05 1354.98C1235.95 1366.45 1214.93 1416.77 1218.11 1424.42C1221.3 1432.06 1177.34 1451.81 1193.9 1451.81Z" fill="#8D2584"/>
<path d="M868.268 587.824C1076.88 587.824 1245.54 753.843 1245.54 958.089C1245.54 1162.33 1076.88 1328.35 868.268 1328.35C659.659 1328.35 490.996 1162.33 490.996 958.089C490.996 753.843 659.658 587.824 868.268 587.824Z" fill="#040217" stroke="#9A168B" stroke-width="29"/>
</svg>
