<svg width="1920" height="1080" viewBox="0 0 1920 1080" fill="none" xmlns="http://www.w3.org/2000/svg">
<path d="M1920 1080V344.356C1866.18 388.272 1753.69 502.794 1734.27 609.55C1714.85 716.306 1718.65 967.665 1722.98 1080H1920Z" fill="#F04839"/>
<path d="M1594.83 930.157C1596.63 1015.65 1572.62 1065.68 1560.39 1080H1722.98C1718.65 967.665 1714.85 716.306 1734.27 609.55C1753.69 502.794 1866.18 388.272 1920 344.356V221.089C1767.57 280.461 1685.72 423.518 1632.65 518.513C1579.58 613.508 1592.57 823.288 1594.83 930.157Z" fill="#E6443A"/>
<path d="M1920 110.262C1845.67 127.414 1674.31 192.93 1583.53 317.78C1470.06 473.843 1436.75 563.183 1439.01 753.738C1441.27 944.293 1463.29 1050.6 1377.48 1080H1560.39C1572.62 1065.68 1596.63 1015.65 1594.83 930.157C1592.57 823.288 1579.58 613.508 1632.65 518.513C1685.72 423.518 1767.57 280.461 1920 221.089V110.262Z" fill="#DB3A34"/>
<path d="M1295.62 930.157C1292.91 990.32 1209.43 1055.12 1168.03 1080H1377.48C1463.29 1050.6 1441.27 944.293 1439.01 753.738C1436.75 563.183 1470.06 473.843 1583.53 317.78C1674.31 192.93 1845.67 127.414 1920 110.262V0C1853.57 26.9529 1689.22 98.5005 1563.21 169.068C1405.7 257.277 1318.2 441.047 1295.62 513.424C1273.04 585.801 1299.01 854.953 1295.62 930.157Z" fill="#D03B2D"/>
<path d="M1258.36 274.806C1112.71 460.838 1153.92 703.979 1163.52 807.456C1173.11 910.932 1103.68 1016.67 1004.88 1033.63C906.086 1050.6 649.221 1032.5 639.059 1080H1168.03C1209.43 1055.12 1292.91 990.32 1295.62 930.157C1299.01 854.953 1273.04 585.801 1295.62 513.424C1318.2 441.047 1405.7 257.277 1563.21 169.068C1689.22 98.5005 1853.57 26.9529 1920 0H1663.08C1600.87 22.8773 1383.42 115.076 1258.36 274.806Z" fill="#CC3329"/>
<path d="M522.764 966.346C474.213 992.922 470.826 1072.65 470.826 1080H639.059C649.221 1032.5 906.086 1050.6 1004.88 1033.63C1103.68 1016.67 1173.11 910.932 1163.52 807.456C1153.92 703.979 1112.71 460.838 1258.36 274.806C1383.42 115.076 1600.87 22.8773 1663.08 0H1479.66C1261.18 61.6335 1128.52 253.319 1089 334.178C1049.48 415.037 1038.75 727.728 1030.85 821.026C1022.95 914.325 885.198 942.597 798.259 957.298C711.32 972 571.314 939.77 522.764 966.346Z" fill="#BB2B27"/>
<path d="M1324.97 0C1226.75 34.1152 1019.11 139.099 974.396 286.115C918.506 469.885 962.54 718.681 871.085 821.026C779.63 923.372 645.269 877.571 601.235 877.005C557.201 876.44 440.906 858.911 335.337 1080H470.826C470.826 1072.65 474.213 992.922 522.764 966.346C571.314 939.77 711.32 972 798.259 957.298C885.198 942.597 1022.95 914.325 1030.85 821.026C1038.75 727.728 1049.48 415.037 1089 334.178C1128.52 253.319 1261.18 61.6335 1479.66 0H1324.97Z" fill="#447789"/>
<path d="M287.915 879.267C231.461 937.169 191.003 1037.21 177.83 1080H335.337C440.906 858.911 557.201 876.44 601.235 877.005C645.269 877.571 779.63 923.372 871.085 821.026C962.54 718.681 918.506 469.885 974.396 286.115C1019.11 139.099 1226.75 34.1152 1324.97 0H1051.17C996.413 35.8115 875.037 125.981 827.615 200.168C768.339 292.901 868.827 425.78 851.891 536.607C834.954 647.435 747.451 788.23 561.717 789.927C375.984 791.623 358.483 806.89 287.915 879.267Z" fill="#467E97"/>
<path d="M841.729 0C798.636 22.0524 706.804 90.9236 684.222 189.99C655.995 313.822 741.805 516.817 665.592 620.859C589.38 724.901 490.585 712.461 431.308 709.068C372.032 705.675 268.156 671.749 155.248 834.597C64.9221 964.875 34.4369 1052.48 30.4852 1080H177.83C191.003 1037.21 231.461 937.169 287.915 879.267C358.483 806.89 375.984 791.623 561.717 789.927C747.451 788.23 834.954 647.435 851.891 536.607C868.827 425.78 768.339 292.901 827.615 200.168C875.037 125.981 996.413 35.8115 1051.17 0H841.729Z" fill="#489099"/>
<path d="M0 806.89V1080H30.4852C34.4369 1052.48 64.9221 964.875 155.248 834.597C268.156 671.749 372.032 705.675 431.308 709.068C490.585 712.461 589.38 724.901 665.592 620.859C741.805 516.817 655.995 313.822 684.222 189.99C706.804 90.9236 798.636 22.0524 841.729 0H633.978C606.88 14.1361 578.653 57.1099 556.636 107.435C534.619 157.759 570.185 268.021 578.653 381.11C587.121 494.199 528.974 564.314 458.406 605.026C387.839 645.738 241.623 597.675 162.587 620.859C99.359 639.405 27.8506 752.607 0 806.89Z" fill="#4C999F"/>
<path d="M97.6654 520.209C34.8886 526.09 6.39812 567.141 0 586.932V806.89C27.8506 752.607 99.359 639.405 162.587 620.859C241.623 597.675 387.839 645.738 458.406 605.026C528.974 564.314 587.121 494.199 578.653 381.11C570.185 268.021 534.619 157.759 556.636 107.435C578.653 57.1099 606.88 14.1361 633.978 0H453.89C445.61 25.2565 432.438 89.3403 445.986 143.623C462.923 211.476 478.73 405.424 405.904 477.236C337.69 544.5 208.551 510.559 115.92 518.073C109.639 518.954 103.537 519.659 97.6654 520.209Z" fill="#55A3A8"/>
<path d="M352.837 93.2984C362.999 163.414 370.338 252.754 333.079 365.278C298.607 469.382 193.585 507.179 115.92 518.073C208.551 510.559 337.69 544.5 405.904 477.236C478.73 405.424 462.923 211.476 445.986 143.623C432.438 89.3403 445.61 25.2565 453.89 0H348.321C346.439 7.72775 344.708 37.2063 352.837 93.2984Z" fill="#5EA7AF"/>
<path d="M268.721 0C281.705 71.2461 296.948 228.666 254.043 288.377C200.412 363.016 152.99 410.513 0 392.984V586.932C6.39812 567.141 34.8886 526.09 97.6654 520.209C103.563 519.279 109.658 518.581 115.92 518.073C193.585 507.179 298.607 469.382 333.079 365.278C370.338 252.754 362.999 163.414 352.837 93.2984C344.708 37.2063 346.439 7.72775 348.321 0H268.721Z" fill="#54A1AA"/>
<path d="M157.507 170.199C142.151 257.051 46.1041 293.466 0 300.817V392.984C152.99 410.513 200.412 363.016 254.043 288.377C296.948 228.666 281.705 71.2461 268.721 0H180.088C155.813 7.35079 176.701 61.6335 157.507 170.199Z" fill="#55AAAD"/>
<path d="M0 0V300.817C46.1041 293.466 142.151 257.051 157.507 170.199C176.701 61.6335 155.813 7.35079 180.088 0H0Z" fill="#5EAEB2"/>
</svg>
