<svg width="541" height="1081" viewBox="0 0 541 1081" fill="none" xmlns="http://www.w3.org/2000/svg">
<path d="M73.8297 262.665C-35.9529 211.385 9.19577 121.255 9.19577 0.0463867H541V1080.05C518.346 1062.43 465.245 1022.96 434.069 1005.97C395.098 984.737 266.306 854.723 236.84 780.651C207.375 706.579 274.385 564.133 266.306 505.6C258.227 447.068 183.612 313.946 73.8297 262.665Z" fill="url(#paint0_linear_391_239)"/>
<path d="M270.948 46.9912C163.281 69.6217 120.121 112.323 112 130.845C144.486 130.845 245.423 142.969 303.433 117.712C351.59 96.7444 434.927 119.64 537.514 134.958V3.05176e-05H360.848C336.377 22.0182 306.555 39.5068 270.948 46.9912Z" fill="url(#paint1_linear_391_239)"/>
<path d="M419.818 71.0464C428.462 125.32 462.463 239.531 529.311 262.185C532.116 263.135 534.849 264.121 537.514 265.138V345.118C527.203 342.66 517.461 338.817 509.142 332.977C473.124 307.694 405.411 346.124 323.29 358.259C257.594 367.968 227.723 285.445 221 242.97C248.085 266.432 322.09 252.746 355.706 242.97C349.367 183.1 395.806 103.408 419.818 71.0464Z" fill="url(#paint2_linear_391_239)"/>
<path d="M429.706 649.123C423.367 708.993 469.806 788.684 493.818 821.046C498.896 789.161 512.726 736.588 536.828 694.046V566.446C500.056 561.568 451.853 541.897 397.29 533.833C331.594 524.125 301.723 606.648 295 649.123C322.085 625.661 396.09 639.347 429.706 649.123Z" fill="url(#paint3_linear_391_239)"/>
<g style="mix-blend-mode:luminosity" filter="url(#filter0_d_391_239)">
<path d="M96.5 27C98.225 34.59 99.9008 36.315 108 38.5C100.936 40.8 98.34 40.8 96.5 50C94.315 41.49 91.7725 39.88 85 38.5C92.015 36.315 95.005 34.245 96.5 27Z" fill="#FAF7FF"/>
</g>
<g style="mix-blend-mode:luminosity" filter="url(#filter1_d_391_239)">
<path d="M500.5 135C502.225 142.59 503.901 144.315 512 146.5C504.936 148.8 502.34 148.8 500.5 158C498.315 149.49 495.772 147.88 489 146.5C496.015 144.315 499.005 142.245 500.5 135Z" fill="#FAF7FF"/>
</g>
<g style="mix-blend-mode:luminosity" filter="url(#filter2_d_391_239)">
<path d="M246.5 347C248.225 354.59 249.901 356.315 258 358.5C250.936 360.8 248.34 360.8 246.5 370C244.315 361.49 241.772 359.88 235 358.5C242.015 356.315 245.005 354.245 246.5 347Z" fill="#FAF7FF"/>
</g>
<g style="mix-blend-mode:luminosity" filter="url(#filter3_d_391_239)">
<path d="M450.5 528C452.225 535.59 453.901 537.315 462 539.5C454.936 541.8 452.34 541.8 450.5 551C448.315 542.49 445.772 540.88 439 539.5C446.015 537.315 449.005 535.245 450.5 528Z" fill="#FAF7FF"/>
</g>
<g style="mix-blend-mode:luminosity" filter="url(#filter4_d_391_239)">
<path d="M327.5 745C329.225 752.59 330.901 754.315 339 756.5C331.936 758.8 329.34 758.8 327.5 768C325.315 759.49 322.772 757.88 316 756.5C323.015 754.315 326.005 752.245 327.5 745Z" fill="#FAF7FF"/>
</g>
<g style="mix-blend-mode:luminosity" filter="url(#filter5_d_391_239)">
<path d="M448 768C448.45 769.98 448.887 770.43 451 771C449.157 771.6 448.48 771.6 448 774C447.43 771.78 446.767 771.36 445 771C446.83 770.43 447.61 769.89 448 768Z" fill="#FAF7FF"/>
</g>
<g style="mix-blend-mode:luminosity" filter="url(#filter6_d_391_239)">
<path d="M416 899C416.45 900.98 416.887 901.43 419 902C417.157 902.6 416.48 902.6 416 905C415.43 902.78 414.767 902.36 413 902C414.83 901.43 415.61 900.89 416 899Z" fill="#FAF7FF"/>
</g>
<g style="mix-blend-mode:luminosity" filter="url(#filter7_d_391_239)">
<path d="M503 865C503.45 866.98 503.887 867.43 506 868C504.157 868.6 503.48 868.6 503 871C502.43 868.78 501.767 868.36 500 868C501.83 867.43 502.61 866.89 503 865Z" fill="#FAF7FF"/>
</g>
<g style="mix-blend-mode:luminosity" filter="url(#filter8_d_391_239)">
<path d="M361 647C361.45 648.98 361.887 649.43 364 650C362.157 650.6 361.48 650.6 361 653C360.43 650.78 359.767 650.36 358 650C359.83 649.43 360.61 648.89 361 647Z" fill="#FAF7FF"/>
</g>
<g style="mix-blend-mode:luminosity" filter="url(#filter9_d_391_239)">
<path d="M509 511C509.45 512.98 509.887 513.43 512 514C510.157 514.6 509.48 514.6 509 517C508.43 514.78 507.767 514.36 506 514C507.83 513.43 508.61 512.89 509 511Z" fill="#FAF7FF"/>
</g>
<g style="mix-blend-mode:luminosity" filter="url(#filter10_d_391_239)">
<path d="M342 416C342.45 417.98 342.887 418.43 345 419C343.157 419.6 342.48 419.6 342 422C341.43 419.78 340.767 419.36 339 419C340.83 418.43 341.61 417.89 342 416Z" fill="#FAF7FF"/>
</g>
<g style="mix-blend-mode:luminosity" filter="url(#filter11_d_391_239)">
<path d="M471 289C471.45 290.98 471.887 291.43 474 292C472.157 292.6 471.48 292.6 471 295C470.43 292.78 469.767 292.36 468 292C469.83 291.43 470.61 290.89 471 289Z" fill="#FAF7FF"/>
</g>
<g style="mix-blend-mode:luminosity" filter="url(#filter12_d_391_239)">
<path d="M313 224C313.45 225.98 313.887 226.43 316 227C314.157 227.6 313.48 227.6 313 230C312.43 227.78 311.767 227.36 310 227C311.83 226.43 312.61 225.89 313 224Z" fill="#FAF7FF"/>
</g>
<g style="mix-blend-mode:luminosity" filter="url(#filter13_d_391_239)">
<path d="M132 196C132.45 197.98 132.887 198.43 135 199C133.157 199.6 132.48 199.6 132 202C131.43 199.78 130.767 199.36 129 199C130.83 198.43 131.61 197.89 132 196Z" fill="#FAF7FF"/>
</g>
<g style="mix-blend-mode:luminosity" filter="url(#filter14_d_391_239)">
<path d="M403 107C403.45 108.98 403.887 109.43 406 110C404.157 110.6 403.48 110.6 403 113C402.43 110.78 401.767 110.36 400 110C401.83 109.43 402.61 108.89 403 107Z" fill="#FAF7FF"/>
</g>
<g style="mix-blend-mode:luminosity" filter="url(#filter15_d_391_239)">
<path d="M274 545C274.45 546.98 274.887 547.43 277 548C275.157 548.6 274.48 548.6 274 551C273.43 548.78 272.767 548.36 271 548C272.83 547.43 273.61 546.89 274 545Z" fill="#FAF7FF"/>
</g>
<g style="mix-blend-mode:luminosity" filter="url(#filter16_d_391_239)">
<path d="M503 650C503.45 651.98 503.887 652.43 506 653C504.157 653.6 503.48 653.6 503 656C502.43 653.78 501.767 653.36 500 653C501.83 652.43 502.61 651.89 503 650Z" fill="#FAF7FF"/>
</g>
<g style="mix-blend-mode:luminosity" filter="url(#filter17_d_391_239)">
<path d="M509 1010C509.45 1011.98 509.887 1012.43 512 1013C510.157 1013.6 509.48 1013.6 509 1016C508.43 1013.78 507.767 1013.36 506 1013C507.83 1012.43 508.61 1011.89 509 1010Z" fill="#FAF7FF"/>
</g>
<g style="mix-blend-mode:luminosity" filter="url(#filter18_d_391_239)">
<path d="M292 815C292.45 816.98 292.887 817.43 295 818C293.157 818.6 292.48 818.6 292 821C291.43 818.78 290.767 818.36 289 818C290.83 817.43 291.61 816.89 292 815Z" fill="#FAF7FF"/>
</g>
<g style="mix-blend-mode:luminosity" filter="url(#filter19_d_391_239)">
<path d="M540.5 938C542.225 945.59 543.901 947.315 552 949.5C544.936 951.8 542.34 951.8 540.5 961C538.315 952.49 535.772 950.88 529 949.5C536.015 947.315 539.005 945.245 540.5 938Z" fill="#FAF7FF"/>
</g>
<path d="M404.301 499.911C404.987 500.878 388.56 504.532 358.492 534.215C354.04 537.372 347.873 536.323 344.716 531.871C341.559 527.42 342.609 521.252 347.06 518.095C377.204 496.718 403.615 498.944 404.301 499.911Z" fill="url(#paint4_linear_391_239)"/>
<path d="M397.773 500.785C398.208 501.397 382.874 507.959 358.694 532.618C354.82 535.365 349.428 534.417 346.65 530.499C343.872 526.582 344.76 521.18 348.634 518.433C375.973 500.619 397.339 500.172 397.773 500.785Z" fill="url(#paint5_linear_391_239)"/>
<path d="M388.573 504.039C389.016 504.663 373.853 512.661 357.441 530.6C354.303 532.825 350.096 532.283 348.044 529.39C345.992 526.497 346.872 522.347 350.01 520.122C371.248 505.06 388.13 503.414 388.573 504.039Z" fill="url(#paint6_linear_391_239)"/>
<path d="M374.698 510.608C375.084 511.152 367.364 515.809 355.573 529.501C353.637 530.875 350.915 530.364 349.495 528.361C348.074 526.358 348.492 523.621 350.429 522.247C364.332 512.388 374.313 510.064 374.698 510.608Z" fill="#99EFFE"/>
<defs>
<filter id="filter0_d_391_239" x="79.7" y="21.7" width="33.6" height="33.6" filterUnits="userSpaceOnUse" color-interpolation-filters="sRGB">
<feFlood flood-opacity="0" result="BackgroundImageFix"/>
<feColorMatrix in="SourceAlpha" type="matrix" values="0 0 0 0 0 0 0 0 0 0 0 0 0 0 0 0 0 0 127 0" result="hardAlpha"/>
<feOffset/>
<feGaussianBlur stdDeviation="2.65"/>
<feComposite in2="hardAlpha" operator="out"/>
<feColorMatrix type="matrix" values="0 0 0 0 1 0 0 0 0 1 0 0 0 0 1 0 0 0 1 0"/>
<feBlend mode="normal" in2="BackgroundImageFix" result="effect1_dropShadow_391_239"/>
<feBlend mode="normal" in="SourceGraphic" in2="effect1_dropShadow_391_239" result="shape"/>
</filter>
<filter id="filter1_d_391_239" x="483.7" y="129.7" width="33.6" height="33.6" filterUnits="userSpaceOnUse" color-interpolation-filters="sRGB">
<feFlood flood-opacity="0" result="BackgroundImageFix"/>
<feColorMatrix in="SourceAlpha" type="matrix" values="0 0 0 0 0 0 0 0 0 0 0 0 0 0 0 0 0 0 127 0" result="hardAlpha"/>
<feOffset/>
<feGaussianBlur stdDeviation="2.65"/>
<feComposite in2="hardAlpha" operator="out"/>
<feColorMatrix type="matrix" values="0 0 0 0 1 0 0 0 0 1 0 0 0 0 1 0 0 0 1 0"/>
<feBlend mode="normal" in2="BackgroundImageFix" result="effect1_dropShadow_391_239"/>
<feBlend mode="normal" in="SourceGraphic" in2="effect1_dropShadow_391_239" result="shape"/>
</filter>
<filter id="filter2_d_391_239" x="229.7" y="341.7" width="33.6" height="33.6" filterUnits="userSpaceOnUse" color-interpolation-filters="sRGB">
<feFlood flood-opacity="0" result="BackgroundImageFix"/>
<feColorMatrix in="SourceAlpha" type="matrix" values="0 0 0 0 0 0 0 0 0 0 0 0 0 0 0 0 0 0 127 0" result="hardAlpha"/>
<feOffset/>
<feGaussianBlur stdDeviation="2.65"/>
<feComposite in2="hardAlpha" operator="out"/>
<feColorMatrix type="matrix" values="0 0 0 0 1 0 0 0 0 1 0 0 0 0 1 0 0 0 1 0"/>
<feBlend mode="normal" in2="BackgroundImageFix" result="effect1_dropShadow_391_239"/>
<feBlend mode="normal" in="SourceGraphic" in2="effect1_dropShadow_391_239" result="shape"/>
</filter>
<filter id="filter3_d_391_239" x="433.7" y="522.7" width="33.6" height="33.6" filterUnits="userSpaceOnUse" color-interpolation-filters="sRGB">
<feFlood flood-opacity="0" result="BackgroundImageFix"/>
<feColorMatrix in="SourceAlpha" type="matrix" values="0 0 0 0 0 0 0 0 0 0 0 0 0 0 0 0 0 0 127 0" result="hardAlpha"/>
<feOffset/>
<feGaussianBlur stdDeviation="2.65"/>
<feComposite in2="hardAlpha" operator="out"/>
<feColorMatrix type="matrix" values="0 0 0 0 1 0 0 0 0 1 0 0 0 0 1 0 0 0 1 0"/>
<feBlend mode="normal" in2="BackgroundImageFix" result="effect1_dropShadow_391_239"/>
<feBlend mode="normal" in="SourceGraphic" in2="effect1_dropShadow_391_239" result="shape"/>
</filter>
<filter id="filter4_d_391_239" x="310.7" y="739.7" width="33.6" height="33.6" filterUnits="userSpaceOnUse" color-interpolation-filters="sRGB">
<feFlood flood-opacity="0" result="BackgroundImageFix"/>
<feColorMatrix in="SourceAlpha" type="matrix" values="0 0 0 0 0 0 0 0 0 0 0 0 0 0 0 0 0 0 127 0" result="hardAlpha"/>
<feOffset/>
<feGaussianBlur stdDeviation="2.65"/>
<feComposite in2="hardAlpha" operator="out"/>
<feColorMatrix type="matrix" values="0 0 0 0 1 0 0 0 0 1 0 0 0 0 1 0 0 0 1 0"/>
<feBlend mode="normal" in2="BackgroundImageFix" result="effect1_dropShadow_391_239"/>
<feBlend mode="normal" in="SourceGraphic" in2="effect1_dropShadow_391_239" result="shape"/>
</filter>
<filter id="filter5_d_391_239" x="439.7" y="762.7" width="16.6" height="16.6" filterUnits="userSpaceOnUse" color-interpolation-filters="sRGB">
<feFlood flood-opacity="0" result="BackgroundImageFix"/>
<feColorMatrix in="SourceAlpha" type="matrix" values="0 0 0 0 0 0 0 0 0 0 0 0 0 0 0 0 0 0 127 0" result="hardAlpha"/>
<feOffset/>
<feGaussianBlur stdDeviation="2.65"/>
<feComposite in2="hardAlpha" operator="out"/>
<feColorMatrix type="matrix" values="0 0 0 0 1 0 0 0 0 1 0 0 0 0 1 0 0 0 1 0"/>
<feBlend mode="normal" in2="BackgroundImageFix" result="effect1_dropShadow_391_239"/>
<feBlend mode="normal" in="SourceGraphic" in2="effect1_dropShadow_391_239" result="shape"/>
</filter>
<filter id="filter6_d_391_239" x="407.7" y="893.7" width="16.6" height="16.6" filterUnits="userSpaceOnUse" color-interpolation-filters="sRGB">
<feFlood flood-opacity="0" result="BackgroundImageFix"/>
<feColorMatrix in="SourceAlpha" type="matrix" values="0 0 0 0 0 0 0 0 0 0 0 0 0 0 0 0 0 0 127 0" result="hardAlpha"/>
<feOffset/>
<feGaussianBlur stdDeviation="2.65"/>
<feComposite in2="hardAlpha" operator="out"/>
<feColorMatrix type="matrix" values="0 0 0 0 1 0 0 0 0 1 0 0 0 0 1 0 0 0 1 0"/>
<feBlend mode="normal" in2="BackgroundImageFix" result="effect1_dropShadow_391_239"/>
<feBlend mode="normal" in="SourceGraphic" in2="effect1_dropShadow_391_239" result="shape"/>
</filter>
<filter id="filter7_d_391_239" x="494.7" y="859.7" width="16.6" height="16.6" filterUnits="userSpaceOnUse" color-interpolation-filters="sRGB">
<feFlood flood-opacity="0" result="BackgroundImageFix"/>
<feColorMatrix in="SourceAlpha" type="matrix" values="0 0 0 0 0 0 0 0 0 0 0 0 0 0 0 0 0 0 127 0" result="hardAlpha"/>
<feOffset/>
<feGaussianBlur stdDeviation="2.65"/>
<feComposite in2="hardAlpha" operator="out"/>
<feColorMatrix type="matrix" values="0 0 0 0 1 0 0 0 0 1 0 0 0 0 1 0 0 0 1 0"/>
<feBlend mode="normal" in2="BackgroundImageFix" result="effect1_dropShadow_391_239"/>
<feBlend mode="normal" in="SourceGraphic" in2="effect1_dropShadow_391_239" result="shape"/>
</filter>
<filter id="filter8_d_391_239" x="352.7" y="641.7" width="16.6" height="16.6" filterUnits="userSpaceOnUse" color-interpolation-filters="sRGB">
<feFlood flood-opacity="0" result="BackgroundImageFix"/>
<feColorMatrix in="SourceAlpha" type="matrix" values="0 0 0 0 0 0 0 0 0 0 0 0 0 0 0 0 0 0 127 0" result="hardAlpha"/>
<feOffset/>
<feGaussianBlur stdDeviation="2.65"/>
<feComposite in2="hardAlpha" operator="out"/>
<feColorMatrix type="matrix" values="0 0 0 0 1 0 0 0 0 1 0 0 0 0 1 0 0 0 1 0"/>
<feBlend mode="normal" in2="BackgroundImageFix" result="effect1_dropShadow_391_239"/>
<feBlend mode="normal" in="SourceGraphic" in2="effect1_dropShadow_391_239" result="shape"/>
</filter>
<filter id="filter9_d_391_239" x="500.7" y="505.7" width="16.6" height="16.6" filterUnits="userSpaceOnUse" color-interpolation-filters="sRGB">
<feFlood flood-opacity="0" result="BackgroundImageFix"/>
<feColorMatrix in="SourceAlpha" type="matrix" values="0 0 0 0 0 0 0 0 0 0 0 0 0 0 0 0 0 0 127 0" result="hardAlpha"/>
<feOffset/>
<feGaussianBlur stdDeviation="2.65"/>
<feComposite in2="hardAlpha" operator="out"/>
<feColorMatrix type="matrix" values="0 0 0 0 1 0 0 0 0 1 0 0 0 0 1 0 0 0 1 0"/>
<feBlend mode="normal" in2="BackgroundImageFix" result="effect1_dropShadow_391_239"/>
<feBlend mode="normal" in="SourceGraphic" in2="effect1_dropShadow_391_239" result="shape"/>
</filter>
<filter id="filter10_d_391_239" x="333.7" y="410.7" width="16.6" height="16.6" filterUnits="userSpaceOnUse" color-interpolation-filters="sRGB">
<feFlood flood-opacity="0" result="BackgroundImageFix"/>
<feColorMatrix in="SourceAlpha" type="matrix" values="0 0 0 0 0 0 0 0 0 0 0 0 0 0 0 0 0 0 127 0" result="hardAlpha"/>
<feOffset/>
<feGaussianBlur stdDeviation="2.65"/>
<feComposite in2="hardAlpha" operator="out"/>
<feColorMatrix type="matrix" values="0 0 0 0 1 0 0 0 0 1 0 0 0 0 1 0 0 0 1 0"/>
<feBlend mode="normal" in2="BackgroundImageFix" result="effect1_dropShadow_391_239"/>
<feBlend mode="normal" in="SourceGraphic" in2="effect1_dropShadow_391_239" result="shape"/>
</filter>
<filter id="filter11_d_391_239" x="462.7" y="283.7" width="16.6" height="16.6" filterUnits="userSpaceOnUse" color-interpolation-filters="sRGB">
<feFlood flood-opacity="0" result="BackgroundImageFix"/>
<feColorMatrix in="SourceAlpha" type="matrix" values="0 0 0 0 0 0 0 0 0 0 0 0 0 0 0 0 0 0 127 0" result="hardAlpha"/>
<feOffset/>
<feGaussianBlur stdDeviation="2.65"/>
<feComposite in2="hardAlpha" operator="out"/>
<feColorMatrix type="matrix" values="0 0 0 0 1 0 0 0 0 1 0 0 0 0 1 0 0 0 1 0"/>
<feBlend mode="normal" in2="BackgroundImageFix" result="effect1_dropShadow_391_239"/>
<feBlend mode="normal" in="SourceGraphic" in2="effect1_dropShadow_391_239" result="shape"/>
</filter>
<filter id="filter12_d_391_239" x="304.7" y="218.7" width="16.6" height="16.6" filterUnits="userSpaceOnUse" color-interpolation-filters="sRGB">
<feFlood flood-opacity="0" result="BackgroundImageFix"/>
<feColorMatrix in="SourceAlpha" type="matrix" values="0 0 0 0 0 0 0 0 0 0 0 0 0 0 0 0 0 0 127 0" result="hardAlpha"/>
<feOffset/>
<feGaussianBlur stdDeviation="2.65"/>
<feComposite in2="hardAlpha" operator="out"/>
<feColorMatrix type="matrix" values="0 0 0 0 1 0 0 0 0 1 0 0 0 0 1 0 0 0 1 0"/>
<feBlend mode="normal" in2="BackgroundImageFix" result="effect1_dropShadow_391_239"/>
<feBlend mode="normal" in="SourceGraphic" in2="effect1_dropShadow_391_239" result="shape"/>
</filter>
<filter id="filter13_d_391_239" x="123.7" y="190.7" width="16.6" height="16.6" filterUnits="userSpaceOnUse" color-interpolation-filters="sRGB">
<feFlood flood-opacity="0" result="BackgroundImageFix"/>
<feColorMatrix in="SourceAlpha" type="matrix" values="0 0 0 0 0 0 0 0 0 0 0 0 0 0 0 0 0 0 127 0" result="hardAlpha"/>
<feOffset/>
<feGaussianBlur stdDeviation="2.65"/>
<feComposite in2="hardAlpha" operator="out"/>
<feColorMatrix type="matrix" values="0 0 0 0 1 0 0 0 0 1 0 0 0 0 1 0 0 0 1 0"/>
<feBlend mode="normal" in2="BackgroundImageFix" result="effect1_dropShadow_391_239"/>
<feBlend mode="normal" in="SourceGraphic" in2="effect1_dropShadow_391_239" result="shape"/>
</filter>
<filter id="filter14_d_391_239" x="394.7" y="101.7" width="16.6" height="16.6" filterUnits="userSpaceOnUse" color-interpolation-filters="sRGB">
<feFlood flood-opacity="0" result="BackgroundImageFix"/>
<feColorMatrix in="SourceAlpha" type="matrix" values="0 0 0 0 0 0 0 0 0 0 0 0 0 0 0 0 0 0 127 0" result="hardAlpha"/>
<feOffset/>
<feGaussianBlur stdDeviation="2.65"/>
<feComposite in2="hardAlpha" operator="out"/>
<feColorMatrix type="matrix" values="0 0 0 0 1 0 0 0 0 1 0 0 0 0 1 0 0 0 1 0"/>
<feBlend mode="normal" in2="BackgroundImageFix" result="effect1_dropShadow_391_239"/>
<feBlend mode="normal" in="SourceGraphic" in2="effect1_dropShadow_391_239" result="shape"/>
</filter>
<filter id="filter15_d_391_239" x="265.7" y="539.7" width="16.6" height="16.6" filterUnits="userSpaceOnUse" color-interpolation-filters="sRGB">
<feFlood flood-opacity="0" result="BackgroundImageFix"/>
<feColorMatrix in="SourceAlpha" type="matrix" values="0 0 0 0 0 0 0 0 0 0 0 0 0 0 0 0 0 0 127 0" result="hardAlpha"/>
<feOffset/>
<feGaussianBlur stdDeviation="2.65"/>
<feComposite in2="hardAlpha" operator="out"/>
<feColorMatrix type="matrix" values="0 0 0 0 1 0 0 0 0 1 0 0 0 0 1 0 0 0 1 0"/>
<feBlend mode="normal" in2="BackgroundImageFix" result="effect1_dropShadow_391_239"/>
<feBlend mode="normal" in="SourceGraphic" in2="effect1_dropShadow_391_239" result="shape"/>
</filter>
<filter id="filter16_d_391_239" x="494.7" y="644.7" width="16.6" height="16.6" filterUnits="userSpaceOnUse" color-interpolation-filters="sRGB">
<feFlood flood-opacity="0" result="BackgroundImageFix"/>
<feColorMatrix in="SourceAlpha" type="matrix" values="0 0 0 0 0 0 0 0 0 0 0 0 0 0 0 0 0 0 127 0" result="hardAlpha"/>
<feOffset/>
<feGaussianBlur stdDeviation="2.65"/>
<feComposite in2="hardAlpha" operator="out"/>
<feColorMatrix type="matrix" values="0 0 0 0 1 0 0 0 0 1 0 0 0 0 1 0 0 0 1 0"/>
<feBlend mode="normal" in2="BackgroundImageFix" result="effect1_dropShadow_391_239"/>
<feBlend mode="normal" in="SourceGraphic" in2="effect1_dropShadow_391_239" result="shape"/>
</filter>
<filter id="filter17_d_391_239" x="500.7" y="1004.7" width="16.6" height="16.6" filterUnits="userSpaceOnUse" color-interpolation-filters="sRGB">
<feFlood flood-opacity="0" result="BackgroundImageFix"/>
<feColorMatrix in="SourceAlpha" type="matrix" values="0 0 0 0 0 0 0 0 0 0 0 0 0 0 0 0 0 0 127 0" result="hardAlpha"/>
<feOffset/>
<feGaussianBlur stdDeviation="2.65"/>
<feComposite in2="hardAlpha" operator="out"/>
<feColorMatrix type="matrix" values="0 0 0 0 1 0 0 0 0 1 0 0 0 0 1 0 0 0 1 0"/>
<feBlend mode="normal" in2="BackgroundImageFix" result="effect1_dropShadow_391_239"/>
<feBlend mode="normal" in="SourceGraphic" in2="effect1_dropShadow_391_239" result="shape"/>
</filter>
<filter id="filter18_d_391_239" x="283.7" y="809.7" width="16.6" height="16.6" filterUnits="userSpaceOnUse" color-interpolation-filters="sRGB">
<feFlood flood-opacity="0" result="BackgroundImageFix"/>
<feColorMatrix in="SourceAlpha" type="matrix" values="0 0 0 0 0 0 0 0 0 0 0 0 0 0 0 0 0 0 127 0" result="hardAlpha"/>
<feOffset/>
<feGaussianBlur stdDeviation="2.65"/>
<feComposite in2="hardAlpha" operator="out"/>
<feColorMatrix type="matrix" values="0 0 0 0 1 0 0 0 0 1 0 0 0 0 1 0 0 0 1 0"/>
<feBlend mode="normal" in2="BackgroundImageFix" result="effect1_dropShadow_391_239"/>
<feBlend mode="normal" in="SourceGraphic" in2="effect1_dropShadow_391_239" result="shape"/>
</filter>
<filter id="filter19_d_391_239" x="523.7" y="932.7" width="33.6" height="33.6" filterUnits="userSpaceOnUse" color-interpolation-filters="sRGB">
<feFlood flood-opacity="0" result="BackgroundImageFix"/>
<feColorMatrix in="SourceAlpha" type="matrix" values="0 0 0 0 0 0 0 0 0 0 0 0 0 0 0 0 0 0 127 0" result="hardAlpha"/>
<feOffset/>
<feGaussianBlur stdDeviation="2.65"/>
<feComposite in2="hardAlpha" operator="out"/>
<feColorMatrix type="matrix" values="0 0 0 0 1 0 0 0 0 1 0 0 0 0 1 0 0 0 1 0"/>
<feBlend mode="normal" in2="BackgroundImageFix" result="effect1_dropShadow_391_239"/>
<feBlend mode="normal" in="SourceGraphic" in2="effect1_dropShadow_391_239" result="shape"/>
</filter>
<linearGradient id="paint0_linear_391_239" x1="0" y1="540.046" x2="541" y2="540.046" gradientUnits="userSpaceOnUse">
<stop offset="0.124999" stop-color="#2E1470"/>
<stop offset="0.846153" stop-color="#24064F"/>
</linearGradient>
<linearGradient id="paint1_linear_391_239" x1="767.514" y1="-0.0993408" x2="112" y2="-0.0993408" gradientUnits="userSpaceOnUse">
<stop offset="0.396022" stop-color="#23054F" stop-opacity="0.11"/>
<stop offset="1" stop-color="#2B0D53"/>
</linearGradient>
<linearGradient id="paint2_linear_391_239" x1="628" y1="215.046" x2="221" y2="215.046" gradientUnits="userSpaceOnUse">
<stop offset="0.396022" stop-color="#23054F" stop-opacity="0.11"/>
<stop offset="1" stop-color="#2B0D53"/>
</linearGradient>
<linearGradient id="paint3_linear_391_239" x1="702" y1="677.046" x2="295" y2="677.046" gradientUnits="userSpaceOnUse">
<stop offset="0.396022" stop-color="#23054F" stop-opacity="0.11"/>
<stop offset="1" stop-color="#2B0D53"/>
</linearGradient>
<linearGradient id="paint4_linear_391_239" x1="344.716" y1="531.871" x2="392.511" y2="497.976" gradientUnits="userSpaceOnUse">
<stop offset="0.264422" stop-color="#5C1B90"/>
<stop offset="1" stop-color="#511A7D" stop-opacity="0"/>
</linearGradient>
<linearGradient id="paint5_linear_391_239" x1="346.65" y1="530.499" x2="394.687" y2="496.432" gradientUnits="userSpaceOnUse">
<stop offset="0.668269" stop-color="#5C42A7"/>
<stop offset="1" stop-color="#241A41" stop-opacity="0"/>
</linearGradient>
<linearGradient id="paint6_linear_391_239" x1="348.044" y1="529.39" x2="386.973" y2="501.782" gradientUnits="userSpaceOnUse">
<stop offset="0.173076" stop-color="#4A98F5"/>
<stop offset="1" stop-color="#4A98F5" stop-opacity="0"/>
</linearGradient>
</defs>
</svg>
