<svg width="538" height="1081" viewBox="0 0 538 1081" fill="none" xmlns="http://www.w3.org/2000/svg">
<path d="M463.684 817.381C573.467 868.662 528.318 958.791 528.318 1080H-3.48602V0C19.1675 17.6116 72.2688 57.0821 103.445 74.072C142.416 95.3094 271.208 225.324 300.674 299.396C330.139 373.468 263.129 515.914 271.208 574.446C279.287 632.978 353.902 766.101 463.684 817.381Z" fill="url(#paint0_linear_391_240)"/>
<path d="M266.566 1033.06C374.233 1010.42 417.393 967.723 425.514 949.201C393.028 949.201 292.091 937.078 234.081 962.335C185.924 983.302 102.587 960.407 0 945.088V1080.05H176.666C201.137 1058.03 230.959 1040.54 266.566 1033.06Z" fill="url(#paint1_linear_391_240)"/>
<path d="M117.696 1009C109.052 954.726 75.0513 840.515 8.20247 817.862C5.39829 816.911 2.66458 815.926 0 814.908V734.929C10.3113 737.386 20.0529 741.23 28.3724 747.07C64.3901 772.353 132.103 733.923 214.224 721.787C279.92 712.078 309.791 794.602 316.514 837.077C289.429 813.614 215.424 827.301 181.808 837.077C188.147 896.946 141.708 976.638 117.696 1009Z" fill="url(#paint2_linear_391_240)"/>
<path d="M107.808 430.923C114.147 371.054 67.7081 291.362 43.6963 259C38.6178 290.886 24.7875 343.459 0.686218 386V513.6C37.4578 518.478 85.6606 538.15 140.224 546.213C205.92 555.922 235.791 473.398 242.514 430.923C215.429 454.386 141.424 440.699 107.808 430.923Z" fill="url(#paint3_linear_391_240)"/>
<g style="mix-blend-mode:luminosity" filter="url(#filter0_d_391_240)">
<path d="M110.5 581C112.225 588.59 113.901 590.315 122 592.5C114.936 594.8 112.34 594.8 110.5 604C108.315 595.49 105.772 593.88 99 592.5C106.015 590.315 109.005 588.245 110.5 581Z" fill="#FAF7FF"/>
</g>
<g style="mix-blend-mode:luminosity" filter="url(#filter1_d_391_240)">
<path d="M254.5 331C256.225 338.59 257.901 340.315 266 342.5C258.936 344.8 256.34 344.8 254.5 354C252.315 345.49 249.772 343.88 243 342.5C250.015 340.315 253.005 338.245 254.5 331Z" fill="#FAF7FF"/>
</g>
<g style="mix-blend-mode:luminosity" filter="url(#filter2_d_391_240)">
<path d="M8.5 183C10.225 190.59 11.9008 192.315 20 194.5C12.9358 196.8 10.34 196.8 8.5 206C6.315 197.49 3.77249 195.88 -3 194.5C4.015 192.315 7.005 190.245 8.5 183Z" fill="#FAF7FF"/>
</g>
<g style="mix-blend-mode:luminosity" filter="url(#filter3_d_391_240)">
<path d="M400.5 887C402.225 894.59 403.901 896.315 412 898.5C404.936 900.8 402.34 900.8 400.5 910C398.315 901.49 395.772 899.88 389 898.5C396.015 896.315 399.005 894.245 400.5 887Z" fill="#FAF7FF"/>
</g>
<g style="mix-blend-mode:luminosity" filter="url(#filter4_d_391_240)">
<path d="M33.5 1052C35.225 1059.59 36.9008 1061.32 45 1063.5C37.9358 1065.8 35.34 1065.8 33.5 1075C31.315 1066.49 28.7725 1064.88 22 1063.5C29.015 1061.32 32.005 1059.25 33.5 1052Z" fill="#FAF7FF"/>
</g>
<g style="mix-blend-mode:luminosity" filter="url(#filter5_d_391_240)">
<path d="M73 1021C73.45 1022.98 73.8872 1023.43 76 1024C74.1572 1024.6 73.48 1024.6 73 1027C72.43 1024.78 71.7667 1024.36 70 1024C71.83 1023.43 72.61 1022.89 73 1021Z" fill="#FAF7FF"/>
</g>
<g style="mix-blend-mode:luminosity" filter="url(#filter6_d_391_240)">
<path d="M153 928C153.45 929.98 153.887 930.43 156 931C154.157 931.6 153.48 931.6 153 934C152.43 931.78 151.767 931.36 150 931C151.83 930.43 152.61 929.89 153 928Z" fill="#FAF7FF"/>
</g>
<g style="mix-blend-mode:luminosity" filter="url(#filter7_d_391_240)">
<path d="M86 895C86.45 896.98 86.8872 897.43 89 898C87.1572 898.6 86.48 898.6 86 901C85.43 898.78 84.7667 898.36 83 898C84.83 897.43 85.61 896.89 86 895Z" fill="#FAF7FF"/>
</g>
<g style="mix-blend-mode:luminosity" filter="url(#filter8_d_391_240)">
<path d="M31 922C31.45 923.98 31.8872 924.43 34 925C32.1572 925.6 31.48 925.6 31 928C30.43 925.78 29.7667 925.36 28 925C29.83 924.43 30.61 923.89 31 922Z" fill="#FAF7FF"/>
</g>
<g style="mix-blend-mode:luminosity" filter="url(#filter9_d_391_240)">
<path d="M187 1021C187.45 1022.98 187.887 1023.43 190 1024C188.157 1024.6 187.48 1024.6 187 1027C186.43 1024.78 185.767 1024.36 184 1024C185.83 1023.43 186.61 1022.89 187 1021Z" fill="#FAF7FF"/>
</g>
<g style="mix-blend-mode:luminosity" filter="url(#filter10_d_391_240)">
<path d="M203 966C203.45 967.98 203.887 968.43 206 969C204.157 969.6 203.48 969.6 203 972C202.43 969.78 201.767 969.36 200 969C201.83 968.43 202.61 967.89 203 966Z" fill="#FAF7FF"/>
</g>
<g style="mix-blend-mode:luminosity" filter="url(#filter11_d_391_240)">
<path d="M278 898C278.45 899.98 278.887 900.43 281 901C279.157 901.6 278.48 901.6 278 904C277.43 901.78 276.767 901.36 275 901C276.83 900.43 277.61 899.89 278 898Z" fill="#FAF7FF"/>
</g>
<g style="mix-blend-mode:luminosity" filter="url(#filter12_d_391_240)">
<path d="M310 999C310.45 1000.98 310.887 1001.43 313 1002C311.157 1002.6 310.48 1002.6 310 1005C309.43 1002.78 308.767 1002.36 307 1002C308.83 1001.43 309.61 1000.89 310 999Z" fill="#FAF7FF"/>
</g>
<g style="mix-blend-mode:luminosity" filter="url(#filter13_d_391_240)">
<path d="M206 867C206.45 868.98 206.887 869.43 209 870C207.157 870.6 206.48 870.6 206 873C205.43 870.78 204.767 870.36 203 870C204.83 869.43 205.61 868.89 206 867Z" fill="#FAF7FF"/>
</g>
<g style="mix-blend-mode:luminosity" filter="url(#filter14_d_391_240)">
<path d="M70 733C70.45 734.98 70.8872 735.43 73 736C71.1572 736.6 70.48 736.6 70 739C69.43 736.78 68.7667 736.36 67 736C68.83 735.43 69.61 734.89 70 733Z" fill="#FAF7FF"/>
</g>
<g style="mix-blend-mode:luminosity" filter="url(#filter15_d_391_240)">
<path d="M264 709C264.45 710.98 264.887 711.43 267 712C265.157 712.6 264.48 712.6 264 715C263.43 712.78 262.767 712.36 261 712C262.83 711.43 263.61 710.89 264 709Z" fill="#FAF7FF"/>
</g>
<g style="mix-blend-mode:luminosity" filter="url(#filter16_d_391_240)">
<path d="M140 798C140.45 799.98 140.887 800.43 143 801C141.157 801.6 140.48 801.6 140 804C139.43 801.78 138.767 801.36 137 801C138.83 800.43 139.61 799.89 140 798Z" fill="#FAF7FF"/>
</g>
<g style="mix-blend-mode:luminosity" filter="url(#filter17_d_391_240)">
<path d="M264 798C264.45 799.98 264.887 800.43 267 801C265.157 801.6 264.48 801.6 264 804C263.43 801.78 262.767 801.36 261 801C262.83 800.43 263.61 799.89 264 798Z" fill="#FAF7FF"/>
</g>
<g style="mix-blend-mode:luminosity" filter="url(#filter18_d_391_240)">
<path d="M89 671C89.45 672.98 89.8872 673.43 92 674C90.1572 674.6 89.48 674.6 89 677C88.43 674.78 87.7667 674.36 86 674C87.83 673.43 88.61 672.89 89 671Z" fill="#FAF7FF"/>
</g>
<g style="mix-blend-mode:luminosity" filter="url(#filter19_d_391_240)">
<path d="M27 534C27.45 535.98 27.8872 536.43 30 537C28.1572 537.6 27.48 537.6 27 540C26.43 537.78 25.7667 537.36 24 537C25.83 536.43 26.61 535.89 27 534Z" fill="#FAF7FF"/>
</g>
<g style="mix-blend-mode:luminosity" filter="url(#filter20_d_391_240)">
<path d="M102 506C102.45 507.98 102.887 508.43 105 509C103.157 509.6 102.48 509.6 102 512C101.43 509.78 100.767 509.36 99 509C100.83 508.43 101.61 507.89 102 506Z" fill="#FAF7FF"/>
</g>
<g style="mix-blend-mode:luminosity" filter="url(#filter21_d_391_240)">
<path d="M207 604C207.45 605.98 207.887 606.43 210 607C208.157 607.6 207.48 607.6 207 610C206.43 607.78 205.767 607.36 204 607C205.83 606.43 206.61 605.89 207 604Z" fill="#FAF7FF"/>
</g>
<g style="mix-blend-mode:luminosity" filter="url(#filter22_d_391_240)">
<path d="M278 419C278.45 420.98 278.887 421.43 281 422C279.157 422.6 278.48 422.6 278 425C277.43 422.78 276.767 422.36 275 422C276.83 421.43 277.61 420.89 278 419Z" fill="#FAF7FF"/>
</g>
<g style="mix-blend-mode:luminosity" filter="url(#filter23_d_391_240)">
<path d="M83 322C83.45 323.98 83.8872 324.43 86 325C84.1572 325.6 83.48 325.6 83 328C82.43 325.78 81.7667 325.36 80 325C81.83 324.43 82.61 323.89 83 322Z" fill="#FAF7FF"/>
</g>
<g style="mix-blend-mode:luminosity" filter="url(#filter24_d_391_240)">
<path d="M40 416C40.45 417.98 40.8872 418.43 43 419C41.1572 419.6 40.48 419.6 40 422C39.43 419.78 38.7667 419.36 37 419C38.83 418.43 39.61 417.89 40 416Z" fill="#FAF7FF"/>
</g>
<g style="mix-blend-mode:luminosity" filter="url(#filter25_d_391_240)">
<path d="M119 385C119.45 386.98 119.887 387.43 122 388C120.157 388.6 119.48 388.6 119 391C118.43 388.78 117.767 388.36 116 388C117.83 387.43 118.61 386.89 119 385Z" fill="#FAF7FF"/>
</g>
<g style="mix-blend-mode:luminosity" filter="url(#filter26_d_391_240)">
<path d="M227 259C227.45 260.98 227.887 261.43 230 262C228.157 262.6 227.48 262.6 227 265C226.43 262.78 225.767 262.36 224 262C225.83 261.43 226.61 260.89 227 259Z" fill="#FAF7FF"/>
</g>
<g style="mix-blend-mode:luminosity" filter="url(#filter27_d_391_240)">
<path d="M122 219C122.45 220.98 122.887 221.43 125 222C123.157 222.6 122.48 222.6 122 225C121.43 222.78 120.767 222.36 119 222C120.83 221.43 121.61 220.89 122 219Z" fill="#FAF7FF"/>
</g>
<g style="mix-blend-mode:luminosity" filter="url(#filter28_d_391_240)">
<path d="M194 439C194.45 440.98 194.887 441.43 197 442C195.157 442.6 194.48 442.6 194 445C193.43 442.78 192.767 442.36 191 442C192.83 441.43 193.61 440.89 194 439Z" fill="#FAF7FF"/>
</g>
<g style="mix-blend-mode:luminosity" filter="url(#filter29_d_391_240)">
<path d="M27 213C27.45 214.98 27.8872 215.43 30 216C28.1572 216.6 27.48 216.6 27 219C26.43 216.78 25.7667 216.36 24 216C25.83 215.43 26.61 214.89 27 213Z" fill="#FAF7FF"/>
</g>
<g style="mix-blend-mode:luminosity" filter="url(#filter30_d_391_240)">
<path d="M102 135C102.45 136.98 102.887 137.43 105 138C103.157 138.6 102.48 138.6 102 141C101.43 138.78 100.767 138.36 99 138C100.83 137.43 101.61 136.89 102 135Z" fill="#FAF7FF"/>
</g>
<g style="mix-blend-mode:luminosity" filter="url(#filter31_d_391_240)">
<path d="M27 77C27.45 78.98 27.8872 79.43 30 80C28.1572 80.6 27.48 80.6 27 83C26.43 80.78 25.7667 80.36 24 80C25.83 79.43 26.61 78.89 27 77Z" fill="#FAF7FF"/>
</g>
<g style="mix-blend-mode:luminosity" filter="url(#filter32_d_391_240)">
<path d="M12 29C12.45 30.98 12.8872 31.43 15 32C13.1572 32.6 12.48 32.6 12 35C11.43 32.78 10.7667 32.36 9 32C10.83 31.43 11.61 30.89 12 29Z" fill="#FAF7FF"/>
</g>
<g style="mix-blend-mode:luminosity" filter="url(#filter33_d_391_240)">
<path d="M362 879C362.45 880.98 362.887 881.43 365 882C363.157 882.6 362.48 882.6 362 885C361.43 882.78 360.767 882.36 359 882C360.83 881.43 361.61 880.89 362 879Z" fill="#FAF7FF"/>
</g>
<g style="mix-blend-mode:luminosity" filter="url(#filter34_d_391_240)">
<path d="M432 829C432.45 830.98 432.887 831.43 435 832C433.157 832.6 432.48 832.6 432 835C431.43 832.78 430.767 832.36 429 832C430.83 831.43 431.61 830.89 432 829Z" fill="#FAF7FF"/>
</g>
<g style="mix-blend-mode:luminosity" filter="url(#filter35_d_391_240)">
<path d="M511 892C511.45 893.98 511.887 894.43 514 895C512.157 895.6 511.48 895.6 511 898C510.43 895.78 509.767 895.36 508 895C509.83 894.43 510.61 893.89 511 892Z" fill="#FAF7FF"/>
</g>
<g style="mix-blend-mode:luminosity" filter="url(#filter36_d_391_240)">
<path d="M426 972C426.45 973.98 426.887 974.43 429 975C427.157 975.6 426.48 975.6 426 978C425.43 975.78 424.767 975.36 423 975C424.83 974.43 425.61 973.89 426 972Z" fill="#FAF7FF"/>
</g>
<g style="mix-blend-mode:luminosity" filter="url(#filter37_d_391_240)">
<path d="M508 1020C508.45 1021.98 508.887 1022.43 511 1023C509.157 1023.6 508.48 1023.6 508 1026C507.43 1023.78 506.767 1023.36 505 1023C506.83 1022.43 507.61 1021.89 508 1020Z" fill="#FAF7FF"/>
</g>
<g style="mix-blend-mode:luminosity" filter="url(#filter38_d_391_240)">
<path d="M375 1052C375.45 1053.98 375.887 1054.43 378 1055C376.157 1055.6 375.48 1055.6 375 1058C374.43 1055.78 373.767 1055.36 372 1055C373.83 1054.43 374.61 1053.89 375 1052Z" fill="#FAF7FF"/>
</g>
<path d="M41.3386 460.452C37.8677 465.346 120.99 483.839 273.144 634.04C295.668 650.015 326.878 644.705 342.852 622.18C358.827 599.655 353.517 568.445 330.992 552.471C178.457 444.295 44.8095 455.558 41.3386 460.452Z" fill="url(#paint4_linear_391_240)"/>
<path d="M74.3681 464.874C72.1699 467.973 149.762 501.179 272.122 625.96C291.722 639.86 319.007 635.06 333.064 615.238C347.122 595.416 342.628 568.079 323.028 554.179C184.685 464.036 76.5663 461.774 74.3681 464.874Z" fill="url(#paint5_linear_391_240)"/>
<path d="M120.923 481.34C118.681 484.501 195.411 524.972 278.463 615.746C294.34 627.006 315.629 624.265 326.012 609.624C336.395 594.983 331.941 573.986 316.064 562.725C208.592 486.507 123.165 478.179 120.923 481.34Z" fill="url(#paint6_linear_391_240)"/>
<path d="M191.133 514.582C189.181 517.335 228.247 540.903 287.91 610.186C297.71 617.136 311.482 614.553 318.671 604.417C325.859 594.281 323.742 580.43 313.942 573.48C243.592 523.588 193.086 511.829 191.133 514.582Z" fill="#99EFFE"/>
<path d="M21.1529 986.05C20.2306 987.35 42.3186 992.264 82.7505 1032.18C88.736 1036.42 97.0293 1035.01 101.274 1029.03C105.519 1023.04 104.108 1014.75 98.1225 1010.5C57.5894 981.756 22.0752 984.749 21.1529 986.05Z" fill="url(#paint7_linear_391_240)"/>
<path d="M29.9298 987.225C29.3457 988.048 49.9642 996.872 82.479 1030.03C87.6873 1033.72 94.9377 1032.45 98.6731 1027.18C102.409 1021.91 101.215 1014.65 96.0064 1010.96C59.2443 987.002 30.514 986.401 29.9298 987.225Z" fill="url(#paint8_linear_391_240)"/>
<path d="M42.3009 991.6C41.7052 992.44 62.0947 1003.19 84.1639 1027.32C88.383 1030.31 94.04 1029.58 96.7992 1025.69C99.5584 1021.8 98.3748 1016.22 94.1557 1013.23C65.5971 992.973 42.8966 990.76 42.3009 991.6Z" fill="url(#paint9_linear_391_240)"/>
<path d="M60.9578 1000.43C60.439 1001.17 70.8202 1007.43 86.6745 1025.84C89.2786 1027.69 92.9382 1027 94.8484 1024.31C96.7586 1021.61 96.196 1017.93 93.5919 1016.08C74.8976 1002.83 61.4767 999.702 60.9578 1000.43Z" fill="#99EFFE"/>
<defs>
<filter id="filter0_d_391_240" x="93.7" y="575.7" width="33.6" height="33.6" filterUnits="userSpaceOnUse" color-interpolation-filters="sRGB">
<feFlood flood-opacity="0" result="BackgroundImageFix"/>
<feColorMatrix in="SourceAlpha" type="matrix" values="0 0 0 0 0 0 0 0 0 0 0 0 0 0 0 0 0 0 127 0" result="hardAlpha"/>
<feOffset/>
<feGaussianBlur stdDeviation="2.65"/>
<feComposite in2="hardAlpha" operator="out"/>
<feColorMatrix type="matrix" values="0 0 0 0 1 0 0 0 0 1 0 0 0 0 1 0 0 0 1 0"/>
<feBlend mode="normal" in2="BackgroundImageFix" result="effect1_dropShadow_391_240"/>
<feBlend mode="normal" in="SourceGraphic" in2="effect1_dropShadow_391_240" result="shape"/>
</filter>
<filter id="filter1_d_391_240" x="237.7" y="325.7" width="33.6" height="33.6" filterUnits="userSpaceOnUse" color-interpolation-filters="sRGB">
<feFlood flood-opacity="0" result="BackgroundImageFix"/>
<feColorMatrix in="SourceAlpha" type="matrix" values="0 0 0 0 0 0 0 0 0 0 0 0 0 0 0 0 0 0 127 0" result="hardAlpha"/>
<feOffset/>
<feGaussianBlur stdDeviation="2.65"/>
<feComposite in2="hardAlpha" operator="out"/>
<feColorMatrix type="matrix" values="0 0 0 0 1 0 0 0 0 1 0 0 0 0 1 0 0 0 1 0"/>
<feBlend mode="normal" in2="BackgroundImageFix" result="effect1_dropShadow_391_240"/>
<feBlend mode="normal" in="SourceGraphic" in2="effect1_dropShadow_391_240" result="shape"/>
</filter>
<filter id="filter2_d_391_240" x="-8.3" y="177.7" width="33.6" height="33.6" filterUnits="userSpaceOnUse" color-interpolation-filters="sRGB">
<feFlood flood-opacity="0" result="BackgroundImageFix"/>
<feColorMatrix in="SourceAlpha" type="matrix" values="0 0 0 0 0 0 0 0 0 0 0 0 0 0 0 0 0 0 127 0" result="hardAlpha"/>
<feOffset/>
<feGaussianBlur stdDeviation="2.65"/>
<feComposite in2="hardAlpha" operator="out"/>
<feColorMatrix type="matrix" values="0 0 0 0 1 0 0 0 0 1 0 0 0 0 1 0 0 0 1 0"/>
<feBlend mode="normal" in2="BackgroundImageFix" result="effect1_dropShadow_391_240"/>
<feBlend mode="normal" in="SourceGraphic" in2="effect1_dropShadow_391_240" result="shape"/>
</filter>
<filter id="filter3_d_391_240" x="383.7" y="881.7" width="33.6" height="33.6" filterUnits="userSpaceOnUse" color-interpolation-filters="sRGB">
<feFlood flood-opacity="0" result="BackgroundImageFix"/>
<feColorMatrix in="SourceAlpha" type="matrix" values="0 0 0 0 0 0 0 0 0 0 0 0 0 0 0 0 0 0 127 0" result="hardAlpha"/>
<feOffset/>
<feGaussianBlur stdDeviation="2.65"/>
<feComposite in2="hardAlpha" operator="out"/>
<feColorMatrix type="matrix" values="0 0 0 0 1 0 0 0 0 1 0 0 0 0 1 0 0 0 1 0"/>
<feBlend mode="normal" in2="BackgroundImageFix" result="effect1_dropShadow_391_240"/>
<feBlend mode="normal" in="SourceGraphic" in2="effect1_dropShadow_391_240" result="shape"/>
</filter>
<filter id="filter4_d_391_240" x="16.7" y="1046.7" width="33.6" height="33.6" filterUnits="userSpaceOnUse" color-interpolation-filters="sRGB">
<feFlood flood-opacity="0" result="BackgroundImageFix"/>
<feColorMatrix in="SourceAlpha" type="matrix" values="0 0 0 0 0 0 0 0 0 0 0 0 0 0 0 0 0 0 127 0" result="hardAlpha"/>
<feOffset/>
<feGaussianBlur stdDeviation="2.65"/>
<feComposite in2="hardAlpha" operator="out"/>
<feColorMatrix type="matrix" values="0 0 0 0 1 0 0 0 0 1 0 0 0 0 1 0 0 0 1 0"/>
<feBlend mode="normal" in2="BackgroundImageFix" result="effect1_dropShadow_391_240"/>
<feBlend mode="normal" in="SourceGraphic" in2="effect1_dropShadow_391_240" result="shape"/>
</filter>
<filter id="filter5_d_391_240" x="64.7" y="1015.7" width="16.6" height="16.6" filterUnits="userSpaceOnUse" color-interpolation-filters="sRGB">
<feFlood flood-opacity="0" result="BackgroundImageFix"/>
<feColorMatrix in="SourceAlpha" type="matrix" values="0 0 0 0 0 0 0 0 0 0 0 0 0 0 0 0 0 0 127 0" result="hardAlpha"/>
<feOffset/>
<feGaussianBlur stdDeviation="2.65"/>
<feComposite in2="hardAlpha" operator="out"/>
<feColorMatrix type="matrix" values="0 0 0 0 1 0 0 0 0 1 0 0 0 0 1 0 0 0 1 0"/>
<feBlend mode="normal" in2="BackgroundImageFix" result="effect1_dropShadow_391_240"/>
<feBlend mode="normal" in="SourceGraphic" in2="effect1_dropShadow_391_240" result="shape"/>
</filter>
<filter id="filter6_d_391_240" x="144.7" y="922.7" width="16.6" height="16.6" filterUnits="userSpaceOnUse" color-interpolation-filters="sRGB">
<feFlood flood-opacity="0" result="BackgroundImageFix"/>
<feColorMatrix in="SourceAlpha" type="matrix" values="0 0 0 0 0 0 0 0 0 0 0 0 0 0 0 0 0 0 127 0" result="hardAlpha"/>
<feOffset/>
<feGaussianBlur stdDeviation="2.65"/>
<feComposite in2="hardAlpha" operator="out"/>
<feColorMatrix type="matrix" values="0 0 0 0 1 0 0 0 0 1 0 0 0 0 1 0 0 0 1 0"/>
<feBlend mode="normal" in2="BackgroundImageFix" result="effect1_dropShadow_391_240"/>
<feBlend mode="normal" in="SourceGraphic" in2="effect1_dropShadow_391_240" result="shape"/>
</filter>
<filter id="filter7_d_391_240" x="77.7" y="889.7" width="16.6" height="16.6" filterUnits="userSpaceOnUse" color-interpolation-filters="sRGB">
<feFlood flood-opacity="0" result="BackgroundImageFix"/>
<feColorMatrix in="SourceAlpha" type="matrix" values="0 0 0 0 0 0 0 0 0 0 0 0 0 0 0 0 0 0 127 0" result="hardAlpha"/>
<feOffset/>
<feGaussianBlur stdDeviation="2.65"/>
<feComposite in2="hardAlpha" operator="out"/>
<feColorMatrix type="matrix" values="0 0 0 0 1 0 0 0 0 1 0 0 0 0 1 0 0 0 1 0"/>
<feBlend mode="normal" in2="BackgroundImageFix" result="effect1_dropShadow_391_240"/>
<feBlend mode="normal" in="SourceGraphic" in2="effect1_dropShadow_391_240" result="shape"/>
</filter>
<filter id="filter8_d_391_240" x="22.7" y="916.7" width="16.6" height="16.6" filterUnits="userSpaceOnUse" color-interpolation-filters="sRGB">
<feFlood flood-opacity="0" result="BackgroundImageFix"/>
<feColorMatrix in="SourceAlpha" type="matrix" values="0 0 0 0 0 0 0 0 0 0 0 0 0 0 0 0 0 0 127 0" result="hardAlpha"/>
<feOffset/>
<feGaussianBlur stdDeviation="2.65"/>
<feComposite in2="hardAlpha" operator="out"/>
<feColorMatrix type="matrix" values="0 0 0 0 1 0 0 0 0 1 0 0 0 0 1 0 0 0 1 0"/>
<feBlend mode="normal" in2="BackgroundImageFix" result="effect1_dropShadow_391_240"/>
<feBlend mode="normal" in="SourceGraphic" in2="effect1_dropShadow_391_240" result="shape"/>
</filter>
<filter id="filter9_d_391_240" x="178.7" y="1015.7" width="16.6" height="16.6" filterUnits="userSpaceOnUse" color-interpolation-filters="sRGB">
<feFlood flood-opacity="0" result="BackgroundImageFix"/>
<feColorMatrix in="SourceAlpha" type="matrix" values="0 0 0 0 0 0 0 0 0 0 0 0 0 0 0 0 0 0 127 0" result="hardAlpha"/>
<feOffset/>
<feGaussianBlur stdDeviation="2.65"/>
<feComposite in2="hardAlpha" operator="out"/>
<feColorMatrix type="matrix" values="0 0 0 0 1 0 0 0 0 1 0 0 0 0 1 0 0 0 1 0"/>
<feBlend mode="normal" in2="BackgroundImageFix" result="effect1_dropShadow_391_240"/>
<feBlend mode="normal" in="SourceGraphic" in2="effect1_dropShadow_391_240" result="shape"/>
</filter>
<filter id="filter10_d_391_240" x="194.7" y="960.7" width="16.6" height="16.6" filterUnits="userSpaceOnUse" color-interpolation-filters="sRGB">
<feFlood flood-opacity="0" result="BackgroundImageFix"/>
<feColorMatrix in="SourceAlpha" type="matrix" values="0 0 0 0 0 0 0 0 0 0 0 0 0 0 0 0 0 0 127 0" result="hardAlpha"/>
<feOffset/>
<feGaussianBlur stdDeviation="2.65"/>
<feComposite in2="hardAlpha" operator="out"/>
<feColorMatrix type="matrix" values="0 0 0 0 1 0 0 0 0 1 0 0 0 0 1 0 0 0 1 0"/>
<feBlend mode="normal" in2="BackgroundImageFix" result="effect1_dropShadow_391_240"/>
<feBlend mode="normal" in="SourceGraphic" in2="effect1_dropShadow_391_240" result="shape"/>
</filter>
<filter id="filter11_d_391_240" x="269.7" y="892.7" width="16.6" height="16.6" filterUnits="userSpaceOnUse" color-interpolation-filters="sRGB">
<feFlood flood-opacity="0" result="BackgroundImageFix"/>
<feColorMatrix in="SourceAlpha" type="matrix" values="0 0 0 0 0 0 0 0 0 0 0 0 0 0 0 0 0 0 127 0" result="hardAlpha"/>
<feOffset/>
<feGaussianBlur stdDeviation="2.65"/>
<feComposite in2="hardAlpha" operator="out"/>
<feColorMatrix type="matrix" values="0 0 0 0 1 0 0 0 0 1 0 0 0 0 1 0 0 0 1 0"/>
<feBlend mode="normal" in2="BackgroundImageFix" result="effect1_dropShadow_391_240"/>
<feBlend mode="normal" in="SourceGraphic" in2="effect1_dropShadow_391_240" result="shape"/>
</filter>
<filter id="filter12_d_391_240" x="301.7" y="993.7" width="16.6" height="16.6" filterUnits="userSpaceOnUse" color-interpolation-filters="sRGB">
<feFlood flood-opacity="0" result="BackgroundImageFix"/>
<feColorMatrix in="SourceAlpha" type="matrix" values="0 0 0 0 0 0 0 0 0 0 0 0 0 0 0 0 0 0 127 0" result="hardAlpha"/>
<feOffset/>
<feGaussianBlur stdDeviation="2.65"/>
<feComposite in2="hardAlpha" operator="out"/>
<feColorMatrix type="matrix" values="0 0 0 0 1 0 0 0 0 1 0 0 0 0 1 0 0 0 1 0"/>
<feBlend mode="normal" in2="BackgroundImageFix" result="effect1_dropShadow_391_240"/>
<feBlend mode="normal" in="SourceGraphic" in2="effect1_dropShadow_391_240" result="shape"/>
</filter>
<filter id="filter13_d_391_240" x="197.7" y="861.7" width="16.6" height="16.6" filterUnits="userSpaceOnUse" color-interpolation-filters="sRGB">
<feFlood flood-opacity="0" result="BackgroundImageFix"/>
<feColorMatrix in="SourceAlpha" type="matrix" values="0 0 0 0 0 0 0 0 0 0 0 0 0 0 0 0 0 0 127 0" result="hardAlpha"/>
<feOffset/>
<feGaussianBlur stdDeviation="2.65"/>
<feComposite in2="hardAlpha" operator="out"/>
<feColorMatrix type="matrix" values="0 0 0 0 1 0 0 0 0 1 0 0 0 0 1 0 0 0 1 0"/>
<feBlend mode="normal" in2="BackgroundImageFix" result="effect1_dropShadow_391_240"/>
<feBlend mode="normal" in="SourceGraphic" in2="effect1_dropShadow_391_240" result="shape"/>
</filter>
<filter id="filter14_d_391_240" x="61.7" y="727.7" width="16.6" height="16.6" filterUnits="userSpaceOnUse" color-interpolation-filters="sRGB">
<feFlood flood-opacity="0" result="BackgroundImageFix"/>
<feColorMatrix in="SourceAlpha" type="matrix" values="0 0 0 0 0 0 0 0 0 0 0 0 0 0 0 0 0 0 127 0" result="hardAlpha"/>
<feOffset/>
<feGaussianBlur stdDeviation="2.65"/>
<feComposite in2="hardAlpha" operator="out"/>
<feColorMatrix type="matrix" values="0 0 0 0 1 0 0 0 0 1 0 0 0 0 1 0 0 0 1 0"/>
<feBlend mode="normal" in2="BackgroundImageFix" result="effect1_dropShadow_391_240"/>
<feBlend mode="normal" in="SourceGraphic" in2="effect1_dropShadow_391_240" result="shape"/>
</filter>
<filter id="filter15_d_391_240" x="255.7" y="703.7" width="16.6" height="16.6" filterUnits="userSpaceOnUse" color-interpolation-filters="sRGB">
<feFlood flood-opacity="0" result="BackgroundImageFix"/>
<feColorMatrix in="SourceAlpha" type="matrix" values="0 0 0 0 0 0 0 0 0 0 0 0 0 0 0 0 0 0 127 0" result="hardAlpha"/>
<feOffset/>
<feGaussianBlur stdDeviation="2.65"/>
<feComposite in2="hardAlpha" operator="out"/>
<feColorMatrix type="matrix" values="0 0 0 0 1 0 0 0 0 1 0 0 0 0 1 0 0 0 1 0"/>
<feBlend mode="normal" in2="BackgroundImageFix" result="effect1_dropShadow_391_240"/>
<feBlend mode="normal" in="SourceGraphic" in2="effect1_dropShadow_391_240" result="shape"/>
</filter>
<filter id="filter16_d_391_240" x="131.7" y="792.7" width="16.6" height="16.6" filterUnits="userSpaceOnUse" color-interpolation-filters="sRGB">
<feFlood flood-opacity="0" result="BackgroundImageFix"/>
<feColorMatrix in="SourceAlpha" type="matrix" values="0 0 0 0 0 0 0 0 0 0 0 0 0 0 0 0 0 0 127 0" result="hardAlpha"/>
<feOffset/>
<feGaussianBlur stdDeviation="2.65"/>
<feComposite in2="hardAlpha" operator="out"/>
<feColorMatrix type="matrix" values="0 0 0 0 1 0 0 0 0 1 0 0 0 0 1 0 0 0 1 0"/>
<feBlend mode="normal" in2="BackgroundImageFix" result="effect1_dropShadow_391_240"/>
<feBlend mode="normal" in="SourceGraphic" in2="effect1_dropShadow_391_240" result="shape"/>
</filter>
<filter id="filter17_d_391_240" x="255.7" y="792.7" width="16.6" height="16.6" filterUnits="userSpaceOnUse" color-interpolation-filters="sRGB">
<feFlood flood-opacity="0" result="BackgroundImageFix"/>
<feColorMatrix in="SourceAlpha" type="matrix" values="0 0 0 0 0 0 0 0 0 0 0 0 0 0 0 0 0 0 127 0" result="hardAlpha"/>
<feOffset/>
<feGaussianBlur stdDeviation="2.65"/>
<feComposite in2="hardAlpha" operator="out"/>
<feColorMatrix type="matrix" values="0 0 0 0 1 0 0 0 0 1 0 0 0 0 1 0 0 0 1 0"/>
<feBlend mode="normal" in2="BackgroundImageFix" result="effect1_dropShadow_391_240"/>
<feBlend mode="normal" in="SourceGraphic" in2="effect1_dropShadow_391_240" result="shape"/>
</filter>
<filter id="filter18_d_391_240" x="80.7" y="665.7" width="16.6" height="16.6" filterUnits="userSpaceOnUse" color-interpolation-filters="sRGB">
<feFlood flood-opacity="0" result="BackgroundImageFix"/>
<feColorMatrix in="SourceAlpha" type="matrix" values="0 0 0 0 0 0 0 0 0 0 0 0 0 0 0 0 0 0 127 0" result="hardAlpha"/>
<feOffset/>
<feGaussianBlur stdDeviation="2.65"/>
<feComposite in2="hardAlpha" operator="out"/>
<feColorMatrix type="matrix" values="0 0 0 0 1 0 0 0 0 1 0 0 0 0 1 0 0 0 1 0"/>
<feBlend mode="normal" in2="BackgroundImageFix" result="effect1_dropShadow_391_240"/>
<feBlend mode="normal" in="SourceGraphic" in2="effect1_dropShadow_391_240" result="shape"/>
</filter>
<filter id="filter19_d_391_240" x="18.7" y="528.7" width="16.6" height="16.6" filterUnits="userSpaceOnUse" color-interpolation-filters="sRGB">
<feFlood flood-opacity="0" result="BackgroundImageFix"/>
<feColorMatrix in="SourceAlpha" type="matrix" values="0 0 0 0 0 0 0 0 0 0 0 0 0 0 0 0 0 0 127 0" result="hardAlpha"/>
<feOffset/>
<feGaussianBlur stdDeviation="2.65"/>
<feComposite in2="hardAlpha" operator="out"/>
<feColorMatrix type="matrix" values="0 0 0 0 1 0 0 0 0 1 0 0 0 0 1 0 0 0 1 0"/>
<feBlend mode="normal" in2="BackgroundImageFix" result="effect1_dropShadow_391_240"/>
<feBlend mode="normal" in="SourceGraphic" in2="effect1_dropShadow_391_240" result="shape"/>
</filter>
<filter id="filter20_d_391_240" x="93.7" y="500.7" width="16.6" height="16.6" filterUnits="userSpaceOnUse" color-interpolation-filters="sRGB">
<feFlood flood-opacity="0" result="BackgroundImageFix"/>
<feColorMatrix in="SourceAlpha" type="matrix" values="0 0 0 0 0 0 0 0 0 0 0 0 0 0 0 0 0 0 127 0" result="hardAlpha"/>
<feOffset/>
<feGaussianBlur stdDeviation="2.65"/>
<feComposite in2="hardAlpha" operator="out"/>
<feColorMatrix type="matrix" values="0 0 0 0 1 0 0 0 0 1 0 0 0 0 1 0 0 0 1 0"/>
<feBlend mode="normal" in2="BackgroundImageFix" result="effect1_dropShadow_391_240"/>
<feBlend mode="normal" in="SourceGraphic" in2="effect1_dropShadow_391_240" result="shape"/>
</filter>
<filter id="filter21_d_391_240" x="198.7" y="598.7" width="16.6" height="16.6" filterUnits="userSpaceOnUse" color-interpolation-filters="sRGB">
<feFlood flood-opacity="0" result="BackgroundImageFix"/>
<feColorMatrix in="SourceAlpha" type="matrix" values="0 0 0 0 0 0 0 0 0 0 0 0 0 0 0 0 0 0 127 0" result="hardAlpha"/>
<feOffset/>
<feGaussianBlur stdDeviation="2.65"/>
<feComposite in2="hardAlpha" operator="out"/>
<feColorMatrix type="matrix" values="0 0 0 0 1 0 0 0 0 1 0 0 0 0 1 0 0 0 1 0"/>
<feBlend mode="normal" in2="BackgroundImageFix" result="effect1_dropShadow_391_240"/>
<feBlend mode="normal" in="SourceGraphic" in2="effect1_dropShadow_391_240" result="shape"/>
</filter>
<filter id="filter22_d_391_240" x="269.7" y="413.7" width="16.6" height="16.6" filterUnits="userSpaceOnUse" color-interpolation-filters="sRGB">
<feFlood flood-opacity="0" result="BackgroundImageFix"/>
<feColorMatrix in="SourceAlpha" type="matrix" values="0 0 0 0 0 0 0 0 0 0 0 0 0 0 0 0 0 0 127 0" result="hardAlpha"/>
<feOffset/>
<feGaussianBlur stdDeviation="2.65"/>
<feComposite in2="hardAlpha" operator="out"/>
<feColorMatrix type="matrix" values="0 0 0 0 1 0 0 0 0 1 0 0 0 0 1 0 0 0 1 0"/>
<feBlend mode="normal" in2="BackgroundImageFix" result="effect1_dropShadow_391_240"/>
<feBlend mode="normal" in="SourceGraphic" in2="effect1_dropShadow_391_240" result="shape"/>
</filter>
<filter id="filter23_d_391_240" x="74.7" y="316.7" width="16.6" height="16.6" filterUnits="userSpaceOnUse" color-interpolation-filters="sRGB">
<feFlood flood-opacity="0" result="BackgroundImageFix"/>
<feColorMatrix in="SourceAlpha" type="matrix" values="0 0 0 0 0 0 0 0 0 0 0 0 0 0 0 0 0 0 127 0" result="hardAlpha"/>
<feOffset/>
<feGaussianBlur stdDeviation="2.65"/>
<feComposite in2="hardAlpha" operator="out"/>
<feColorMatrix type="matrix" values="0 0 0 0 1 0 0 0 0 1 0 0 0 0 1 0 0 0 1 0"/>
<feBlend mode="normal" in2="BackgroundImageFix" result="effect1_dropShadow_391_240"/>
<feBlend mode="normal" in="SourceGraphic" in2="effect1_dropShadow_391_240" result="shape"/>
</filter>
<filter id="filter24_d_391_240" x="31.7" y="410.7" width="16.6" height="16.6" filterUnits="userSpaceOnUse" color-interpolation-filters="sRGB">
<feFlood flood-opacity="0" result="BackgroundImageFix"/>
<feColorMatrix in="SourceAlpha" type="matrix" values="0 0 0 0 0 0 0 0 0 0 0 0 0 0 0 0 0 0 127 0" result="hardAlpha"/>
<feOffset/>
<feGaussianBlur stdDeviation="2.65"/>
<feComposite in2="hardAlpha" operator="out"/>
<feColorMatrix type="matrix" values="0 0 0 0 1 0 0 0 0 1 0 0 0 0 1 0 0 0 1 0"/>
<feBlend mode="normal" in2="BackgroundImageFix" result="effect1_dropShadow_391_240"/>
<feBlend mode="normal" in="SourceGraphic" in2="effect1_dropShadow_391_240" result="shape"/>
</filter>
<filter id="filter25_d_391_240" x="110.7" y="379.7" width="16.6" height="16.6" filterUnits="userSpaceOnUse" color-interpolation-filters="sRGB">
<feFlood flood-opacity="0" result="BackgroundImageFix"/>
<feColorMatrix in="SourceAlpha" type="matrix" values="0 0 0 0 0 0 0 0 0 0 0 0 0 0 0 0 0 0 127 0" result="hardAlpha"/>
<feOffset/>
<feGaussianBlur stdDeviation="2.65"/>
<feComposite in2="hardAlpha" operator="out"/>
<feColorMatrix type="matrix" values="0 0 0 0 1 0 0 0 0 1 0 0 0 0 1 0 0 0 1 0"/>
<feBlend mode="normal" in2="BackgroundImageFix" result="effect1_dropShadow_391_240"/>
<feBlend mode="normal" in="SourceGraphic" in2="effect1_dropShadow_391_240" result="shape"/>
</filter>
<filter id="filter26_d_391_240" x="218.7" y="253.7" width="16.6" height="16.6" filterUnits="userSpaceOnUse" color-interpolation-filters="sRGB">
<feFlood flood-opacity="0" result="BackgroundImageFix"/>
<feColorMatrix in="SourceAlpha" type="matrix" values="0 0 0 0 0 0 0 0 0 0 0 0 0 0 0 0 0 0 127 0" result="hardAlpha"/>
<feOffset/>
<feGaussianBlur stdDeviation="2.65"/>
<feComposite in2="hardAlpha" operator="out"/>
<feColorMatrix type="matrix" values="0 0 0 0 1 0 0 0 0 1 0 0 0 0 1 0 0 0 1 0"/>
<feBlend mode="normal" in2="BackgroundImageFix" result="effect1_dropShadow_391_240"/>
<feBlend mode="normal" in="SourceGraphic" in2="effect1_dropShadow_391_240" result="shape"/>
</filter>
<filter id="filter27_d_391_240" x="113.7" y="213.7" width="16.6" height="16.6" filterUnits="userSpaceOnUse" color-interpolation-filters="sRGB">
<feFlood flood-opacity="0" result="BackgroundImageFix"/>
<feColorMatrix in="SourceAlpha" type="matrix" values="0 0 0 0 0 0 0 0 0 0 0 0 0 0 0 0 0 0 127 0" result="hardAlpha"/>
<feOffset/>
<feGaussianBlur stdDeviation="2.65"/>
<feComposite in2="hardAlpha" operator="out"/>
<feColorMatrix type="matrix" values="0 0 0 0 1 0 0 0 0 1 0 0 0 0 1 0 0 0 1 0"/>
<feBlend mode="normal" in2="BackgroundImageFix" result="effect1_dropShadow_391_240"/>
<feBlend mode="normal" in="SourceGraphic" in2="effect1_dropShadow_391_240" result="shape"/>
</filter>
<filter id="filter28_d_391_240" x="185.7" y="433.7" width="16.6" height="16.6" filterUnits="userSpaceOnUse" color-interpolation-filters="sRGB">
<feFlood flood-opacity="0" result="BackgroundImageFix"/>
<feColorMatrix in="SourceAlpha" type="matrix" values="0 0 0 0 0 0 0 0 0 0 0 0 0 0 0 0 0 0 127 0" result="hardAlpha"/>
<feOffset/>
<feGaussianBlur stdDeviation="2.65"/>
<feComposite in2="hardAlpha" operator="out"/>
<feColorMatrix type="matrix" values="0 0 0 0 1 0 0 0 0 1 0 0 0 0 1 0 0 0 1 0"/>
<feBlend mode="normal" in2="BackgroundImageFix" result="effect1_dropShadow_391_240"/>
<feBlend mode="normal" in="SourceGraphic" in2="effect1_dropShadow_391_240" result="shape"/>
</filter>
<filter id="filter29_d_391_240" x="18.7" y="207.7" width="16.6" height="16.6" filterUnits="userSpaceOnUse" color-interpolation-filters="sRGB">
<feFlood flood-opacity="0" result="BackgroundImageFix"/>
<feColorMatrix in="SourceAlpha" type="matrix" values="0 0 0 0 0 0 0 0 0 0 0 0 0 0 0 0 0 0 127 0" result="hardAlpha"/>
<feOffset/>
<feGaussianBlur stdDeviation="2.65"/>
<feComposite in2="hardAlpha" operator="out"/>
<feColorMatrix type="matrix" values="0 0 0 0 1 0 0 0 0 1 0 0 0 0 1 0 0 0 1 0"/>
<feBlend mode="normal" in2="BackgroundImageFix" result="effect1_dropShadow_391_240"/>
<feBlend mode="normal" in="SourceGraphic" in2="effect1_dropShadow_391_240" result="shape"/>
</filter>
<filter id="filter30_d_391_240" x="93.7" y="129.7" width="16.6" height="16.6" filterUnits="userSpaceOnUse" color-interpolation-filters="sRGB">
<feFlood flood-opacity="0" result="BackgroundImageFix"/>
<feColorMatrix in="SourceAlpha" type="matrix" values="0 0 0 0 0 0 0 0 0 0 0 0 0 0 0 0 0 0 127 0" result="hardAlpha"/>
<feOffset/>
<feGaussianBlur stdDeviation="2.65"/>
<feComposite in2="hardAlpha" operator="out"/>
<feColorMatrix type="matrix" values="0 0 0 0 1 0 0 0 0 1 0 0 0 0 1 0 0 0 1 0"/>
<feBlend mode="normal" in2="BackgroundImageFix" result="effect1_dropShadow_391_240"/>
<feBlend mode="normal" in="SourceGraphic" in2="effect1_dropShadow_391_240" result="shape"/>
</filter>
<filter id="filter31_d_391_240" x="18.7" y="71.7" width="16.6" height="16.6" filterUnits="userSpaceOnUse" color-interpolation-filters="sRGB">
<feFlood flood-opacity="0" result="BackgroundImageFix"/>
<feColorMatrix in="SourceAlpha" type="matrix" values="0 0 0 0 0 0 0 0 0 0 0 0 0 0 0 0 0 0 127 0" result="hardAlpha"/>
<feOffset/>
<feGaussianBlur stdDeviation="2.65"/>
<feComposite in2="hardAlpha" operator="out"/>
<feColorMatrix type="matrix" values="0 0 0 0 1 0 0 0 0 1 0 0 0 0 1 0 0 0 1 0"/>
<feBlend mode="normal" in2="BackgroundImageFix" result="effect1_dropShadow_391_240"/>
<feBlend mode="normal" in="SourceGraphic" in2="effect1_dropShadow_391_240" result="shape"/>
</filter>
<filter id="filter32_d_391_240" x="3.7" y="23.7" width="16.6" height="16.6" filterUnits="userSpaceOnUse" color-interpolation-filters="sRGB">
<feFlood flood-opacity="0" result="BackgroundImageFix"/>
<feColorMatrix in="SourceAlpha" type="matrix" values="0 0 0 0 0 0 0 0 0 0 0 0 0 0 0 0 0 0 127 0" result="hardAlpha"/>
<feOffset/>
<feGaussianBlur stdDeviation="2.65"/>
<feComposite in2="hardAlpha" operator="out"/>
<feColorMatrix type="matrix" values="0 0 0 0 1 0 0 0 0 1 0 0 0 0 1 0 0 0 1 0"/>
<feBlend mode="normal" in2="BackgroundImageFix" result="effect1_dropShadow_391_240"/>
<feBlend mode="normal" in="SourceGraphic" in2="effect1_dropShadow_391_240" result="shape"/>
</filter>
<filter id="filter33_d_391_240" x="353.7" y="873.7" width="16.6" height="16.6" filterUnits="userSpaceOnUse" color-interpolation-filters="sRGB">
<feFlood flood-opacity="0" result="BackgroundImageFix"/>
<feColorMatrix in="SourceAlpha" type="matrix" values="0 0 0 0 0 0 0 0 0 0 0 0 0 0 0 0 0 0 127 0" result="hardAlpha"/>
<feOffset/>
<feGaussianBlur stdDeviation="2.65"/>
<feComposite in2="hardAlpha" operator="out"/>
<feColorMatrix type="matrix" values="0 0 0 0 1 0 0 0 0 1 0 0 0 0 1 0 0 0 1 0"/>
<feBlend mode="normal" in2="BackgroundImageFix" result="effect1_dropShadow_391_240"/>
<feBlend mode="normal" in="SourceGraphic" in2="effect1_dropShadow_391_240" result="shape"/>
</filter>
<filter id="filter34_d_391_240" x="423.7" y="823.7" width="16.6" height="16.6" filterUnits="userSpaceOnUse" color-interpolation-filters="sRGB">
<feFlood flood-opacity="0" result="BackgroundImageFix"/>
<feColorMatrix in="SourceAlpha" type="matrix" values="0 0 0 0 0 0 0 0 0 0 0 0 0 0 0 0 0 0 127 0" result="hardAlpha"/>
<feOffset/>
<feGaussianBlur stdDeviation="2.65"/>
<feComposite in2="hardAlpha" operator="out"/>
<feColorMatrix type="matrix" values="0 0 0 0 1 0 0 0 0 1 0 0 0 0 1 0 0 0 1 0"/>
<feBlend mode="normal" in2="BackgroundImageFix" result="effect1_dropShadow_391_240"/>
<feBlend mode="normal" in="SourceGraphic" in2="effect1_dropShadow_391_240" result="shape"/>
</filter>
<filter id="filter35_d_391_240" x="502.7" y="886.7" width="16.6" height="16.6" filterUnits="userSpaceOnUse" color-interpolation-filters="sRGB">
<feFlood flood-opacity="0" result="BackgroundImageFix"/>
<feColorMatrix in="SourceAlpha" type="matrix" values="0 0 0 0 0 0 0 0 0 0 0 0 0 0 0 0 0 0 127 0" result="hardAlpha"/>
<feOffset/>
<feGaussianBlur stdDeviation="2.65"/>
<feComposite in2="hardAlpha" operator="out"/>
<feColorMatrix type="matrix" values="0 0 0 0 1 0 0 0 0 1 0 0 0 0 1 0 0 0 1 0"/>
<feBlend mode="normal" in2="BackgroundImageFix" result="effect1_dropShadow_391_240"/>
<feBlend mode="normal" in="SourceGraphic" in2="effect1_dropShadow_391_240" result="shape"/>
</filter>
<filter id="filter36_d_391_240" x="417.7" y="966.7" width="16.6" height="16.6" filterUnits="userSpaceOnUse" color-interpolation-filters="sRGB">
<feFlood flood-opacity="0" result="BackgroundImageFix"/>
<feColorMatrix in="SourceAlpha" type="matrix" values="0 0 0 0 0 0 0 0 0 0 0 0 0 0 0 0 0 0 127 0" result="hardAlpha"/>
<feOffset/>
<feGaussianBlur stdDeviation="2.65"/>
<feComposite in2="hardAlpha" operator="out"/>
<feColorMatrix type="matrix" values="0 0 0 0 1 0 0 0 0 1 0 0 0 0 1 0 0 0 1 0"/>
<feBlend mode="normal" in2="BackgroundImageFix" result="effect1_dropShadow_391_240"/>
<feBlend mode="normal" in="SourceGraphic" in2="effect1_dropShadow_391_240" result="shape"/>
</filter>
<filter id="filter37_d_391_240" x="499.7" y="1014.7" width="16.6" height="16.6" filterUnits="userSpaceOnUse" color-interpolation-filters="sRGB">
<feFlood flood-opacity="0" result="BackgroundImageFix"/>
<feColorMatrix in="SourceAlpha" type="matrix" values="0 0 0 0 0 0 0 0 0 0 0 0 0 0 0 0 0 0 127 0" result="hardAlpha"/>
<feOffset/>
<feGaussianBlur stdDeviation="2.65"/>
<feComposite in2="hardAlpha" operator="out"/>
<feColorMatrix type="matrix" values="0 0 0 0 1 0 0 0 0 1 0 0 0 0 1 0 0 0 1 0"/>
<feBlend mode="normal" in2="BackgroundImageFix" result="effect1_dropShadow_391_240"/>
<feBlend mode="normal" in="SourceGraphic" in2="effect1_dropShadow_391_240" result="shape"/>
</filter>
<filter id="filter38_d_391_240" x="366.7" y="1046.7" width="16.6" height="16.6" filterUnits="userSpaceOnUse" color-interpolation-filters="sRGB">
<feFlood flood-opacity="0" result="BackgroundImageFix"/>
<feColorMatrix in="SourceAlpha" type="matrix" values="0 0 0 0 0 0 0 0 0 0 0 0 0 0 0 0 0 0 127 0" result="hardAlpha"/>
<feOffset/>
<feGaussianBlur stdDeviation="2.65"/>
<feComposite in2="hardAlpha" operator="out"/>
<feColorMatrix type="matrix" values="0 0 0 0 1 0 0 0 0 1 0 0 0 0 1 0 0 0 1 0"/>
<feBlend mode="normal" in2="BackgroundImageFix" result="effect1_dropShadow_391_240"/>
<feBlend mode="normal" in="SourceGraphic" in2="effect1_dropShadow_391_240" result="shape"/>
</filter>
<linearGradient id="paint0_linear_391_240" x1="537.514" y1="540" x2="-3.48602" y2="540" gradientUnits="userSpaceOnUse">
<stop offset="0.124999" stop-color="#2E1470"/>
<stop offset="0.846153" stop-color="#24064F"/>
</linearGradient>
<linearGradient id="paint1_linear_391_240" x1="-230" y1="1080.15" x2="425.514" y2="1080.15" gradientUnits="userSpaceOnUse">
<stop offset="0.396022" stop-color="#23054F" stop-opacity="0.11"/>
<stop offset="1" stop-color="#2B0D53"/>
</linearGradient>
<linearGradient id="paint2_linear_391_240" x1="-90.486" y1="865" x2="316.514" y2="865" gradientUnits="userSpaceOnUse">
<stop offset="0.396022" stop-color="#23054F" stop-opacity="0.11"/>
<stop offset="1" stop-color="#2B0D53"/>
</linearGradient>
<linearGradient id="paint3_linear_391_240" x1="-164.486" y1="403" x2="242.514" y2="403" gradientUnits="userSpaceOnUse">
<stop offset="0.396022" stop-color="#23054F" stop-opacity="0.11"/>
<stop offset="1" stop-color="#2B0D53"/>
</linearGradient>
<linearGradient id="paint4_linear_391_240" x1="342.852" y1="622.18" x2="100.999" y2="450.66" gradientUnits="userSpaceOnUse">
<stop offset="0.264422" stop-color="#5C1B90"/>
<stop offset="1" stop-color="#511A7D" stop-opacity="0"/>
</linearGradient>
<linearGradient id="paint5_linear_391_240" x1="333.064" y1="615.238" x2="89.9871" y2="442.85" gradientUnits="userSpaceOnUse">
<stop offset="0.668269" stop-color="#5C42A7"/>
<stop offset="1" stop-color="#241A41" stop-opacity="0"/>
</linearGradient>
<linearGradient id="paint6_linear_391_240" x1="326.012" y1="609.624" x2="129.022" y2="469.92" gradientUnits="userSpaceOnUse">
<stop offset="0.173076" stop-color="#4A98F5"/>
<stop offset="1" stop-color="#4A98F5" stop-opacity="0"/>
</linearGradient>
<linearGradient id="paint7_linear_391_240" x1="101.274" y1="1029.03" x2="37.0065" y2="983.448" gradientUnits="userSpaceOnUse">
<stop offset="0.264422" stop-color="#5C1B90"/>
<stop offset="1" stop-color="#511A7D" stop-opacity="0"/>
</linearGradient>
<linearGradient id="paint8_linear_391_240" x1="98.6731" y1="1027.18" x2="34.0803" y2="981.372" gradientUnits="userSpaceOnUse">
<stop offset="0.668269" stop-color="#5C42A7"/>
<stop offset="1" stop-color="#241A41" stop-opacity="0"/>
</linearGradient>
<linearGradient id="paint9_linear_391_240" x1="96.7992" y1="1025.69" x2="44.453" y2="988.566" gradientUnits="userSpaceOnUse">
<stop offset="0.173076" stop-color="#4A98F5"/>
<stop offset="1" stop-color="#4A98F5" stop-opacity="0"/>
</linearGradient>
</defs>
</svg>
