<svg width="547" height="1080" viewBox="0 0 547 1080" fill="none" xmlns="http://www.w3.org/2000/svg">
<path d="M472.684 817.381C582.467 868.662 537.318 958.791 537.318 1080H5.51398V0C28.1675 17.6116 81.2688 57.0821 112.445 74.072C151.416 95.3094 280.208 225.324 309.674 299.396C339.139 373.468 272.129 515.914 280.208 574.446C288.287 632.978 362.902 766.101 472.684 817.381Z" fill="url(#paint0_linear_3_185)"/>
<path d="M275.87 1033.34C383.66 1010.87 426.87 968.474 435 950.084C402.477 950.084 301.425 938.047 243.348 963.124C195.136 983.942 111.704 961.21 9 946V1080H185.868C210.367 1058.14 240.223 1040.77 275.87 1033.34Z" fill="url(#paint1_linear_3_185)"/>
<path d="M126.696 1010C118.052 955.726 84.0513 841.515 17.2025 818.862C14.3983 817.911 11.6646 816.926 9 815.908V735.929C19.3113 738.386 29.0529 742.23 37.3724 748.07C73.3901 773.353 141.103 734.923 223.224 722.787C288.92 713.078 318.791 795.602 325.514 838.077C298.429 814.614 224.424 828.301 190.808 838.077C197.147 897.946 150.708 977.638 126.696 1010Z" fill="url(#paint2_linear_3_185)"/>
<path d="M116.808 431.923C123.147 372.054 76.7081 292.362 52.6963 260C47.6178 291.886 33.7875 344.459 9.68622 387V514.6C46.4578 519.478 94.6606 539.15 149.224 547.213C214.92 556.922 244.791 474.398 251.514 431.923C224.429 455.386 150.424 441.699 116.808 431.923Z" fill="url(#paint3_linear_3_185)"/>
<g style="mix-blend-mode:luminosity" filter="url(#filter0_d_3_185)">
<path d="M119.5 582C121.225 589.59 122.901 591.315 131 593.5C123.936 595.8 121.34 595.8 119.5 605C117.315 596.49 114.772 594.88 108 593.5C115.015 591.315 118.005 589.245 119.5 582Z" fill="#FAF7FF"/>
</g>
<g style="mix-blend-mode:luminosity" filter="url(#filter1_d_3_185)">
<path d="M263.5 332C265.225 339.59 266.901 341.315 275 343.5C267.936 345.8 265.34 345.8 263.5 355C261.315 346.49 258.772 344.88 252 343.5C259.015 341.315 262.005 339.245 263.5 332Z" fill="#FAF7FF"/>
</g>
<g style="mix-blend-mode:luminosity" filter="url(#filter2_d_3_185)">
<path d="M17.5 184C19.225 191.59 20.9008 193.315 29 195.5C21.9358 197.8 19.34 197.8 17.5 207C15.315 198.49 12.7725 196.88 6 195.5C13.015 193.315 16.005 191.245 17.5 184Z" fill="#FAF7FF"/>
</g>
<g style="mix-blend-mode:luminosity" filter="url(#filter3_d_3_185)">
<path d="M409.5 888C411.225 895.59 412.901 897.315 421 899.5C413.936 901.8 411.34 901.8 409.5 911C407.315 902.49 404.772 900.88 398 899.5C405.015 897.315 408.005 895.245 409.5 888Z" fill="#FAF7FF"/>
</g>
<g style="mix-blend-mode:luminosity" filter="url(#filter4_d_3_185)">
<path d="M41.5 1042C43.225 1049.59 44.9008 1051.32 53 1053.5C45.9358 1055.8 43.34 1055.8 41.5 1065C39.315 1056.49 36.7725 1054.88 30 1053.5C37.015 1051.32 40.005 1049.25 41.5 1042Z" fill="#FAF7FF"/>
</g>
<g style="mix-blend-mode:luminosity" filter="url(#filter5_d_3_185)">
<path d="M82 1022C82.45 1023.98 82.8872 1024.43 85 1025C83.1572 1025.6 82.48 1025.6 82 1028C81.43 1025.78 80.7667 1025.36 79 1025C80.83 1024.43 81.61 1023.89 82 1022Z" fill="#FAF7FF"/>
</g>
<g style="mix-blend-mode:luminosity" filter="url(#filter6_d_3_185)">
<path d="M162 929C162.45 930.98 162.887 931.43 165 932C163.157 932.6 162.48 932.6 162 935C161.43 932.78 160.767 932.36 159 932C160.83 931.43 161.61 930.89 162 929Z" fill="#FAF7FF"/>
</g>
<g style="mix-blend-mode:luminosity" filter="url(#filter7_d_3_185)">
<path d="M95 896C95.45 897.98 95.8872 898.43 98 899C96.1572 899.6 95.48 899.6 95 902C94.43 899.78 93.7667 899.36 92 899C93.83 898.43 94.61 897.89 95 896Z" fill="#FAF7FF"/>
</g>
<g style="mix-blend-mode:luminosity" filter="url(#filter8_d_3_185)">
<path d="M40 923C40.45 924.98 40.8872 925.43 43 926C41.1572 926.6 40.48 926.6 40 929C39.43 926.78 38.7667 926.36 37 926C38.83 925.43 39.61 924.89 40 923Z" fill="#FAF7FF"/>
</g>
<g style="mix-blend-mode:luminosity" filter="url(#filter9_d_3_185)">
<path d="M196 1022C196.45 1023.98 196.887 1024.43 199 1025C197.157 1025.6 196.48 1025.6 196 1028C195.43 1025.78 194.767 1025.36 193 1025C194.83 1024.43 195.61 1023.89 196 1022Z" fill="#FAF7FF"/>
</g>
<g style="mix-blend-mode:luminosity" filter="url(#filter10_d_3_185)">
<path d="M212 967C212.45 968.98 212.887 969.43 215 970C213.157 970.6 212.48 970.6 212 973C211.43 970.78 210.767 970.36 209 970C210.83 969.43 211.61 968.89 212 967Z" fill="#FAF7FF"/>
</g>
<g style="mix-blend-mode:luminosity" filter="url(#filter11_d_3_185)">
<path d="M287 899C287.45 900.98 287.887 901.43 290 902C288.157 902.6 287.48 902.6 287 905C286.43 902.78 285.767 902.36 284 902C285.83 901.43 286.61 900.89 287 899Z" fill="#FAF7FF"/>
</g>
<g style="mix-blend-mode:luminosity" filter="url(#filter12_d_3_185)">
<path d="M319 1000C319.45 1001.98 319.887 1002.43 322 1003C320.157 1003.6 319.48 1003.6 319 1006C318.43 1003.78 317.767 1003.36 316 1003C317.83 1002.43 318.61 1001.89 319 1000Z" fill="#FAF7FF"/>
</g>
<g style="mix-blend-mode:luminosity" filter="url(#filter13_d_3_185)">
<path d="M215 868C215.45 869.98 215.887 870.43 218 871C216.157 871.6 215.48 871.6 215 874C214.43 871.78 213.767 871.36 212 871C213.83 870.43 214.61 869.89 215 868Z" fill="#FAF7FF"/>
</g>
<g style="mix-blend-mode:luminosity" filter="url(#filter14_d_3_185)">
<path d="M79 734C79.45 735.98 79.8872 736.43 82 737C80.1572 737.6 79.48 737.6 79 740C78.43 737.78 77.7667 737.36 76 737C77.83 736.43 78.61 735.89 79 734Z" fill="#FAF7FF"/>
</g>
<g style="mix-blend-mode:luminosity" filter="url(#filter15_d_3_185)">
<path d="M273 710C273.45 711.98 273.887 712.43 276 713C274.157 713.6 273.48 713.6 273 716C272.43 713.78 271.767 713.36 270 713C271.83 712.43 272.61 711.89 273 710Z" fill="#FAF7FF"/>
</g>
<g style="mix-blend-mode:luminosity" filter="url(#filter16_d_3_185)">
<path d="M149 799C149.45 800.98 149.887 801.43 152 802C150.157 802.6 149.48 802.6 149 805C148.43 802.78 147.767 802.36 146 802C147.83 801.43 148.61 800.89 149 799Z" fill="#FAF7FF"/>
</g>
<g style="mix-blend-mode:luminosity" filter="url(#filter17_d_3_185)">
<path d="M273 799C273.45 800.98 273.887 801.43 276 802C274.157 802.6 273.48 802.6 273 805C272.43 802.78 271.767 802.36 270 802C271.83 801.43 272.61 800.89 273 799Z" fill="#FAF7FF"/>
</g>
<g style="mix-blend-mode:luminosity" filter="url(#filter18_d_3_185)">
<path d="M98 672C98.45 673.98 98.8872 674.43 101 675C99.1572 675.6 98.48 675.6 98 678C97.43 675.78 96.7667 675.36 95 675C96.83 674.43 97.61 673.89 98 672Z" fill="#FAF7FF"/>
</g>
<g style="mix-blend-mode:luminosity" filter="url(#filter19_d_3_185)">
<path d="M36 535C36.45 536.98 36.8872 537.43 39 538C37.1572 538.6 36.48 538.6 36 541C35.43 538.78 34.7667 538.36 33 538C34.83 537.43 35.61 536.89 36 535Z" fill="#FAF7FF"/>
</g>
<g style="mix-blend-mode:luminosity" filter="url(#filter20_d_3_185)">
<path d="M111 507C111.45 508.98 111.887 509.43 114 510C112.157 510.6 111.48 510.6 111 513C110.43 510.78 109.767 510.36 108 510C109.83 509.43 110.61 508.89 111 507Z" fill="#FAF7FF"/>
</g>
<g style="mix-blend-mode:luminosity" filter="url(#filter21_d_3_185)">
<path d="M216 605C216.45 606.98 216.887 607.43 219 608C217.157 608.6 216.48 608.6 216 611C215.43 608.78 214.767 608.36 213 608C214.83 607.43 215.61 606.89 216 605Z" fill="#FAF7FF"/>
</g>
<g style="mix-blend-mode:luminosity" filter="url(#filter22_d_3_185)">
<path d="M287 420C287.45 421.98 287.887 422.43 290 423C288.157 423.6 287.48 423.6 287 426C286.43 423.78 285.767 423.36 284 423C285.83 422.43 286.61 421.89 287 420Z" fill="#FAF7FF"/>
</g>
<g style="mix-blend-mode:luminosity" filter="url(#filter23_d_3_185)">
<path d="M92 323C92.45 324.98 92.8872 325.43 95 326C93.1572 326.6 92.48 326.6 92 329C91.43 326.78 90.7667 326.36 89 326C90.83 325.43 91.61 324.89 92 323Z" fill="#FAF7FF"/>
</g>
<g style="mix-blend-mode:luminosity" filter="url(#filter24_d_3_185)">
<path d="M49 417C49.45 418.98 49.8872 419.43 52 420C50.1572 420.6 49.48 420.6 49 423C48.43 420.78 47.7667 420.36 46 420C47.83 419.43 48.61 418.89 49 417Z" fill="#FAF7FF"/>
</g>
<g style="mix-blend-mode:luminosity" filter="url(#filter25_d_3_185)">
<path d="M128 386C128.45 387.98 128.887 388.43 131 389C129.157 389.6 128.48 389.6 128 392C127.43 389.78 126.767 389.36 125 389C126.83 388.43 127.61 387.89 128 386Z" fill="#FAF7FF"/>
</g>
<g style="mix-blend-mode:luminosity" filter="url(#filter26_d_3_185)">
<path d="M236 260C236.45 261.98 236.887 262.43 239 263C237.157 263.6 236.48 263.6 236 266C235.43 263.78 234.767 263.36 233 263C234.83 262.43 235.61 261.89 236 260Z" fill="#FAF7FF"/>
</g>
<g style="mix-blend-mode:luminosity" filter="url(#filter27_d_3_185)">
<path d="M131 220C131.45 221.98 131.887 222.43 134 223C132.157 223.6 131.48 223.6 131 226C130.43 223.78 129.767 223.36 128 223C129.83 222.43 130.61 221.89 131 220Z" fill="#FAF7FF"/>
</g>
<g style="mix-blend-mode:luminosity" filter="url(#filter28_d_3_185)">
<path d="M203 440C203.45 441.98 203.887 442.43 206 443C204.157 443.6 203.48 443.6 203 446C202.43 443.78 201.767 443.36 200 443C201.83 442.43 202.61 441.89 203 440Z" fill="#FAF7FF"/>
</g>
<g style="mix-blend-mode:luminosity" filter="url(#filter29_d_3_185)">
<path d="M36 214C36.45 215.98 36.8872 216.43 39 217C37.1572 217.6 36.48 217.6 36 220C35.43 217.78 34.7667 217.36 33 217C34.83 216.43 35.61 215.89 36 214Z" fill="#FAF7FF"/>
</g>
<g style="mix-blend-mode:luminosity" filter="url(#filter30_d_3_185)">
<path d="M111 136C111.45 137.98 111.887 138.43 114 139C112.157 139.6 111.48 139.6 111 142C110.43 139.78 109.767 139.36 108 139C109.83 138.43 110.61 137.89 111 136Z" fill="#FAF7FF"/>
</g>
<g style="mix-blend-mode:luminosity" filter="url(#filter31_d_3_185)">
<path d="M36 78C36.45 79.98 36.8872 80.43 39 81C37.1572 81.6 36.48 81.6 36 84C35.43 81.78 34.7667 81.36 33 81C34.83 80.43 35.61 79.89 36 78Z" fill="#FAF7FF"/>
</g>
<g style="mix-blend-mode:luminosity" filter="url(#filter32_d_3_185)">
<path d="M21 30C21.45 31.98 21.8872 32.43 24 33C22.1572 33.6 21.48 33.6 21 36C20.43 33.78 19.7667 33.36 18 33C19.83 32.43 20.61 31.89 21 30Z" fill="#FAF7FF"/>
</g>
<g style="mix-blend-mode:luminosity" filter="url(#filter33_d_3_185)">
<path d="M371 880C371.45 881.98 371.887 882.43 374 883C372.157 883.6 371.48 883.6 371 886C370.43 883.78 369.767 883.36 368 883C369.83 882.43 370.61 881.89 371 880Z" fill="#FAF7FF"/>
</g>
<g style="mix-blend-mode:luminosity" filter="url(#filter34_d_3_185)">
<path d="M441 830C441.45 831.98 441.887 832.43 444 833C442.157 833.6 441.48 833.6 441 836C440.43 833.78 439.767 833.36 438 833C439.83 832.43 440.61 831.89 441 830Z" fill="#FAF7FF"/>
</g>
<g style="mix-blend-mode:luminosity" filter="url(#filter35_d_3_185)">
<path d="M520 893C520.45 894.98 520.887 895.43 523 896C521.157 896.6 520.48 896.6 520 899C519.43 896.78 518.767 896.36 517 896C518.83 895.43 519.61 894.89 520 893Z" fill="#FAF7FF"/>
</g>
<g style="mix-blend-mode:luminosity" filter="url(#filter36_d_3_185)">
<path d="M435 973C435.45 974.98 435.887 975.43 438 976C436.157 976.6 435.48 976.6 435 979C434.43 976.78 433.767 976.36 432 976C433.83 975.43 434.61 974.89 435 973Z" fill="#FAF7FF"/>
</g>
<g style="mix-blend-mode:luminosity" filter="url(#filter37_d_3_185)">
<path d="M517 1021C517.45 1022.98 517.887 1023.43 520 1024C518.157 1024.6 517.48 1024.6 517 1027C516.43 1024.78 515.767 1024.36 514 1024C515.83 1023.43 516.61 1022.89 517 1021Z" fill="#FAF7FF"/>
</g>
<g style="mix-blend-mode:luminosity" filter="url(#filter38_d_3_185)">
<path d="M384 1053C384.45 1054.98 384.887 1055.43 387 1056C385.157 1056.6 384.48 1056.6 384 1059C383.43 1056.78 382.767 1056.36 381 1056C382.83 1055.43 383.61 1054.89 384 1053Z" fill="#FAF7FF"/>
</g>
<path d="M50.3386 461.452C46.8677 466.346 129.99 484.839 282.144 635.04C304.668 651.015 335.878 645.705 351.852 623.18C367.827 600.655 362.517 569.445 339.992 553.471C187.457 445.295 53.8095 456.558 50.3386 461.452Z" fill="url(#paint4_linear_3_185)"/>
<path d="M83.3681 465.874C81.1699 468.973 158.762 502.179 281.122 626.96C300.722 640.86 328.007 636.06 342.064 616.238C356.122 596.416 351.628 569.079 332.028 555.179C193.685 465.036 85.5663 462.774 83.3681 465.874Z" fill="url(#paint5_linear_3_185)"/>
<path d="M129.923 482.34C127.681 485.501 204.411 525.972 287.463 616.746C303.34 628.006 324.629 625.265 335.012 610.624C345.395 595.983 340.941 574.986 325.064 563.725C217.592 487.507 132.165 479.179 129.923 482.34Z" fill="url(#paint6_linear_3_185)"/>
<path d="M200.133 515.582C198.181 518.335 237.247 541.903 296.91 611.186C306.71 618.136 320.482 615.553 327.671 605.417C334.859 595.281 332.742 581.43 322.942 574.48C252.592 524.588 202.086 512.829 200.133 515.582Z" fill="#99EFFE"/>
<path d="M30.1529 987.05C29.2306 988.35 51.3186 993.264 91.7505 1033.18C97.736 1037.42 106.029 1036.01 110.274 1030.03C114.519 1024.04 113.108 1015.75 107.122 1011.5C66.5894 982.756 31.0752 985.749 30.1529 987.05Z" fill="url(#paint7_linear_3_185)"/>
<path d="M38.9298 988.225C38.3457 989.048 58.9642 997.872 91.479 1031.03C96.6873 1034.72 103.938 1033.45 107.673 1028.18C111.409 1022.91 110.215 1015.65 105.006 1011.96C68.2443 988.002 39.514 987.401 38.9298 988.225Z" fill="url(#paint8_linear_3_185)"/>
<path d="M51.3009 992.6C50.7052 993.44 71.0947 1004.19 93.1639 1028.32C97.383 1031.31 103.04 1030.58 105.799 1026.69C108.558 1022.8 107.375 1017.22 103.156 1014.23C74.5971 993.973 51.8966 991.76 51.3009 992.6Z" fill="url(#paint9_linear_3_185)"/>
<path d="M69.9578 1001.43C69.439 1002.17 79.8202 1008.43 95.6745 1026.84C98.2786 1028.69 101.938 1028 103.848 1025.31C105.759 1022.61 105.196 1018.93 102.592 1017.08C83.8976 1003.83 70.4767 1000.7 69.9578 1001.43Z" fill="#99EFFE"/>
<defs>
<filter id="filter0_d_3_185" x="102.7" y="576.7" width="33.6" height="33.6" filterUnits="userSpaceOnUse" color-interpolation-filters="sRGB">
<feFlood flood-opacity="0" result="BackgroundImageFix"/>
<feColorMatrix in="SourceAlpha" type="matrix" values="0 0 0 0 0 0 0 0 0 0 0 0 0 0 0 0 0 0 127 0" result="hardAlpha"/>
<feOffset/>
<feGaussianBlur stdDeviation="2.65"/>
<feComposite in2="hardAlpha" operator="out"/>
<feColorMatrix type="matrix" values="0 0 0 0 1 0 0 0 0 1 0 0 0 0 1 0 0 0 1 0"/>
<feBlend mode="normal" in2="BackgroundImageFix" result="effect1_dropShadow_3_185"/>
<feBlend mode="normal" in="SourceGraphic" in2="effect1_dropShadow_3_185" result="shape"/>
</filter>
<filter id="filter1_d_3_185" x="246.7" y="326.7" width="33.6" height="33.6" filterUnits="userSpaceOnUse" color-interpolation-filters="sRGB">
<feFlood flood-opacity="0" result="BackgroundImageFix"/>
<feColorMatrix in="SourceAlpha" type="matrix" values="0 0 0 0 0 0 0 0 0 0 0 0 0 0 0 0 0 0 127 0" result="hardAlpha"/>
<feOffset/>
<feGaussianBlur stdDeviation="2.65"/>
<feComposite in2="hardAlpha" operator="out"/>
<feColorMatrix type="matrix" values="0 0 0 0 1 0 0 0 0 1 0 0 0 0 1 0 0 0 1 0"/>
<feBlend mode="normal" in2="BackgroundImageFix" result="effect1_dropShadow_3_185"/>
<feBlend mode="normal" in="SourceGraphic" in2="effect1_dropShadow_3_185" result="shape"/>
</filter>
<filter id="filter2_d_3_185" x="0.7" y="178.7" width="33.6" height="33.6" filterUnits="userSpaceOnUse" color-interpolation-filters="sRGB">
<feFlood flood-opacity="0" result="BackgroundImageFix"/>
<feColorMatrix in="SourceAlpha" type="matrix" values="0 0 0 0 0 0 0 0 0 0 0 0 0 0 0 0 0 0 127 0" result="hardAlpha"/>
<feOffset/>
<feGaussianBlur stdDeviation="2.65"/>
<feComposite in2="hardAlpha" operator="out"/>
<feColorMatrix type="matrix" values="0 0 0 0 1 0 0 0 0 1 0 0 0 0 1 0 0 0 1 0"/>
<feBlend mode="normal" in2="BackgroundImageFix" result="effect1_dropShadow_3_185"/>
<feBlend mode="normal" in="SourceGraphic" in2="effect1_dropShadow_3_185" result="shape"/>
</filter>
<filter id="filter3_d_3_185" x="392.7" y="882.7" width="33.6" height="33.6" filterUnits="userSpaceOnUse" color-interpolation-filters="sRGB">
<feFlood flood-opacity="0" result="BackgroundImageFix"/>
<feColorMatrix in="SourceAlpha" type="matrix" values="0 0 0 0 0 0 0 0 0 0 0 0 0 0 0 0 0 0 127 0" result="hardAlpha"/>
<feOffset/>
<feGaussianBlur stdDeviation="2.65"/>
<feComposite in2="hardAlpha" operator="out"/>
<feColorMatrix type="matrix" values="0 0 0 0 1 0 0 0 0 1 0 0 0 0 1 0 0 0 1 0"/>
<feBlend mode="normal" in2="BackgroundImageFix" result="effect1_dropShadow_3_185"/>
<feBlend mode="normal" in="SourceGraphic" in2="effect1_dropShadow_3_185" result="shape"/>
</filter>
<filter id="filter4_d_3_185" x="24.7" y="1036.7" width="33.6" height="33.6" filterUnits="userSpaceOnUse" color-interpolation-filters="sRGB">
<feFlood flood-opacity="0" result="BackgroundImageFix"/>
<feColorMatrix in="SourceAlpha" type="matrix" values="0 0 0 0 0 0 0 0 0 0 0 0 0 0 0 0 0 0 127 0" result="hardAlpha"/>
<feOffset/>
<feGaussianBlur stdDeviation="2.65"/>
<feComposite in2="hardAlpha" operator="out"/>
<feColorMatrix type="matrix" values="0 0 0 0 1 0 0 0 0 1 0 0 0 0 1 0 0 0 1 0"/>
<feBlend mode="normal" in2="BackgroundImageFix" result="effect1_dropShadow_3_185"/>
<feBlend mode="normal" in="SourceGraphic" in2="effect1_dropShadow_3_185" result="shape"/>
</filter>
<filter id="filter5_d_3_185" x="73.7" y="1016.7" width="16.6" height="16.6" filterUnits="userSpaceOnUse" color-interpolation-filters="sRGB">
<feFlood flood-opacity="0" result="BackgroundImageFix"/>
<feColorMatrix in="SourceAlpha" type="matrix" values="0 0 0 0 0 0 0 0 0 0 0 0 0 0 0 0 0 0 127 0" result="hardAlpha"/>
<feOffset/>
<feGaussianBlur stdDeviation="2.65"/>
<feComposite in2="hardAlpha" operator="out"/>
<feColorMatrix type="matrix" values="0 0 0 0 1 0 0 0 0 1 0 0 0 0 1 0 0 0 1 0"/>
<feBlend mode="normal" in2="BackgroundImageFix" result="effect1_dropShadow_3_185"/>
<feBlend mode="normal" in="SourceGraphic" in2="effect1_dropShadow_3_185" result="shape"/>
</filter>
<filter id="filter6_d_3_185" x="153.7" y="923.7" width="16.6" height="16.6" filterUnits="userSpaceOnUse" color-interpolation-filters="sRGB">
<feFlood flood-opacity="0" result="BackgroundImageFix"/>
<feColorMatrix in="SourceAlpha" type="matrix" values="0 0 0 0 0 0 0 0 0 0 0 0 0 0 0 0 0 0 127 0" result="hardAlpha"/>
<feOffset/>
<feGaussianBlur stdDeviation="2.65"/>
<feComposite in2="hardAlpha" operator="out"/>
<feColorMatrix type="matrix" values="0 0 0 0 1 0 0 0 0 1 0 0 0 0 1 0 0 0 1 0"/>
<feBlend mode="normal" in2="BackgroundImageFix" result="effect1_dropShadow_3_185"/>
<feBlend mode="normal" in="SourceGraphic" in2="effect1_dropShadow_3_185" result="shape"/>
</filter>
<filter id="filter7_d_3_185" x="86.7" y="890.7" width="16.6" height="16.6" filterUnits="userSpaceOnUse" color-interpolation-filters="sRGB">
<feFlood flood-opacity="0" result="BackgroundImageFix"/>
<feColorMatrix in="SourceAlpha" type="matrix" values="0 0 0 0 0 0 0 0 0 0 0 0 0 0 0 0 0 0 127 0" result="hardAlpha"/>
<feOffset/>
<feGaussianBlur stdDeviation="2.65"/>
<feComposite in2="hardAlpha" operator="out"/>
<feColorMatrix type="matrix" values="0 0 0 0 1 0 0 0 0 1 0 0 0 0 1 0 0 0 1 0"/>
<feBlend mode="normal" in2="BackgroundImageFix" result="effect1_dropShadow_3_185"/>
<feBlend mode="normal" in="SourceGraphic" in2="effect1_dropShadow_3_185" result="shape"/>
</filter>
<filter id="filter8_d_3_185" x="31.7" y="917.7" width="16.6" height="16.6" filterUnits="userSpaceOnUse" color-interpolation-filters="sRGB">
<feFlood flood-opacity="0" result="BackgroundImageFix"/>
<feColorMatrix in="SourceAlpha" type="matrix" values="0 0 0 0 0 0 0 0 0 0 0 0 0 0 0 0 0 0 127 0" result="hardAlpha"/>
<feOffset/>
<feGaussianBlur stdDeviation="2.65"/>
<feComposite in2="hardAlpha" operator="out"/>
<feColorMatrix type="matrix" values="0 0 0 0 1 0 0 0 0 1 0 0 0 0 1 0 0 0 1 0"/>
<feBlend mode="normal" in2="BackgroundImageFix" result="effect1_dropShadow_3_185"/>
<feBlend mode="normal" in="SourceGraphic" in2="effect1_dropShadow_3_185" result="shape"/>
</filter>
<filter id="filter9_d_3_185" x="187.7" y="1016.7" width="16.6" height="16.6" filterUnits="userSpaceOnUse" color-interpolation-filters="sRGB">
<feFlood flood-opacity="0" result="BackgroundImageFix"/>
<feColorMatrix in="SourceAlpha" type="matrix" values="0 0 0 0 0 0 0 0 0 0 0 0 0 0 0 0 0 0 127 0" result="hardAlpha"/>
<feOffset/>
<feGaussianBlur stdDeviation="2.65"/>
<feComposite in2="hardAlpha" operator="out"/>
<feColorMatrix type="matrix" values="0 0 0 0 1 0 0 0 0 1 0 0 0 0 1 0 0 0 1 0"/>
<feBlend mode="normal" in2="BackgroundImageFix" result="effect1_dropShadow_3_185"/>
<feBlend mode="normal" in="SourceGraphic" in2="effect1_dropShadow_3_185" result="shape"/>
</filter>
<filter id="filter10_d_3_185" x="203.7" y="961.7" width="16.6" height="16.6" filterUnits="userSpaceOnUse" color-interpolation-filters="sRGB">
<feFlood flood-opacity="0" result="BackgroundImageFix"/>
<feColorMatrix in="SourceAlpha" type="matrix" values="0 0 0 0 0 0 0 0 0 0 0 0 0 0 0 0 0 0 127 0" result="hardAlpha"/>
<feOffset/>
<feGaussianBlur stdDeviation="2.65"/>
<feComposite in2="hardAlpha" operator="out"/>
<feColorMatrix type="matrix" values="0 0 0 0 1 0 0 0 0 1 0 0 0 0 1 0 0 0 1 0"/>
<feBlend mode="normal" in2="BackgroundImageFix" result="effect1_dropShadow_3_185"/>
<feBlend mode="normal" in="SourceGraphic" in2="effect1_dropShadow_3_185" result="shape"/>
</filter>
<filter id="filter11_d_3_185" x="278.7" y="893.7" width="16.6" height="16.6" filterUnits="userSpaceOnUse" color-interpolation-filters="sRGB">
<feFlood flood-opacity="0" result="BackgroundImageFix"/>
<feColorMatrix in="SourceAlpha" type="matrix" values="0 0 0 0 0 0 0 0 0 0 0 0 0 0 0 0 0 0 127 0" result="hardAlpha"/>
<feOffset/>
<feGaussianBlur stdDeviation="2.65"/>
<feComposite in2="hardAlpha" operator="out"/>
<feColorMatrix type="matrix" values="0 0 0 0 1 0 0 0 0 1 0 0 0 0 1 0 0 0 1 0"/>
<feBlend mode="normal" in2="BackgroundImageFix" result="effect1_dropShadow_3_185"/>
<feBlend mode="normal" in="SourceGraphic" in2="effect1_dropShadow_3_185" result="shape"/>
</filter>
<filter id="filter12_d_3_185" x="310.7" y="994.7" width="16.6" height="16.6" filterUnits="userSpaceOnUse" color-interpolation-filters="sRGB">
<feFlood flood-opacity="0" result="BackgroundImageFix"/>
<feColorMatrix in="SourceAlpha" type="matrix" values="0 0 0 0 0 0 0 0 0 0 0 0 0 0 0 0 0 0 127 0" result="hardAlpha"/>
<feOffset/>
<feGaussianBlur stdDeviation="2.65"/>
<feComposite in2="hardAlpha" operator="out"/>
<feColorMatrix type="matrix" values="0 0 0 0 1 0 0 0 0 1 0 0 0 0 1 0 0 0 1 0"/>
<feBlend mode="normal" in2="BackgroundImageFix" result="effect1_dropShadow_3_185"/>
<feBlend mode="normal" in="SourceGraphic" in2="effect1_dropShadow_3_185" result="shape"/>
</filter>
<filter id="filter13_d_3_185" x="206.7" y="862.7" width="16.6" height="16.6" filterUnits="userSpaceOnUse" color-interpolation-filters="sRGB">
<feFlood flood-opacity="0" result="BackgroundImageFix"/>
<feColorMatrix in="SourceAlpha" type="matrix" values="0 0 0 0 0 0 0 0 0 0 0 0 0 0 0 0 0 0 127 0" result="hardAlpha"/>
<feOffset/>
<feGaussianBlur stdDeviation="2.65"/>
<feComposite in2="hardAlpha" operator="out"/>
<feColorMatrix type="matrix" values="0 0 0 0 1 0 0 0 0 1 0 0 0 0 1 0 0 0 1 0"/>
<feBlend mode="normal" in2="BackgroundImageFix" result="effect1_dropShadow_3_185"/>
<feBlend mode="normal" in="SourceGraphic" in2="effect1_dropShadow_3_185" result="shape"/>
</filter>
<filter id="filter14_d_3_185" x="70.7" y="728.7" width="16.6" height="16.6" filterUnits="userSpaceOnUse" color-interpolation-filters="sRGB">
<feFlood flood-opacity="0" result="BackgroundImageFix"/>
<feColorMatrix in="SourceAlpha" type="matrix" values="0 0 0 0 0 0 0 0 0 0 0 0 0 0 0 0 0 0 127 0" result="hardAlpha"/>
<feOffset/>
<feGaussianBlur stdDeviation="2.65"/>
<feComposite in2="hardAlpha" operator="out"/>
<feColorMatrix type="matrix" values="0 0 0 0 1 0 0 0 0 1 0 0 0 0 1 0 0 0 1 0"/>
<feBlend mode="normal" in2="BackgroundImageFix" result="effect1_dropShadow_3_185"/>
<feBlend mode="normal" in="SourceGraphic" in2="effect1_dropShadow_3_185" result="shape"/>
</filter>
<filter id="filter15_d_3_185" x="264.7" y="704.7" width="16.6" height="16.6" filterUnits="userSpaceOnUse" color-interpolation-filters="sRGB">
<feFlood flood-opacity="0" result="BackgroundImageFix"/>
<feColorMatrix in="SourceAlpha" type="matrix" values="0 0 0 0 0 0 0 0 0 0 0 0 0 0 0 0 0 0 127 0" result="hardAlpha"/>
<feOffset/>
<feGaussianBlur stdDeviation="2.65"/>
<feComposite in2="hardAlpha" operator="out"/>
<feColorMatrix type="matrix" values="0 0 0 0 1 0 0 0 0 1 0 0 0 0 1 0 0 0 1 0"/>
<feBlend mode="normal" in2="BackgroundImageFix" result="effect1_dropShadow_3_185"/>
<feBlend mode="normal" in="SourceGraphic" in2="effect1_dropShadow_3_185" result="shape"/>
</filter>
<filter id="filter16_d_3_185" x="140.7" y="793.7" width="16.6" height="16.6" filterUnits="userSpaceOnUse" color-interpolation-filters="sRGB">
<feFlood flood-opacity="0" result="BackgroundImageFix"/>
<feColorMatrix in="SourceAlpha" type="matrix" values="0 0 0 0 0 0 0 0 0 0 0 0 0 0 0 0 0 0 127 0" result="hardAlpha"/>
<feOffset/>
<feGaussianBlur stdDeviation="2.65"/>
<feComposite in2="hardAlpha" operator="out"/>
<feColorMatrix type="matrix" values="0 0 0 0 1 0 0 0 0 1 0 0 0 0 1 0 0 0 1 0"/>
<feBlend mode="normal" in2="BackgroundImageFix" result="effect1_dropShadow_3_185"/>
<feBlend mode="normal" in="SourceGraphic" in2="effect1_dropShadow_3_185" result="shape"/>
</filter>
<filter id="filter17_d_3_185" x="264.7" y="793.7" width="16.6" height="16.6" filterUnits="userSpaceOnUse" color-interpolation-filters="sRGB">
<feFlood flood-opacity="0" result="BackgroundImageFix"/>
<feColorMatrix in="SourceAlpha" type="matrix" values="0 0 0 0 0 0 0 0 0 0 0 0 0 0 0 0 0 0 127 0" result="hardAlpha"/>
<feOffset/>
<feGaussianBlur stdDeviation="2.65"/>
<feComposite in2="hardAlpha" operator="out"/>
<feColorMatrix type="matrix" values="0 0 0 0 1 0 0 0 0 1 0 0 0 0 1 0 0 0 1 0"/>
<feBlend mode="normal" in2="BackgroundImageFix" result="effect1_dropShadow_3_185"/>
<feBlend mode="normal" in="SourceGraphic" in2="effect1_dropShadow_3_185" result="shape"/>
</filter>
<filter id="filter18_d_3_185" x="89.7" y="666.7" width="16.6" height="16.6" filterUnits="userSpaceOnUse" color-interpolation-filters="sRGB">
<feFlood flood-opacity="0" result="BackgroundImageFix"/>
<feColorMatrix in="SourceAlpha" type="matrix" values="0 0 0 0 0 0 0 0 0 0 0 0 0 0 0 0 0 0 127 0" result="hardAlpha"/>
<feOffset/>
<feGaussianBlur stdDeviation="2.65"/>
<feComposite in2="hardAlpha" operator="out"/>
<feColorMatrix type="matrix" values="0 0 0 0 1 0 0 0 0 1 0 0 0 0 1 0 0 0 1 0"/>
<feBlend mode="normal" in2="BackgroundImageFix" result="effect1_dropShadow_3_185"/>
<feBlend mode="normal" in="SourceGraphic" in2="effect1_dropShadow_3_185" result="shape"/>
</filter>
<filter id="filter19_d_3_185" x="27.7" y="529.7" width="16.6" height="16.6" filterUnits="userSpaceOnUse" color-interpolation-filters="sRGB">
<feFlood flood-opacity="0" result="BackgroundImageFix"/>
<feColorMatrix in="SourceAlpha" type="matrix" values="0 0 0 0 0 0 0 0 0 0 0 0 0 0 0 0 0 0 127 0" result="hardAlpha"/>
<feOffset/>
<feGaussianBlur stdDeviation="2.65"/>
<feComposite in2="hardAlpha" operator="out"/>
<feColorMatrix type="matrix" values="0 0 0 0 1 0 0 0 0 1 0 0 0 0 1 0 0 0 1 0"/>
<feBlend mode="normal" in2="BackgroundImageFix" result="effect1_dropShadow_3_185"/>
<feBlend mode="normal" in="SourceGraphic" in2="effect1_dropShadow_3_185" result="shape"/>
</filter>
<filter id="filter20_d_3_185" x="102.7" y="501.7" width="16.6" height="16.6" filterUnits="userSpaceOnUse" color-interpolation-filters="sRGB">
<feFlood flood-opacity="0" result="BackgroundImageFix"/>
<feColorMatrix in="SourceAlpha" type="matrix" values="0 0 0 0 0 0 0 0 0 0 0 0 0 0 0 0 0 0 127 0" result="hardAlpha"/>
<feOffset/>
<feGaussianBlur stdDeviation="2.65"/>
<feComposite in2="hardAlpha" operator="out"/>
<feColorMatrix type="matrix" values="0 0 0 0 1 0 0 0 0 1 0 0 0 0 1 0 0 0 1 0"/>
<feBlend mode="normal" in2="BackgroundImageFix" result="effect1_dropShadow_3_185"/>
<feBlend mode="normal" in="SourceGraphic" in2="effect1_dropShadow_3_185" result="shape"/>
</filter>
<filter id="filter21_d_3_185" x="207.7" y="599.7" width="16.6" height="16.6" filterUnits="userSpaceOnUse" color-interpolation-filters="sRGB">
<feFlood flood-opacity="0" result="BackgroundImageFix"/>
<feColorMatrix in="SourceAlpha" type="matrix" values="0 0 0 0 0 0 0 0 0 0 0 0 0 0 0 0 0 0 127 0" result="hardAlpha"/>
<feOffset/>
<feGaussianBlur stdDeviation="2.65"/>
<feComposite in2="hardAlpha" operator="out"/>
<feColorMatrix type="matrix" values="0 0 0 0 1 0 0 0 0 1 0 0 0 0 1 0 0 0 1 0"/>
<feBlend mode="normal" in2="BackgroundImageFix" result="effect1_dropShadow_3_185"/>
<feBlend mode="normal" in="SourceGraphic" in2="effect1_dropShadow_3_185" result="shape"/>
</filter>
<filter id="filter22_d_3_185" x="278.7" y="414.7" width="16.6" height="16.6" filterUnits="userSpaceOnUse" color-interpolation-filters="sRGB">
<feFlood flood-opacity="0" result="BackgroundImageFix"/>
<feColorMatrix in="SourceAlpha" type="matrix" values="0 0 0 0 0 0 0 0 0 0 0 0 0 0 0 0 0 0 127 0" result="hardAlpha"/>
<feOffset/>
<feGaussianBlur stdDeviation="2.65"/>
<feComposite in2="hardAlpha" operator="out"/>
<feColorMatrix type="matrix" values="0 0 0 0 1 0 0 0 0 1 0 0 0 0 1 0 0 0 1 0"/>
<feBlend mode="normal" in2="BackgroundImageFix" result="effect1_dropShadow_3_185"/>
<feBlend mode="normal" in="SourceGraphic" in2="effect1_dropShadow_3_185" result="shape"/>
</filter>
<filter id="filter23_d_3_185" x="83.7" y="317.7" width="16.6" height="16.6" filterUnits="userSpaceOnUse" color-interpolation-filters="sRGB">
<feFlood flood-opacity="0" result="BackgroundImageFix"/>
<feColorMatrix in="SourceAlpha" type="matrix" values="0 0 0 0 0 0 0 0 0 0 0 0 0 0 0 0 0 0 127 0" result="hardAlpha"/>
<feOffset/>
<feGaussianBlur stdDeviation="2.65"/>
<feComposite in2="hardAlpha" operator="out"/>
<feColorMatrix type="matrix" values="0 0 0 0 1 0 0 0 0 1 0 0 0 0 1 0 0 0 1 0"/>
<feBlend mode="normal" in2="BackgroundImageFix" result="effect1_dropShadow_3_185"/>
<feBlend mode="normal" in="SourceGraphic" in2="effect1_dropShadow_3_185" result="shape"/>
</filter>
<filter id="filter24_d_3_185" x="40.7" y="411.7" width="16.6" height="16.6" filterUnits="userSpaceOnUse" color-interpolation-filters="sRGB">
<feFlood flood-opacity="0" result="BackgroundImageFix"/>
<feColorMatrix in="SourceAlpha" type="matrix" values="0 0 0 0 0 0 0 0 0 0 0 0 0 0 0 0 0 0 127 0" result="hardAlpha"/>
<feOffset/>
<feGaussianBlur stdDeviation="2.65"/>
<feComposite in2="hardAlpha" operator="out"/>
<feColorMatrix type="matrix" values="0 0 0 0 1 0 0 0 0 1 0 0 0 0 1 0 0 0 1 0"/>
<feBlend mode="normal" in2="BackgroundImageFix" result="effect1_dropShadow_3_185"/>
<feBlend mode="normal" in="SourceGraphic" in2="effect1_dropShadow_3_185" result="shape"/>
</filter>
<filter id="filter25_d_3_185" x="119.7" y="380.7" width="16.6" height="16.6" filterUnits="userSpaceOnUse" color-interpolation-filters="sRGB">
<feFlood flood-opacity="0" result="BackgroundImageFix"/>
<feColorMatrix in="SourceAlpha" type="matrix" values="0 0 0 0 0 0 0 0 0 0 0 0 0 0 0 0 0 0 127 0" result="hardAlpha"/>
<feOffset/>
<feGaussianBlur stdDeviation="2.65"/>
<feComposite in2="hardAlpha" operator="out"/>
<feColorMatrix type="matrix" values="0 0 0 0 1 0 0 0 0 1 0 0 0 0 1 0 0 0 1 0"/>
<feBlend mode="normal" in2="BackgroundImageFix" result="effect1_dropShadow_3_185"/>
<feBlend mode="normal" in="SourceGraphic" in2="effect1_dropShadow_3_185" result="shape"/>
</filter>
<filter id="filter26_d_3_185" x="227.7" y="254.7" width="16.6" height="16.6" filterUnits="userSpaceOnUse" color-interpolation-filters="sRGB">
<feFlood flood-opacity="0" result="BackgroundImageFix"/>
<feColorMatrix in="SourceAlpha" type="matrix" values="0 0 0 0 0 0 0 0 0 0 0 0 0 0 0 0 0 0 127 0" result="hardAlpha"/>
<feOffset/>
<feGaussianBlur stdDeviation="2.65"/>
<feComposite in2="hardAlpha" operator="out"/>
<feColorMatrix type="matrix" values="0 0 0 0 1 0 0 0 0 1 0 0 0 0 1 0 0 0 1 0"/>
<feBlend mode="normal" in2="BackgroundImageFix" result="effect1_dropShadow_3_185"/>
<feBlend mode="normal" in="SourceGraphic" in2="effect1_dropShadow_3_185" result="shape"/>
</filter>
<filter id="filter27_d_3_185" x="122.7" y="214.7" width="16.6" height="16.6" filterUnits="userSpaceOnUse" color-interpolation-filters="sRGB">
<feFlood flood-opacity="0" result="BackgroundImageFix"/>
<feColorMatrix in="SourceAlpha" type="matrix" values="0 0 0 0 0 0 0 0 0 0 0 0 0 0 0 0 0 0 127 0" result="hardAlpha"/>
<feOffset/>
<feGaussianBlur stdDeviation="2.65"/>
<feComposite in2="hardAlpha" operator="out"/>
<feColorMatrix type="matrix" values="0 0 0 0 1 0 0 0 0 1 0 0 0 0 1 0 0 0 1 0"/>
<feBlend mode="normal" in2="BackgroundImageFix" result="effect1_dropShadow_3_185"/>
<feBlend mode="normal" in="SourceGraphic" in2="effect1_dropShadow_3_185" result="shape"/>
</filter>
<filter id="filter28_d_3_185" x="194.7" y="434.7" width="16.6" height="16.6" filterUnits="userSpaceOnUse" color-interpolation-filters="sRGB">
<feFlood flood-opacity="0" result="BackgroundImageFix"/>
<feColorMatrix in="SourceAlpha" type="matrix" values="0 0 0 0 0 0 0 0 0 0 0 0 0 0 0 0 0 0 127 0" result="hardAlpha"/>
<feOffset/>
<feGaussianBlur stdDeviation="2.65"/>
<feComposite in2="hardAlpha" operator="out"/>
<feColorMatrix type="matrix" values="0 0 0 0 1 0 0 0 0 1 0 0 0 0 1 0 0 0 1 0"/>
<feBlend mode="normal" in2="BackgroundImageFix" result="effect1_dropShadow_3_185"/>
<feBlend mode="normal" in="SourceGraphic" in2="effect1_dropShadow_3_185" result="shape"/>
</filter>
<filter id="filter29_d_3_185" x="27.7" y="208.7" width="16.6" height="16.6" filterUnits="userSpaceOnUse" color-interpolation-filters="sRGB">
<feFlood flood-opacity="0" result="BackgroundImageFix"/>
<feColorMatrix in="SourceAlpha" type="matrix" values="0 0 0 0 0 0 0 0 0 0 0 0 0 0 0 0 0 0 127 0" result="hardAlpha"/>
<feOffset/>
<feGaussianBlur stdDeviation="2.65"/>
<feComposite in2="hardAlpha" operator="out"/>
<feColorMatrix type="matrix" values="0 0 0 0 1 0 0 0 0 1 0 0 0 0 1 0 0 0 1 0"/>
<feBlend mode="normal" in2="BackgroundImageFix" result="effect1_dropShadow_3_185"/>
<feBlend mode="normal" in="SourceGraphic" in2="effect1_dropShadow_3_185" result="shape"/>
</filter>
<filter id="filter30_d_3_185" x="102.7" y="130.7" width="16.6" height="16.6" filterUnits="userSpaceOnUse" color-interpolation-filters="sRGB">
<feFlood flood-opacity="0" result="BackgroundImageFix"/>
<feColorMatrix in="SourceAlpha" type="matrix" values="0 0 0 0 0 0 0 0 0 0 0 0 0 0 0 0 0 0 127 0" result="hardAlpha"/>
<feOffset/>
<feGaussianBlur stdDeviation="2.65"/>
<feComposite in2="hardAlpha" operator="out"/>
<feColorMatrix type="matrix" values="0 0 0 0 1 0 0 0 0 1 0 0 0 0 1 0 0 0 1 0"/>
<feBlend mode="normal" in2="BackgroundImageFix" result="effect1_dropShadow_3_185"/>
<feBlend mode="normal" in="SourceGraphic" in2="effect1_dropShadow_3_185" result="shape"/>
</filter>
<filter id="filter31_d_3_185" x="27.7" y="72.7" width="16.6" height="16.6" filterUnits="userSpaceOnUse" color-interpolation-filters="sRGB">
<feFlood flood-opacity="0" result="BackgroundImageFix"/>
<feColorMatrix in="SourceAlpha" type="matrix" values="0 0 0 0 0 0 0 0 0 0 0 0 0 0 0 0 0 0 127 0" result="hardAlpha"/>
<feOffset/>
<feGaussianBlur stdDeviation="2.65"/>
<feComposite in2="hardAlpha" operator="out"/>
<feColorMatrix type="matrix" values="0 0 0 0 1 0 0 0 0 1 0 0 0 0 1 0 0 0 1 0"/>
<feBlend mode="normal" in2="BackgroundImageFix" result="effect1_dropShadow_3_185"/>
<feBlend mode="normal" in="SourceGraphic" in2="effect1_dropShadow_3_185" result="shape"/>
</filter>
<filter id="filter32_d_3_185" x="12.7" y="24.7" width="16.6" height="16.6" filterUnits="userSpaceOnUse" color-interpolation-filters="sRGB">
<feFlood flood-opacity="0" result="BackgroundImageFix"/>
<feColorMatrix in="SourceAlpha" type="matrix" values="0 0 0 0 0 0 0 0 0 0 0 0 0 0 0 0 0 0 127 0" result="hardAlpha"/>
<feOffset/>
<feGaussianBlur stdDeviation="2.65"/>
<feComposite in2="hardAlpha" operator="out"/>
<feColorMatrix type="matrix" values="0 0 0 0 1 0 0 0 0 1 0 0 0 0 1 0 0 0 1 0"/>
<feBlend mode="normal" in2="BackgroundImageFix" result="effect1_dropShadow_3_185"/>
<feBlend mode="normal" in="SourceGraphic" in2="effect1_dropShadow_3_185" result="shape"/>
</filter>
<filter id="filter33_d_3_185" x="362.7" y="874.7" width="16.6" height="16.6" filterUnits="userSpaceOnUse" color-interpolation-filters="sRGB">
<feFlood flood-opacity="0" result="BackgroundImageFix"/>
<feColorMatrix in="SourceAlpha" type="matrix" values="0 0 0 0 0 0 0 0 0 0 0 0 0 0 0 0 0 0 127 0" result="hardAlpha"/>
<feOffset/>
<feGaussianBlur stdDeviation="2.65"/>
<feComposite in2="hardAlpha" operator="out"/>
<feColorMatrix type="matrix" values="0 0 0 0 1 0 0 0 0 1 0 0 0 0 1 0 0 0 1 0"/>
<feBlend mode="normal" in2="BackgroundImageFix" result="effect1_dropShadow_3_185"/>
<feBlend mode="normal" in="SourceGraphic" in2="effect1_dropShadow_3_185" result="shape"/>
</filter>
<filter id="filter34_d_3_185" x="432.7" y="824.7" width="16.6" height="16.6" filterUnits="userSpaceOnUse" color-interpolation-filters="sRGB">
<feFlood flood-opacity="0" result="BackgroundImageFix"/>
<feColorMatrix in="SourceAlpha" type="matrix" values="0 0 0 0 0 0 0 0 0 0 0 0 0 0 0 0 0 0 127 0" result="hardAlpha"/>
<feOffset/>
<feGaussianBlur stdDeviation="2.65"/>
<feComposite in2="hardAlpha" operator="out"/>
<feColorMatrix type="matrix" values="0 0 0 0 1 0 0 0 0 1 0 0 0 0 1 0 0 0 1 0"/>
<feBlend mode="normal" in2="BackgroundImageFix" result="effect1_dropShadow_3_185"/>
<feBlend mode="normal" in="SourceGraphic" in2="effect1_dropShadow_3_185" result="shape"/>
</filter>
<filter id="filter35_d_3_185" x="511.7" y="887.7" width="16.6" height="16.6" filterUnits="userSpaceOnUse" color-interpolation-filters="sRGB">
<feFlood flood-opacity="0" result="BackgroundImageFix"/>
<feColorMatrix in="SourceAlpha" type="matrix" values="0 0 0 0 0 0 0 0 0 0 0 0 0 0 0 0 0 0 127 0" result="hardAlpha"/>
<feOffset/>
<feGaussianBlur stdDeviation="2.65"/>
<feComposite in2="hardAlpha" operator="out"/>
<feColorMatrix type="matrix" values="0 0 0 0 1 0 0 0 0 1 0 0 0 0 1 0 0 0 1 0"/>
<feBlend mode="normal" in2="BackgroundImageFix" result="effect1_dropShadow_3_185"/>
<feBlend mode="normal" in="SourceGraphic" in2="effect1_dropShadow_3_185" result="shape"/>
</filter>
<filter id="filter36_d_3_185" x="426.7" y="967.7" width="16.6" height="16.6" filterUnits="userSpaceOnUse" color-interpolation-filters="sRGB">
<feFlood flood-opacity="0" result="BackgroundImageFix"/>
<feColorMatrix in="SourceAlpha" type="matrix" values="0 0 0 0 0 0 0 0 0 0 0 0 0 0 0 0 0 0 127 0" result="hardAlpha"/>
<feOffset/>
<feGaussianBlur stdDeviation="2.65"/>
<feComposite in2="hardAlpha" operator="out"/>
<feColorMatrix type="matrix" values="0 0 0 0 1 0 0 0 0 1 0 0 0 0 1 0 0 0 1 0"/>
<feBlend mode="normal" in2="BackgroundImageFix" result="effect1_dropShadow_3_185"/>
<feBlend mode="normal" in="SourceGraphic" in2="effect1_dropShadow_3_185" result="shape"/>
</filter>
<filter id="filter37_d_3_185" x="508.7" y="1015.7" width="16.6" height="16.6" filterUnits="userSpaceOnUse" color-interpolation-filters="sRGB">
<feFlood flood-opacity="0" result="BackgroundImageFix"/>
<feColorMatrix in="SourceAlpha" type="matrix" values="0 0 0 0 0 0 0 0 0 0 0 0 0 0 0 0 0 0 127 0" result="hardAlpha"/>
<feOffset/>
<feGaussianBlur stdDeviation="2.65"/>
<feComposite in2="hardAlpha" operator="out"/>
<feColorMatrix type="matrix" values="0 0 0 0 1 0 0 0 0 1 0 0 0 0 1 0 0 0 1 0"/>
<feBlend mode="normal" in2="BackgroundImageFix" result="effect1_dropShadow_3_185"/>
<feBlend mode="normal" in="SourceGraphic" in2="effect1_dropShadow_3_185" result="shape"/>
</filter>
<filter id="filter38_d_3_185" x="375.7" y="1047.7" width="16.6" height="16.6" filterUnits="userSpaceOnUse" color-interpolation-filters="sRGB">
<feFlood flood-opacity="0" result="BackgroundImageFix"/>
<feColorMatrix in="SourceAlpha" type="matrix" values="0 0 0 0 0 0 0 0 0 0 0 0 0 0 0 0 0 0 127 0" result="hardAlpha"/>
<feOffset/>
<feGaussianBlur stdDeviation="2.65"/>
<feComposite in2="hardAlpha" operator="out"/>
<feColorMatrix type="matrix" values="0 0 0 0 1 0 0 0 0 1 0 0 0 0 1 0 0 0 1 0"/>
<feBlend mode="normal" in2="BackgroundImageFix" result="effect1_dropShadow_3_185"/>
<feBlend mode="normal" in="SourceGraphic" in2="effect1_dropShadow_3_185" result="shape"/>
</filter>
<linearGradient id="paint0_linear_3_185" x1="546.514" y1="540" x2="5.51398" y2="540" gradientUnits="userSpaceOnUse">
<stop offset="0.124999" stop-color="#2E1470"/>
<stop offset="0.846153" stop-color="#24064F"/>
</linearGradient>
<linearGradient id="paint1_linear_3_185" x1="-221.263" y1="1080.1" x2="435" y2="1080.1" gradientUnits="userSpaceOnUse">
<stop offset="0.396022" stop-color="#23054F" stop-opacity="0.11"/>
<stop offset="1" stop-color="#2B0D53"/>
</linearGradient>
<linearGradient id="paint2_linear_3_185" x1="-81.486" y1="866" x2="325.514" y2="866" gradientUnits="userSpaceOnUse">
<stop offset="0.396022" stop-color="#23054F" stop-opacity="0.11"/>
<stop offset="1" stop-color="#2B0D53"/>
</linearGradient>
<linearGradient id="paint3_linear_3_185" x1="-155.486" y1="404" x2="251.514" y2="404" gradientUnits="userSpaceOnUse">
<stop offset="0.396022" stop-color="#23054F" stop-opacity="0.11"/>
<stop offset="1" stop-color="#2B0D53"/>
</linearGradient>
<linearGradient id="paint4_linear_3_185" x1="351.852" y1="623.18" x2="109.999" y2="451.66" gradientUnits="userSpaceOnUse">
<stop offset="0.264422" stop-color="#5C1B90"/>
<stop offset="1" stop-color="#511A7D" stop-opacity="0"/>
</linearGradient>
<linearGradient id="paint5_linear_3_185" x1="342.064" y1="616.238" x2="98.9871" y2="443.85" gradientUnits="userSpaceOnUse">
<stop offset="0.668269" stop-color="#5C42A7"/>
<stop offset="1" stop-color="#241A41" stop-opacity="0"/>
</linearGradient>
<linearGradient id="paint6_linear_3_185" x1="335.012" y1="610.624" x2="138.022" y2="470.92" gradientUnits="userSpaceOnUse">
<stop offset="0.173076" stop-color="#4A98F5"/>
<stop offset="1" stop-color="#4A98F5" stop-opacity="0"/>
</linearGradient>
<linearGradient id="paint7_linear_3_185" x1="110.274" y1="1030.03" x2="46.0064" y2="984.448" gradientUnits="userSpaceOnUse">
<stop offset="0.264422" stop-color="#5C1B90"/>
<stop offset="1" stop-color="#511A7D" stop-opacity="0"/>
</linearGradient>
<linearGradient id="paint8_linear_3_185" x1="107.673" y1="1028.18" x2="43.0802" y2="982.372" gradientUnits="userSpaceOnUse">
<stop offset="0.668269" stop-color="#5C42A7"/>
<stop offset="1" stop-color="#241A41" stop-opacity="0"/>
</linearGradient>
<linearGradient id="paint9_linear_3_185" x1="105.799" y1="1026.69" x2="53.453" y2="989.566" gradientUnits="userSpaceOnUse">
<stop offset="0.173076" stop-color="#4A98F5"/>
<stop offset="1" stop-color="#4A98F5" stop-opacity="0"/>
</linearGradient>
</defs>
</svg>
